<svg width="16" height="12" viewBox="0 0 16 12" fill="none" xmlns="http://www.w3.org/2000/svg">
<rect width="16" height="12" fill="#F5F5F5"/>
<g opacity="0.5">
<path d="M0 2V10C0 11.1046 0.89543 12 2 12H14C15.1046 12 16 11.1046 16 10V2C16 0.89543 15.1046 0 14 0H2C0.89543 0 0 0.89543 0 2Z" fill="#43458B"/>
<path d="M15.1078 11.6654L0 6.00002L15.1078 0.334595C15.6456 0.693075 16 1.30517 16 2.00002V10C16 10.6949 15.6456 11.307 15.1078 11.6654Z" fill="#E25950"/>
<path d="M15.7083 11.0406L2.5 6.00002L15.7083 0.959412C15.8934 1.26257 16 1.61884 16 2.00001V10C16 10.3812 15.8934 10.7375 15.7083 11.0406Z" fill="white"/>
<path fill-rule="evenodd" clip-rule="evenodd" d="M15.7242 0.985869C15.8995 1.28322 16 1.62987 16 2.00001V10C16 10.3812 15.8934 10.7375 15.7083 11.0406L15 10.775V1.22503L15.7083 0.959412C15.7137 0.968186 15.719 0.977005 15.7242 0.985869Z" fill="#EAEEF3"/>
<path d="M12.5 6C13.3284 6 14 5.32843 14 4.5C14 3.67157 13.3284 3 12.5 3C11.6716 3 11 3.67157 11 4.5C11 5.32843 11.6716 6 12.5 6Z" fill="#AA5323"/>
<path d="M12.5 9C13.3284 9 14 8.32843 14 7.5C14 6.67157 13.3284 6 12.5 6C11.6716 6 11 6.67157 11 7.5C11 8.32843 11.6716 9 12.5 9Z" fill="#FFC221"/>
</g>
</svg>
