<svg width="16" height="12" viewBox="0 0 16 12" fill="none" xmlns="http://www.w3.org/2000/svg">
<rect width="16" height="12" fill="#F5F5F5"/>
<g opacity="0.5">
<path fill-rule="evenodd" clip-rule="evenodd" d="M2 0C0.895431 0 0 0.895431 0 2V4H16V2C16 0.895431 15.1046 0 14 0H2Z" fill="#217AB7"/>
<path fill-rule="evenodd" clip-rule="evenodd" d="M0 4H16V8H0V4Z" fill="#E25950"/>
<path fill-rule="evenodd" clip-rule="evenodd" d="M0 8V10C0 11.1046 0.895431 12 2 12H14C15.1046 12 16 11.1046 16 10V8H0Z" fill="#24B47E"/>
<path fill-rule="evenodd" clip-rule="evenodd" d="M7 8C7.36444 8 7.70611 7.90253 8.00036 7.73223C7.9186 7.74394 7.83501 7.75 7.75 7.75C6.7835 7.75 6 6.9665 6 6C6 5.0335 6.7835 4.25 7.75 4.25C7.83501 4.25 7.9186 4.25606 8.00036 4.26777C7.70611 4.09747 7.36444 4 7 4C5.89543 4 5 4.89543 5 6C5 7.10457 5.89543 8 7 8ZM10 6C10 6.55228 9.55228 7 9 7C8.44772 7 8 6.55228 8 6C8 5.44772 8.44772 5 9 5C9.55228 5 10 5.44772 10 6Z" fill="white"/>
</g>
</svg>
