<svg width="16" height="12" viewBox="0 0 16 12" fill="none" xmlns="http://www.w3.org/2000/svg">
<rect width="16" height="12" fill="#F5F5F5"/>
<g opacity="0.5">
<path fill-rule="evenodd" clip-rule="evenodd" d="M2 0C0.895431 0 0 0.895431 0 2V10C0 11.1046 0.895431 12 2 12H14C15.1046 12 16 11.1046 16 10V2C16 0.895431 15.1046 0 14 0H2Z" fill="#F6F9FC"/>
<path d="M2 0C0.89543 0 0 0.89543 0 2V10C0 11.1046 0.89543 12 2 12V11C1.44772 11 1 10.5523 1 10V2C1 1.44772 1.44772 1 2 1V0Z" fill="#EAEEF3"/>
<path d="M14 0C15.1046 0 16 0.89543 16 2V10C16 11.1046 15.1046 12 14 12V11C14.5523 11 15 10.5523 15 10V2C15 1.44772 14.5523 1 14 1V0Z" fill="#EAEEF3"/>
<path fill-rule="evenodd" clip-rule="evenodd" d="M14.0059 0H1.99405C1.52884 0 1.10083 0.160948 0.761615 0.430279C0.793586 0.451804 0.8291 0.473777 0.868183 0.49611L7.99999 4.5L15.4292 0.602408C15.0671 0.230645 14.5628 0 14.0059 0ZM0.761444 11.5698C1.10092 11.8392 1.52916 12 1.99405 12H14.0059C14.4712 12 14.8992 11.839 15.2384 11.5697C15.2064 11.5482 15.1708 11.5262 15.1318 11.5039L8.00092 7.5L0.868183 11.5039C0.82903 11.5263 0.79346 11.5483 0.761444 11.5698Z" fill="#E25950"/>
<path fill-rule="evenodd" clip-rule="evenodd" d="M0 2L7 6L0 10V2ZM16 2V10L9 6L16 2Z" fill="#24B47E"/>
<path fill-rule="evenodd" clip-rule="evenodd" d="M8 9C9.65685 9 11 7.65685 11 6C11 4.34315 9.65685 3 8 3C6.34315 3 5 4.34315 5 6C5 7.65685 6.34315 9 8 9Z" fill="#F6F9FC"/>
<path fill-rule="evenodd" clip-rule="evenodd" d="M8 5.5C8.27614 5.5 8.5 5.27614 8.5 5C8.5 4.72386 8.27614 4.5 8 4.5C7.72386 4.5 7.5 4.72386 7.5 5C7.5 5.27614 7.72386 5.5 8 5.5ZM7 7C7.27614 7 7.5 6.77614 7.5 6.5C7.5 6.22386 7.27614 6 7 6C6.72386 6 6.5 6.22386 6.5 6.5C6.5 6.77614 6.72386 7 7 7ZM9.5 6.5C9.5 6.77614 9.27614 7 9 7C8.72386 7 8.5 6.77614 8.5 6.5C8.5 6.22386 8.72386 6 9 6C9.27614 6 9.5 6.22386 9.5 6.5Z" fill="#B1372F"/>
</g>
</svg>
