<svg width="16" height="12" viewBox="0 0 16 12" fill="none" xmlns="http://www.w3.org/2000/svg">
<rect width="16" height="12" fill="#F5F5F5"/>
<g opacity="0.5" clip-path="url(#clip0_0_1)">
<path d="M0 4H16V8H0V4Z" fill="#F6F9FC"/>
<path d="M15 8V4H16V8H15ZM0 4H1V8H0V4Z" fill="#EAEEF3"/>
<path d="M16 2V4H0V2C0 0.9 0.9 0 2 0H14C14.5304 0 15.0391 0.210714 15.4142 0.585786C15.7893 0.960859 16 1.46957 16 2Z" fill="#E25950"/>
<path d="M0 10V8H16V10C16 10.5304 15.7893 11.0391 15.4142 11.4142C15.0391 11.7893 14.5304 12 14 12H2C1.46957 12 0.960859 11.7893 0.585786 11.4142C0.210714 11.0391 0 10.5304 0 10Z" fill="#43458B"/>
</g>
<defs>
<clipPath id="clip0_0_1">
<rect width="16" height="12" fill="white"/>
</clipPath>
</defs>
</svg>
