<svg width="16" height="12" viewBox="0 0 16 12" fill="none" xmlns="http://www.w3.org/2000/svg">
<rect width="16" height="12" fill="#F5F5F5"/>
<g opacity="0.5">
<rect width="16" height="12" rx="2" fill="#24B47E"/>
<path d="M7.99922 1L15 6L7.99922 11L1 5.91978L7.99922 1Z" fill="#FCD669"/>
<path d="M8 3C9.65685 3 11 4.34315 11 6C11 7.65685 9.65685 9 8 9C6.34315 9 5 7.65685 5 6C5 4.34315 6.34315 3 8 3Z" fill="#43458B"/>
<path d="M10.8483 6.94456C10.7258 7.31423 10.5333 7.652 10.2865 7.94221C9.00614 6.54217 7.11645 5.64531 5.04901 5.45708C5.11558 5.09289 5.24791 4.75167 5.43325 4.44617C7.50859 4.69413 9.45655 5.60528 10.8483 6.94456Z" fill="white"/>
</g>
</svg>
