<svg width="16" height="12" viewBox="0 0 16 12" fill="none" xmlns="http://www.w3.org/2000/svg">
<rect width="16" height="12" fill="#F5F5F5"/>
<g opacity="0.5">
<path d="M5 0H11V12H5V0Z" fill="#F6F9FC"/>
<path fill-rule="evenodd" clip-rule="evenodd" d="M11 0H5V1H11V0ZM5 11V12H11V11H5Z" fill="#E25950" fill-opacity="0.1"/>
<path fill-rule="evenodd" clip-rule="evenodd" d="M2 12H5V0H2C0.89543 0 0 0.89543 0 2V10C0 11.1046 0.89543 12 2 12ZM11 12H14C15.1046 12 16 11.1046 16 10V2C16 0.89543 15.1046 0 14 0H11V12Z" fill="#E25950"/>
<path fill-rule="evenodd" clip-rule="evenodd" d="M7.67286 7.28256L6.67357 7.27685L6.8 6.69185L5.5 6.49399L5.96214 5.63899L5.54786 4.50685L6.68571 4.95971L7.02214 3.66114L7.52071 3.91542L7.99786 2.99899L8.54071 3.90185L8.98429 3.69756L9.19786 4.95256L10.4643 4.55471L10.075 5.60471L10.5 6.48685L9.24286 6.69185L9.35786 7.27114L8.32786 7.26114L8.33357 8.67899L7.675 8.69256L7.67286 7.28256Z" fill="#E25950"/>
</g>
</svg>
