<svg width="16" height="12" viewBox="0 0 16 12" fill="none" xmlns="http://www.w3.org/2000/svg">
<rect width="16" height="12" fill="#F5F5F5"/>
<g opacity="0.5">
<path fill-rule="evenodd" clip-rule="evenodd" d="M2 0C0.895431 0 0 0.895431 0 2V10C0 11.1046 0.895431 12 2 12H14C15.1046 12 16 11.1046 16 10V2C16 0.895431 15.1046 0 14 0H2Z" fill="#FCD669"/>
<path fill-rule="evenodd" clip-rule="evenodd" d="M14 0H10V1H14V0ZM7 11H3V12H7V11ZM0 5H1V9H0V5ZM16 3H15V6H16V3Z" fill="#A68527" fill-opacity="0.1"/>
<path fill-rule="evenodd" clip-rule="evenodd" d="M16 3L3 12H2C0.89543 12 0 11.1046 0 10V9L13.5 0H14C15.1046 0 16 0.89543 16 2V3Z" fill="#E25950"/>
<path fill-rule="evenodd" clip-rule="evenodd" d="M0 2C0 0.895431 0.895431 0 2 0H11.5L0 7.5V2ZM14 12C15.1046 12 16 11.1046 16 10V4.5L5 12H14Z" fill="#45B2E8"/>
<path fill-rule="evenodd" clip-rule="evenodd" d="M3 1C2.44772 1 2 1.44772 2 2V2C2 2.55228 2.44772 3 3 3V3C3.55228 3 4 2.55228 4 2V2C4 1.44772 3.55228 1 3 1V1Z" fill="#FCD669"/>
</g>
</svg>
