<svg width="16" height="13" viewBox="0 0 16 13" fill="none" xmlns="http://www.w3.org/2000/svg">
<rect width="16" height="13" fill="#F5F5F5"/>
<g opacity="0.5">
<path fill-rule="evenodd" clip-rule="evenodd" d="M2 0C0.895431 0 0 0.895431 0 2V10C0 11.1046 0.895431 12 2 12H14C15.1046 12 16 11.1046 16 10V2C16 0.895431 15.1046 0 14 0H2Z" fill="#FCD669"/>
<path fill-rule="evenodd" clip-rule="evenodd" d="M0.182906 10.8323C0.0655253 10.5765 0 10.2917 0 9.99147L0 2C0 0.89543 0.89543 0 2 0H12L0.182906 10.8323V10.8323Z" fill="#24B47E"/>
<path fill-rule="evenodd" clip-rule="evenodd" d="M15.8171 1.16766C15.9345 1.42346 16 1.7083 16 2.00853V10C16 11.1046 15.1046 12 14 12H4L15.8171 1.16766Z" fill="#E25950"/>
<path fill-rule="evenodd" clip-rule="evenodd" d="M15.8171 1.16766C15.9345 1.42346 16 1.7083 16 2.00853V2C16 0.89543 15.1046 0 14 0H12L10.9091 1H14C14.5252 1 14.9559 1.4049 14.9968 1.91959L15.8171 1.16766ZM0.182906 10.8409C0.0655252 10.5851 0 10.3002 0 10V10.0085C0 11.1131 0.89543 12.0085 2 12.0085H4L5.09091 11.0085H2C1.47478 11.0085 1.04414 10.6036 1.00319 10.0889L0.182906 10.8409Z" fill="#A68527" fill-opacity="0.1"/>
</g>
</svg>
