<svg width="16" height="12" viewBox="0 0 16 12" fill="none" xmlns="http://www.w3.org/2000/svg">
<rect width="16" height="12" fill="#F5F5F5"/>
<g opacity="0.5">
<path fill-rule="evenodd" clip-rule="evenodd" d="M2 0C0.895431 0 0 0.895431 0 2V10C0 11.1046 0.895431 12 2 12H14C15.1046 12 16 11.1046 16 10V2C16 0.895431 15.1046 0 14 0H2Z" fill="#43458B"/>
<path fill-rule="evenodd" clip-rule="evenodd" d="M1.34608 3.96429H0V2.03571H3V1.92937L0.748407 0.439935C1.01503 0.225756 1.33772 0.0785189 1.69098 0.0237284L3 0.889762V0H5V2.03571H5.04568L8 0.0814286V1.12114L6.61725 2.03571H8V3.96429H5V4.04678L7.93422 5.988H6.36356L5 5.08603V6H3V3.96429H2.91804L0 5.89457V4.85486L1.34608 3.96429Z" fill="white"/>
<path fill-rule="evenodd" clip-rule="evenodd" d="M0.747518 0.440651C0.519848 0.62375 0.333119 0.855685 0.203233 1.12055L1.58686 2.03571H3V1.93089L0.747518 0.440651ZM5 3.96429H6.41281L8 5.01429V6H7.91911L5 4.06907V3.96429ZM3 3.96429V4.95104L1.41422 6H0V5.89629L2.91993 3.96429H3ZM5 2.03571H5.07952L8 0.103714V0H6.58578L5 1.04896V2.03571ZM4.44444 3.42686H8V2.57314H4.44444V0H3.55556V2.57314H0V3.42686H3.55556V6H4.44444V3.42686Z" fill="#E25950"/>
<path fill-rule="evenodd" clip-rule="evenodd" d="M9.5 7C9.5 8.38071 10.6193 9.5 12 9.5C13.3807 9.5 14.5 8.38071 14.5 7C14.5 5.61929 13.3807 4.5 12 4.5C10.6193 4.5 9.5 5.61929 9.5 7ZM13.5 7C13.5 7.82843 12.8284 8.5 12 8.5C11.1716 8.5 10.5 7.82843 10.5 7C10.5 6.17157 11.1716 5.5 12 5.5C12.8284 5.5 13.5 6.17157 13.5 7Z" fill="white"/>
</g>
</svg>
