<svg width="16" height="12" viewBox="0 0 16 12" fill="none" xmlns="http://www.w3.org/2000/svg">
<rect width="16" height="12" fill="#F5F5F5"/>
<g opacity="0.5">
<path fill-rule="evenodd" clip-rule="evenodd" d="M2 0C0.895431 0 0 0.895431 0 2V10C0 11.1046 0.895431 12 2 12H14C15.1046 12 16 11.1046 16 10V2C16 0.895431 15.1046 0 14 0H2Z" fill="#E25950"/>
<path fill-rule="evenodd" clip-rule="evenodd" d="M7.50001 1C7.22387 1 7.00001 1.22386 7.00001 1.5C7.00001 1.77614 7.22387 2 7.50001 2C7.77615 2 8.00001 1.77614 8.00001 1.5C8.00001 1.22386 7.77615 1 7.50001 1ZM8.50001 3C8.22387 3 8.00001 3.22386 8.00001 3.5C8.00001 3.77614 8.22387 4 8.50001 4C8.77615 4 9.00001 3.77614 9.00001 3.5C9.00001 3.22386 8.77615 3 8.50001 3ZM8.00001 5.5C8.00001 5.22386 8.22387 5 8.50001 5C8.77615 5 9.00001 5.22386 9.00001 5.5C9.00001 5.77614 8.77615 6 8.50001 6C8.22387 6 8.00001 5.77614 8.00001 5.5ZM7.50001 7C7.22387 7 7.00001 7.22386 7.00001 7.5C7.00001 7.77614 7.22387 8 7.50001 8C7.77615 8 8.00001 7.77614 8.00001 7.5C8.00001 7.22386 7.77615 7 7.50001 7ZM1.71503 6.97143L3.47131 5.96316L5.28364 6.97143L4.79216 5.00244L5.97131 3.52485L4.20007 3.42654L3.47131 1.9L2.74256 3.42654L0.971313 3.52485L2.15047 5.00244L1.71503 6.97143Z" fill="#FCD669"/>
</g>
</svg>
