<svg width="16" height="12" viewBox="0 0 16 12" fill="none" xmlns="http://www.w3.org/2000/svg">
<rect width="16" height="12" fill="#F5F5F5"/>
<g opacity="0.5" clip-path="url(#clip0_0_1)">
<path d="M2 0H14C14.5304 0 15.0391 0.210714 15.4142 0.585786C15.7893 0.960859 16 1.46957 16 2V10C16 10.5304 15.7893 11.0391 15.4142 11.4142C15.0391 11.7893 14.5304 12 14 12H2C1.46957 12 0.960859 11.7893 0.585786 11.4142C0.210714 11.0391 0 10.5304 0 10V2C0 1.46957 0.210714 0.960859 0.585786 0.585786C0.960859 0.210714 1.46957 0 2 0Z" fill="#43458B"/>
<path d="M0 7.5H16V9H0V7.5Z" fill="#FCD669"/>
<path d="M4.92 3.51H4.18C4.15794 3.51101 4.13617 3.50469 4.11808 3.49203C4.09999 3.47936 4.0866 3.46107 4.08 3.44L3.86 2.74C3.86 2.71348 3.84947 2.68804 3.83071 2.66929C3.81196 2.65053 3.78652 2.64 3.76 2.64C3.73348 2.64 3.70804 2.65053 3.68929 2.66929C3.67054 2.68804 3.66 2.71348 3.66 2.74L3.44 3.44C3.4334 3.46107 3.42001 3.47936 3.40192 3.49203C3.38383 3.50469 3.36206 3.51101 3.34 3.51H2.6C2.57558 3.50456 2.55 3.50847 2.52832 3.52097C2.50664 3.53346 2.49044 3.55363 2.4829 3.57749C2.47537 3.60135 2.47705 3.62717 2.48762 3.64985C2.49819 3.67253 2.51688 3.69042 2.54 3.7L3.14 4.13C3.15561 4.14309 3.16685 4.16064 3.17221 4.1803C3.17758 4.19996 3.1768 4.22079 3.17 4.24L2.95 4.94C2.93409 4.96122 2.92726 4.98788 2.93101 5.01414C2.93476 5.0404 2.94878 5.06409 2.97 5.08C2.99122 5.09591 3.01789 5.10274 3.04414 5.09899C3.0704 5.09524 3.09409 5.08122 3.11 5.06L3.7 4.66C3.71731 4.64702 3.73836 4.64 3.76 4.64C3.78164 4.64 3.80269 4.64702 3.82 4.66L4.42 5.06C4.43771 5.07248 4.45899 5.07887 4.48065 5.07821C4.50231 5.07755 4.52316 5.06988 4.54008 5.05635C4.557 5.04281 4.56906 5.02415 4.57446 5.00317C4.57986 4.98218 4.57829 4.96002 4.57 4.94L4.35 4.24C4.3432 4.22079 4.34243 4.19996 4.34779 4.1803C4.35315 4.16064 4.36439 4.14309 4.38 4.13L4.98 3.7C5.00312 3.69042 5.02181 3.67253 5.03238 3.64985C5.04295 3.62717 5.04464 3.60135 5.0371 3.57749C5.02957 3.55363 5.01336 3.53346 4.99168 3.52097C4.97 3.50847 4.94443 3.50456 4.92 3.51ZM2.8 1.63H2.26C2.24478 1.6292 2.23011 1.62407 2.21771 1.61521C2.20531 1.60635 2.1957 1.59413 2.19 1.58L2 1.05C1.99308 1.03749 1.98294 1.02707 1.97063 1.01981C1.95832 1.01256 1.94429 1.00873 1.93 1.00873C1.91571 1.00873 1.90168 1.01256 1.88937 1.01981C1.87706 1.02707 1.86692 1.03749 1.86 1.05L1.69 1.58C1.68431 1.59413 1.6747 1.60635 1.66229 1.61521C1.64989 1.62407 1.63522 1.6292 1.62 1.63H1.07C1.054 1.63057 1.03854 1.63593 1.02561 1.64539C1.01269 1.65484 1.00291 1.66796 0.99752 1.68304C0.992134 1.69812 0.991398 1.71447 0.995406 1.72997C0.999414 1.74547 1.00798 1.75942 1.02 1.77L1.47 2.09C1.49 2.11 1.5 2.14 1.49 2.18L1.32 2.7C1.3179 2.71492 1.32005 2.73014 1.32621 2.74389C1.33238 2.75765 1.3423 2.76938 1.35484 2.77774C1.36738 2.7861 1.38203 2.79075 1.3971 2.79115C1.41216 2.79155 1.42704 2.78768 1.44 2.78L1.89 2.48C1.90327 2.47097 1.91895 2.46614 1.935 2.46614C1.95105 2.46614 1.96673 2.47097 1.98 2.48L2.42 2.78C2.43297 2.78768 2.44784 2.79155 2.46291 2.79115C2.47797 2.79075 2.49262 2.7861 2.50516 2.77774C2.5177 2.76938 2.52763 2.75765 2.53379 2.74389C2.53995 2.73014 2.54211 2.71492 2.54 2.7L2.37 2.18C2.36475 2.16376 2.36482 2.14626 2.37022 2.13007C2.37562 2.11388 2.38605 2.09984 2.4 2.09L2.84 1.77C2.85168 1.76004 2.86026 1.74694 2.86469 1.73224C2.86913 1.71755 2.86925 1.70189 2.86503 1.68713C2.86082 1.67237 2.85244 1.65914 2.84091 1.64901C2.82938 1.63888 2.81518 1.63228 2.8 1.63Z" fill="#F6F9FC"/>
</g>
<defs>
<clipPath id="clip0_0_1">
<rect width="16" height="12" fill="white"/>
</clipPath>
</defs>
</svg>
