<svg width="16" height="12" viewBox="0 0 16 12" fill="none" xmlns="http://www.w3.org/2000/svg">
<rect width="16" height="12" fill="#F5F5F5"/>
<g opacity="0.5">
<path fill-rule="evenodd" clip-rule="evenodd" d="M2 12H14C15.1046 12 16 11.1046 16 10V2C16 0.89543 15.1046 0 14 0H2C0.89543 0 0 0.89543 0 2V10C0 11.1046 0.89543 12 2 12Z" fill="#24B47E"/>
<path fill-rule="evenodd" clip-rule="evenodd" d="M14.8798 3.00001C14.8798 2.3041 14.6428 1.66354 14.2452 1.1546C14.2812 1.36173 14.3 1.57457 14.3 1.79167C14.3 3.88575 12.5539 5.58334 10.4 5.58334L10.3531 5.58307C10.8003 5.84796 11.3223 6.00001 11.8798 6.00001C13.5366 6.00001 14.8798 4.65686 14.8798 3.00001ZM6 6.00001C6 4.89544 6.89543 4.00001 8 4.00001C9.10457 4.00001 10 4.89544 10 6.00001C10 7.10458 9.10457 8.00001 8 8.00001C6.89543 8.00001 6 7.10458 6 6.00001Z" fill="#FCD669"/>
<path fill-rule="evenodd" clip-rule="evenodd" d="M14 12C14.5095 12 14.9745 11.8095 15.3277 11.4958L0.672316 0.504242C0.259876 0.870604 6.67572e-06 1.40496 6.67572e-06 2.00001V10C6.67572e-06 11.1046 0.895437 12 2.00001 12H14Z" fill="#217AB7"/>
<path fill-rule="evenodd" clip-rule="evenodd" d="M4 6.5C4 6.22386 4.22386 6 4.5 6C4.77614 6 5 6.22386 5 6.5C5 6.77614 4.77614 7 4.5 7C4.22386 7 4 6.77614 4 6.5ZM2 7.5C2 7.77614 1.77614 8 1.5 8C1.22386 8 1 7.77614 1 7.5C1 7.22386 1.22386 7 1.5 7C1.77614 7 2 7.22386 2 7.5ZM3 10.5C3 10.7761 2.77614 11 2.5 11C2.22386 11 2 10.7761 2 10.5C2 10.2239 2.22386 10 2.5 10C2.77614 10 3 10.2239 3 10.5ZM3.5 9C3.77614 9 4 8.77614 4 8.5C4 8.22386 3.77614 8 3.5 8C3.22386 8 3 8.22386 3 8.5C3 8.77614 3.22386 9 3.5 9Z" fill="white"/>
</g>
</svg>
