<svg width="16" height="12" viewBox="0 0 16 12" fill="none" xmlns="http://www.w3.org/2000/svg">
<rect width="16" height="12" fill="#F5F5F5"/>
<g opacity="0.5">
<path fill-rule="evenodd" clip-rule="evenodd" d="M2 0C0.895431 0 0 0.895431 0 2V10C0 11.1046 0.895431 12 2 12H14C15.1046 12 16 11.1046 16 10V2C16 0.895431 15.1046 0 14 0H2Z" fill="#F6F9FC"/>
<path fill-rule="evenodd" clip-rule="evenodd" d="M2 0C0.895431 0 0 0.895431 0 2V4L0 6H16V4V2C16 0.895431 15.1046 0 14 0H2Z" fill="#24B47E"/>
<path fill-rule="evenodd" clip-rule="evenodd" d="M0 8V10C0 11.1046 0.895431 12 2 12H14C15.1046 12 16 11.1046 16 10V8V6H0V8Z" fill="#45B2E8"/>
<path fill-rule="evenodd" clip-rule="evenodd" d="M0.700579 11.5195C0.27208 11.1511 0 10.6033 0 9.99147L0 2.00853C0 1.39471 0.274698 0.843853 0.707309 0.474976C0.731287 0.485934 0.75471 0.498937 0.77735 0.514031L16 5.9958L0.77735 11.4776C0.752924 11.4938 0.727227 11.5079 0.700579 11.5195Z" fill="#E25950"/>
<path fill-rule="evenodd" clip-rule="evenodd" d="M1 6C1 7.65685 2.34315 9 4 9C5.65685 9 7 7.65685 7 6C7 4.34315 5.65685 3 4 3C2.34315 3 1 4.34315 1 6ZM6 6C6 7.10457 5.10457 8 4 8C2.89543 8 2 7.10457 2 6C2 4.89543 2.89543 4 4 4C5.10457 4 6 4.89543 6 6Z" fill="#FCD669"/>
<rect x="3.5" y="4" width="1" height="4" fill="#FCD669"/>
</g>
</svg>
