<svg width="16" height="12" viewBox="0 0 16 12" fill="none" xmlns="http://www.w3.org/2000/svg">
<rect width="16" height="12" fill="#F5F5F5"/>
<g opacity="0.5">
<path d="M0 3H16V9H0V3Z" fill="#FCD669"/>
<path fill-rule="evenodd" clip-rule="evenodd" d="M1 3H0V9H1V3ZM15 3V9H16V3H15Z" fill="#A68527" fill-opacity="0.1"/>
<path fill-rule="evenodd" clip-rule="evenodd" d="M0 2V3H16V2C16 0.89543 15.1046 0 14 0H2C0.89543 0 0 0.89543 0 2ZM2 12H14C15.1046 12 16 11.1046 16 10V9H0V10C0 11.1046 0.89543 12 2 12Z" fill="#E25950"/>
<path d="M4 4H6V6H4V4Z" fill="white"/>
<path d="M4 8.5C2.89543 8.5 2 7.60457 2 6.5V6H4V8.5Z" fill="#F79A59"/>
<path fill-rule="evenodd" clip-rule="evenodd" d="M4 4H2V6H4V8.5C5.10457 8.5 6 7.60457 6 6.5V6H4V4Z" fill="#E25950"/>
</g>
</svg>
