<svg width="16" height="12" viewBox="0 0 16 12" fill="none" xmlns="http://www.w3.org/2000/svg">
<rect width="16" height="12" fill="#F5F5F5"/>
<g opacity="0.5" clip-path="url(#clip0_0_1)">
<path d="M2 0H14C14.5304 0 15.0391 0.210714 15.4142 0.585786C15.7893 0.960859 16 1.46957 16 2V10C16 10.5304 15.7893 11.0391 15.4142 11.4142C15.0391 11.7893 14.5304 12 14 12H2C1.46957 12 0.960859 11.7893 0.585786 11.4142C0.210714 11.0391 0 10.5304 0 10V2C0 1.46957 0.210714 0.960859 0.585786 0.585786C0.960859 0.210714 1.46957 0 2 0V0Z" fill="#45B2E8"/>
<path d="M8.00001 3.08499C8.44184 3.08499 8.80001 2.72681 8.80001 2.28499C8.80001 1.84316 8.44184 1.48499 8.00001 1.48499C7.55818 1.48499 7.20001 1.84316 7.20001 2.28499C7.20001 2.72681 7.55818 3.08499 8.00001 3.08499Z" fill="#F6F9FC"/>
<path d="M8.00001 10.515C8.44184 10.515 8.80001 10.1568 8.80001 9.71498C8.80001 9.27315 8.44184 8.91498 8.00001 8.91498C7.55818 8.91498 7.20001 9.27315 7.20001 9.71498C7.20001 10.1568 7.55818 10.515 8.00001 10.515Z" fill="#F6F9FC"/>
<path d="M4.50001 6.80001C4.94184 6.80001 5.30001 6.44184 5.30001 6.00001C5.30001 5.55818 4.94184 5.20001 4.50001 5.20001C4.05818 5.20001 3.70001 5.55818 3.70001 6.00001C3.70001 6.44184 4.05818 6.80001 4.50001 6.80001Z" fill="#F6F9FC"/>
<path d="M11.5 6.80001C11.9418 6.80001 12.3 6.44184 12.3 6.00001C12.3 5.55818 11.9418 5.20001 11.5 5.20001C11.0582 5.20001 10.7 5.55818 10.7 6.00001C10.7 6.44184 11.0582 6.80001 11.5 6.80001Z" fill="#F6F9FC"/>
</g>
<defs>
<clipPath id="clip0_0_1">
<rect width="16" height="12" fill="white"/>
</clipPath>
</defs>
</svg>
