<svg width="16" height="12" viewBox="0 0 16 12" fill="none" xmlns="http://www.w3.org/2000/svg">
<rect width="16" height="12" fill="#F5F5F5"/>
<g opacity="0.5">
<path fill-rule="evenodd" clip-rule="evenodd" d="M14 0H2C0.89543 0 0 0.89543 0 2V10C0 11.1046 0.89543 12 2 12H14C15.1046 12 16 11.1046 16 10V2C16 0.89543 15.1046 0 14 0Z" fill="#FCD669"/>
<path fill-rule="evenodd" clip-rule="evenodd" d="M14 12H2C0.89543 12 0 11.1046 0 10V2C0 0.895431 0.89543 0 2 0H14C15.1046 0 16 0.895431 16 2V10C16 11.1046 15.1046 12 14 12ZM2 1C1.44772 1 1 1.44771 1 2V10C1 10.5523 1.44772 11 2 11H14C14.5523 11 15 10.5523 15 10V2C15 1.44771 14.5523 1 14 1H2Z" fill="#A68527" fill-opacity="0.1"/>
<path fill-rule="evenodd" clip-rule="evenodd" d="M1.99999 -1.04904e-05C1.49048 -1.04904e-05 1.02546 0.19052 0.672302 0.504221L15.3277 11.4958C15.7401 11.1294 16 10.595 16 9.99999V1.99999C16 0.89542 15.1046 -1.04904e-05 14 -1.04904e-05H1.99999Z" fill="#24B47E"/>
<path d="M10.7553 5L9.00538 5.00395C8.89987 5.00411 8.80635 4.93609 8.774 4.83567L8.23196 3.17072C8.20042 3.06919 8.10649 3 8.00017 3C7.89386 3 7.79992 3.06919 7.76839 3.17072L7.22797 4.83486C7.19561 4.93528 7.10209 5.0033 6.99659 5.00314H5.24588C5.13957 5.00175 5.04473 5.06973 5.01189 5.17085C4.97904 5.27198 5.01584 5.3827 5.10268 5.44405L6.51846 6.47312C6.60409 6.5351 6.63976 6.64537 6.60664 6.74576L6.06622 8.41071C6.03173 8.51152 6.06702 8.62304 6.15323 8.68565C6.23944 8.74827 6.35641 8.74733 6.4416 8.68335L7.85738 7.73334C7.94267 7.67101 8.05848 7.67101 8.14377 7.73334L9.56036 8.68335C9.64556 8.74733 9.76252 8.74827 9.84873 8.68565C9.93494 8.62304 9.97024 8.51152 9.93574 8.41071L9.3937 6.74576C9.36059 6.64537 9.39626 6.5351 9.48189 6.47312L10.8985 5.44405C10.9846 5.38247 11.0208 5.2722 10.9881 5.17155C10.9553 5.0709 10.8611 4.99913 10.7553 5Z" fill="#E25950"/>
</g>
</svg>
