<svg width="16" height="12" viewBox="0 0 16 12" fill="none" xmlns="http://www.w3.org/2000/svg">
<rect width="16" height="12" fill="#F5F5F5"/>
<g opacity="0.5">
<path fill-rule="evenodd" clip-rule="evenodd" d="M0 3V9H16V3H0Z" fill="#F6F9FC"/>
<path fill-rule="evenodd" clip-rule="evenodd" d="M1 3H0V9H1V3ZM15 3V9H16V3H15Z" fill="#EAEEF3"/>
<path fill-rule="evenodd" clip-rule="evenodd" d="M0 2C0 0.895431 0.895431 0 2 0H14C15.1046 0 16 0.895431 16 2V3H0V2ZM0 10V9H16V10C16 11.1046 15.1046 12 14 12H2C0.895431 12 0 11.1046 0 10Z" fill="#159570"/>
<path fill-rule="evenodd" clip-rule="evenodd" d="M0 4V8H16V4H0Z" fill="#E25950"/>
<path d="M9.74715 5.30216L8.60782 5.30473C8.53913 5.30483 8.47824 5.26055 8.45718 5.19517L8.10426 4.11115C8.08373 4.04505 8.02257 4 7.95335 4C7.88414 4 7.82298 4.04505 7.80245 4.11115L7.45059 5.19464C7.42952 5.26002 7.36863 5.30431 7.29994 5.3042H6.16009C6.09087 5.3033 6.02912 5.34756 6.00774 5.4134C5.98636 5.47924 6.01032 5.55133 6.06686 5.59127L6.98864 6.26128C7.04439 6.30163 7.06761 6.37343 7.04605 6.43879L6.6942 7.52281C6.67174 7.58845 6.69472 7.66105 6.75085 7.70182C6.80698 7.74259 6.88313 7.74198 6.9386 7.70032L7.86039 7.08178C7.91592 7.04121 7.99132 7.04121 8.04685 7.08178L8.96916 7.70032C9.02463 7.74198 9.10079 7.74259 9.15692 7.70182C9.21305 7.66105 9.23602 7.58845 9.21357 7.52281L8.86065 6.43879C8.83909 6.37343 8.86232 6.30163 8.91807 6.26128L9.84038 5.59127C9.89643 5.55118 9.92004 5.47939 9.89872 5.41385C9.8774 5.34832 9.81606 5.30159 9.74715 5.30216Z" fill="#FCD669"/>
</g>
</svg>
