<svg width="16" height="12" viewBox="0 0 16 12" fill="none" xmlns="http://www.w3.org/2000/svg">
<rect width="16" height="12" fill="#F5F5F5"/>
<g opacity="0.5">
<path d="M14 12H2C0.89543 12 0 11.1046 0 10V6L0 2C0 0.89543 0.895431 0 2 0H8H14C15.1046 0 16 0.89543 16 2V10C16 11.1046 15.1046 12 14 12Z" fill="#43458B"/>
<path fill-rule="evenodd" clip-rule="evenodd" d="M15.723 1H5V2H16C16 1.634 15.894 1.295 15.723 1ZM5 3H16V4H5V3ZM16 5H0V6H16V5ZM0 7H16V8H0V7ZM16 9H0V10H16V9ZM2 12H14C14.7403 12 15.3866 11.5978 15.7324 11H0.267564C0.613374 11.5978 1.25972 12 2 12Z" fill="#F6F9FC"/>
<path fill-rule="evenodd" clip-rule="evenodd" d="M2 2V0H3V2H5V3H3V5H2V3H0V2H2Z" fill="white"/>
<path fill-rule="evenodd" clip-rule="evenodd" d="M2 12H14C15.1046 12 16 11.1046 16 10V2C16 0.89543 15.1046 0 14 0H2C0.89543 0 0 0.89543 0 2V10C0 11.1046 0.89543 12 2 12ZM14 1C14.5523 1 15 1.44772 15 2V10C15 10.5523 14.5523 11 14 11H2C1.44772 11 1 10.5523 1 10V2C1 1.44772 1.44772 1 2 1H14Z" fill="#43458B" fill-opacity="0.1"/>
</g>
</svg>
