<svg width="16" height="12" viewBox="0 0 16 12" fill="none" xmlns="http://www.w3.org/2000/svg">
<rect width="16" height="12" fill="#F5F5F5"/>
<g opacity="0.5" clip-path="url(#clip0_0_1)">
<path d="M2 0H14C14.5304 0 15.0391 0.210714 15.4142 0.585786C15.7893 0.960859 16 1.46957 16 2V10C16 10.5304 15.7893 11.0391 15.4142 11.4142C15.0391 11.7893 14.5304 12 14 12H2C1.46957 12 0.960859 11.7893 0.585786 11.4142C0.210714 11.0391 0 10.5304 0 10V2C0 1.46957 0.210714 0.960859 0.585786 0.585786C0.960859 0.210714 1.46957 0 2 0V0Z" fill="#E25950"/>
<path d="M2.5 0.5H14C14.3978 0.5 14.7794 0.658035 15.0607 0.93934C15.342 1.22064 15.5 1.60218 15.5 2V10C15.5 10.3978 15.342 10.7794 15.0607 11.0607C14.7794 11.342 14.3978 11.5 14 11.5H2C1.60218 11.5 1.22064 11.342 0.93934 11.0607C0.658035 10.7794 0.5 10.3978 0.5 10V2C0.5 1.60218 0.658035 1.22064 0.93934 0.93934C1.22064 0.658035 1.60218 0.5 2 0.5H2.5Z" fill="#43458B"/>
<path d="M7.99996 1.5C3.99993 4.50002 3.99993 7.50005 7.99996 10.5001C12 7.50005 12 4.50002 7.99996 1.5Z" fill="#E25950"/>
<path d="M6.61121 8.5C6.98121 8.91625 7.44371 9.33376 7.99997 9.75001C8.50329 9.38055 8.96852 8.96181 9.38873 8.5H6.61246H6.61121Z" fill="#FCD669"/>
<path d="M5.77747 7.25C5.96247 7.66625 6.23997 8.08376 6.61122 8.50001H9.38749C9.75875 8.08376 10.0363 7.66625 10.2213 7.25H5.77747Z" fill="#217AB7"/>
<path d="M6.12497 4.12494C5.71622 4.73744 5.50872 5.34995 5.49997 5.9612V6.0387C5.50497 6.44246 5.59872 6.84621 5.77747 7.24996H10.2225C10.4013 6.84621 10.495 6.44246 10.5 6.0387V5.96245C10.4913 5.34995 10.2838 4.73744 9.875 4.12619L6.12497 4.12494Z" fill="#45B2E8"/>
<path d="M8.00002 2.24994C7.16626 2.87494 6.54125 3.49995 6.125 4.12495H9.87503C9.45878 3.49995 8.83377 2.87494 8.00002 2.24994Z" fill="#24B47E"/>
<path d="M7.49997 4.12494H8.49998V7.24996H7.49997V4.12494Z" fill="#E25950"/>
</g>
<defs>
<clipPath id="clip0_0_1">
<rect width="16" height="12" fill="white"/>
</clipPath>
</defs>
</svg>
