<svg width="16" height="12" viewBox="0 0 16 12" fill="none" xmlns="http://www.w3.org/2000/svg">
<rect width="16" height="12" fill="#F5F5F5"/>
<g opacity="0.5">
<path fill-rule="evenodd" clip-rule="evenodd" d="M2 0C0.89543 0 0 0.895431 0 2V10C0 11.1046 0.895431 12 2 12H6V0H2Z" fill="#E25950"/>
<path d="M5.29606 5.16667L3.83781 5.16996C3.74989 5.17009 3.67196 5.11341 3.645 5.02973L3.1933 3.64226C3.16702 3.55766 3.08874 3.5 3.00014 3.5C2.91155 3.5 2.83327 3.55766 2.80699 3.64226L2.35664 5.02905C2.32968 5.11273 2.25174 5.16941 2.16382 5.16928H0.7049C0.616305 5.16813 0.537274 5.22477 0.509905 5.30904C0.482537 5.39331 0.513204 5.48559 0.58557 5.53671L1.76538 6.39427C1.83674 6.44591 1.86647 6.53781 1.83887 6.62146L1.38852 8.00893C1.35978 8.09293 1.38918 8.18587 1.46103 8.23805C1.53287 8.29022 1.63034 8.28944 1.70134 8.23612L2.88115 7.44445C2.95223 7.39251 3.04874 7.39251 3.11981 7.44445L4.3003 8.23612C4.3713 8.28944 4.46877 8.29022 4.54061 8.23805C4.61245 8.18587 4.64186 8.09293 4.61312 8.00893L4.16142 6.62146C4.13382 6.53781 4.16355 6.44591 4.2349 6.39427L5.41539 5.53671C5.48714 5.48539 5.51735 5.3935 5.49006 5.30962C5.46277 5.22575 5.38427 5.16594 5.29606 5.16667Z" fill="#333333"/>
<path fill-rule="evenodd" clip-rule="evenodd" d="M14.1409 0C15.1662 0 16 1.0192 16 2.27644V6H6V0H14.1409Z" fill="#FCD669"/>
<path d="M15 6V2C15 1.44772 14.5523 1 14 1H6V0L14 0C15.1046 0 16 0.89543 16 2V6H15Z" fill="#A68527" fill-opacity="0.1"/>
<path fill-rule="evenodd" clip-rule="evenodd" d="M16 10.2571C16 11.2183 15.1677 12 14.1409 12H6V6H16V10.2571Z" fill="#24B47E"/>
</g>
</svg>
