<svg width="18" height="12" viewBox="0 0 18 12" fill="none" xmlns="http://www.w3.org/2000/svg">
<rect width="18" height="12" fill="#F5F5F5"/>
<g opacity="0.5">
<path fill-rule="evenodd" clip-rule="evenodd" d="M3 0C1.89543 0 1 0.895431 1 2V10C1 11.1046 1.89543 12 3 12H15C16.1046 12 17 11.1046 17 10V2C17 0.895431 16.1046 0 15 0H3Z" fill="#24B47E"/>
<path d="M0 9.99147V2.00853C0.000122571 1.97502 0.00012257 1.97502 0.000977933 1.93239C0.0388279 0.717264 1.15216 -0.0128914 2.26962 0.417262L17.9878 6L15.3347 6.94233L2.29391 11.5738C1.1519 12.013 0.0400467 11.2931 0.000796003 10.0613C0.000133011 10.0264 0.00013301 10.0264 0 9.99147Z" fill="white"/>
<path fill-rule="evenodd" clip-rule="evenodd" d="M1 9.99147V2.00853C1 1.99349 1.00016 1.97848 1.00049 1.96352C1.01667 1.44415 1.42884 1.16494 1.93493 1.35959L15 6L1.93493 10.6404C1.42853 10.8352 1.01736 10.5659 1.00054 10.0384C1.00018 10.0228 1 10.0072 1 9.99147Z" fill="#FCD669"/>
<path fill-rule="evenodd" clip-rule="evenodd" d="M1.66433 11.4876C1.2568 11.1199 1 10.5858 1 9.99148V2.00854C1 1.41512 1.25674 0.880545 1.66471 0.51236C1.70752 0.535383 1.75149 0.563622 1.79632 0.597247L9 6.00001L1.79632 11.4028C1.75149 11.4364 1.70738 11.4646 1.66433 11.4876V11.4876Z" fill="#333333"/>
<path fill-rule="evenodd" clip-rule="evenodd" d="M1.16034 10.7813C1.05716 10.5389 1 10.2719 1 9.99148V2.00854C1 1.67117 1.08299 1.35281 1.22956 1.07324L7.5 6.00001C4.26664 8.58409 2.15342 10.1779 1.16034 10.7813V10.7813Z" fill="#E25950"/>
</g>
</svg>
