<svg width="16" height="12" viewBox="0 0 16 12" fill="none" xmlns="http://www.w3.org/2000/svg">
<rect width="16" height="12" fill="#F5F5F5"/>
<g opacity="0.5">
<path fill-rule="evenodd" clip-rule="evenodd" d="M2 0H14C15.1046 0 16 0.89543 16 2V10C16 11.1046 15.1046 12 14 12H2C0.89543 12 0 11.1046 0 10V2C0 0.89543 0.89543 0 2 0Z" fill="#E25950"/>
<path fill-rule="evenodd" clip-rule="evenodd" d="M7.51245 5.98937C7.52035 5.99494 7.52829 6.00054 7.53627 6.00617C7.24349 5.31739 7.58877 4.81459 7.98744 4.5761C8.38612 4.33761 8.62461 4.04572 8.62461 3.62213C8.62461 3.35486 8.5612 3.20344 8.48779 3.02817C8.44486 2.92564 8.3985 2.81496 8.35942 2.66816C8.29282 2.42007 8.46437 2.27548 8.58996 2.16962C8.66575 2.10574 8.7248 2.05597 8.7047 2.00607C7.98745 1.92598 6.39364 2.64146 6.44703 3.96652C6.49976 5.27502 6.88832 5.54911 7.51245 5.98937ZM7.595 6.30784L7.57249 6.32529C6.96911 6.79304 6.59242 7.08506 5.32576 6.75279C4.04341 6.41552 3.82539 4.68289 4.11104 4.01991C4.16418 4.01557 4.19447 4.08639 4.23336 4.17728C4.29802 4.32846 4.38645 4.53517 4.6432 4.54406C4.78737 4.5494 4.90216 4.53872 5.00806 4.52805L5.02475 4.52638C5.21417 4.50744 5.37685 4.49117 5.63277 4.56898C6.03857 4.69268 6.24769 5.00681 6.35893 5.4571C6.47017 5.90828 6.85104 6.38526 7.595 6.30784ZM7.83616 5.9154L7.84445 5.88703C8.05833 5.15436 8.19177 4.69725 9.41128 4.22192C10.6465 3.73959 11.8416 5.01393 12 5.71784C11.9592 5.75263 11.8932 5.7135 11.8077 5.66272C11.7926 5.65376 11.7769 5.64443 11.7606 5.63508C11.6254 5.55677 11.4509 5.47935 11.2614 5.6066C11.1353 5.69162 11.0459 5.77155 10.963 5.84555C10.8213 5.97216 10.699 6.0814 10.4462 6.16902C10.0449 6.30695 9.6916 6.17525 9.33653 5.87624C8.98146 5.57724 8.39324 5.41527 7.83616 5.9154ZM7.92642 6.41885L7.91625 6.38882C7.74717 7.11765 7.1723 7.32233 6.70955 7.2805C6.2468 7.23957 5.88283 7.33479 5.63366 7.6774C5.47621 7.89446 5.4385 8.05432 5.39481 8.23959C5.36935 8.34751 5.34187 8.46406 5.28749 8.60556C5.19543 8.84458 4.97206 8.86104 4.80838 8.8731C4.7094 8.88039 4.63226 8.88607 4.61918 8.93839C5.15223 9.42427 6.86172 9.78201 7.59767 8.67942C8.32359 7.59098 8.17071 7.13978 7.92642 6.41885ZM8.0177 6.11207L8.04562 6.1112C8.80877 6.08753 9.28521 6.07275 10.1152 7.08562C10.9544 8.11167 10.1125 9.64229 9.49226 10.0107C9.44601 9.9829 9.46313 9.90749 9.48509 9.81074C9.52143 9.6506 9.57105 9.43198 9.36857 9.27388C9.24929 9.18048 9.14594 9.12016 9.0502 9.06427C8.88596 8.9684 8.74414 8.88562 8.58279 8.67142C8.32739 8.33325 8.3434 7.95683 8.51783 7.52611C8.69224 7.09629 8.66555 6.48671 8.0177 6.11207Z" fill="white"/>
</g>
</svg>
