<svg width="16" height="12" viewBox="0 0 16 12" fill="none" xmlns="http://www.w3.org/2000/svg">
<g opacity="0.25" clip-path="url(#clip0_93_24501)">
<path fill-rule="evenodd" clip-rule="evenodd" d="M2 0C0.89543 0 0 0.895431 0 2V10C0 11.1046 0.895431 12 2 12H5V0H2Z" fill="#F5F5F5"/>
<path fill-rule="evenodd" clip-rule="evenodd" d="M11 0V12H14C15.1046 12 16 11.1046 16 10V2C16 0.895431 15.1046 0 14 0H11Z" fill="#FFE15A"/>
<path fill-rule="evenodd" clip-rule="evenodd" d="M5 0V12H11V0H5Z" fill="#4173CD"/>
<path d="M7.24182 6.05958C7.23893 6.13433 7.12684 6.16594 7.12684 6.16594C7.11535 6.03947 7.24472 5.80663 7.27055 5.78652C7.29644 5.76639 7.39992 5.67153 7.29644 5.69164C7.19297 5.71177 7.09232 5.94459 7.06933 5.98482C7.04633 6.02506 6.99171 6.0222 6.99171 6.0222C6.99171 6.0222 6.99171 5.83535 6.99171 5.79511C6.99171 5.75487 7.16994 5.66864 7.16994 5.66864C7.16994 5.66864 7.19869 5.49617 7.17283 5.47893C7.14694 5.46169 7.09235 5.51058 7.01471 5.5163C6.9371 5.52206 6.84224 5.52495 6.76176 5.59968C6.68129 5.67443 6.67839 5.72615 6.67839 5.85262C6.67839 5.9791 6.67839 5.85262 6.67839 6.15732C6.67839 6.46202 6.3938 6.67476 6.28746 6.7811C6.25851 6.81005 6.24742 6.84547 6.24645 6.88262C6.22507 6.90264 6.17791 6.93182 6.13853 6.92337C6.07798 6.91035 6.06897 6.8039 6.06897 6.7416C6.06897 6.72254 6.05354 6.70712 6.03448 6.70712C6.01543 6.70712 6 6.72254 6 6.7416C6 6.95235 6.08972 6.98987 6.14315 6.99352C6.1461 6.99372 6.14902 6.99381 6.15202 6.99381C6.18744 6.99381 6.22553 6.97983 6.25712 6.96032C6.27768 7.03473 6.32098 7.10389 6.3334 7.13182C6.3564 7.18358 6.22992 7.26695 6.22992 7.26695L6.3334 7.58602H6.47428C6.47428 7.50699 6.378 7.52279 6.3636 7.50265C6.34925 7.48252 6.33201 7.29998 6.33201 7.29998L6.53187 7.13276C6.5473 7.11986 6.5562 7.10077 6.5562 7.08067V6.99168C6.5562 6.99168 6.70281 7.01539 6.73947 7.04772C6.77611 7.08007 6.74378 7.17708 6.74378 7.18998C6.74378 7.20292 6.92918 7.36676 6.92918 7.36676H7.0564C7.0564 7.30857 6.99602 7.31073 6.96585 7.29993C6.93565 7.28915 6.84513 7.17705 6.84513 7.17705C6.84513 7.17705 6.89402 7.02543 6.89402 6.98805C6.89402 6.95068 6.68418 6.79834 6.68418 6.79834C6.68418 6.79834 6.71293 6.74945 6.92564 6.61722C7.13835 6.48499 7.12111 6.33552 7.12111 6.33552L7.30509 6.12857V5.9791C7.30506 5.97907 7.24469 5.98483 7.24182 6.05958Z" fill="#C17400"/>
<path d="M8.7579 6.05962C8.7608 6.13437 8.87289 6.16599 8.87289 6.16599C8.88438 6.03951 8.75501 5.80667 8.72918 5.78657C8.70329 5.76643 8.59981 5.67158 8.70329 5.69168C8.80676 5.71182 8.9074 5.94463 8.9304 5.98487C8.9534 6.02511 9.00802 6.02225 9.00802 6.02225C9.00802 6.02225 9.00802 5.8354 9.00802 5.79516C9.00802 5.75492 8.82979 5.66869 8.82979 5.66869C8.82979 5.66869 8.80104 5.49622 8.8269 5.47898C8.85279 5.46173 8.90738 5.51062 8.98502 5.51635C9.06263 5.52211 9.15749 5.525 9.23797 5.59972C9.31844 5.67447 9.32134 5.72619 9.32134 5.85267C9.32134 5.97914 9.32134 5.85267 9.32134 6.15737C9.32134 6.46207 9.60593 6.67481 9.71227 6.78115C9.74122 6.8101 9.75231 6.84552 9.75325 6.88266C9.77463 6.90268 9.82179 6.93186 9.86118 6.92341C9.92172 6.9104 9.93074 6.80394 9.93074 6.74164C9.93074 6.72259 9.94616 6.70716 9.96522 6.70716C9.98427 6.70716 9.9997 6.72259 9.9997 6.74164C9.9997 6.9524 9.90998 6.98991 9.85655 6.99357C9.8536 6.99377 9.85068 6.99385 9.84768 6.99385C9.81226 6.99385 9.77418 6.97987 9.74259 6.96036C9.72203 7.03477 9.67872 7.10394 9.6663 7.13187C9.64331 7.18362 9.76978 7.26699 9.76978 7.26699L9.6663 7.58607H9.52542C9.52542 7.50704 9.62173 7.52283 9.6361 7.5027C9.65048 7.48256 9.66769 7.30003 9.66769 7.30003L9.46783 7.13281C9.4524 7.1199 9.4435 7.10082 9.4435 7.08071V6.99173C9.4435 6.99173 9.29689 7.01543 9.26023 7.04776C9.22359 7.08012 9.25592 7.17713 9.25592 7.19003C9.25592 7.20293 9.07052 7.36681 9.07052 7.36681H8.9433C8.9433 7.30862 9.00368 7.31078 9.03385 7.29997C9.06405 7.2892 9.15457 7.1771 9.15457 7.1771C9.15457 7.1771 9.10568 7.02547 9.10568 6.9881C9.10568 6.95072 9.31552 6.79839 9.31552 6.79839C9.31552 6.79839 9.28677 6.7495 9.07406 6.61727C8.86135 6.48504 8.87859 6.33557 8.87859 6.33557L8.69461 6.12861V5.97914C8.69467 5.97911 8.75501 5.98487 8.7579 6.05962Z" fill="#C17400"/>
<path d="M7.72258 5.8627L7.51562 6.06965H7.92959L7.72258 5.8627Z" fill="#C8C8C8"/>
<path d="M8.27531 5.8627L8.06836 6.06965H8.48226L8.27531 5.8627Z" fill="#C8C8C8"/>
<path d="M7.72258 6.20766L7.51562 6.41461H7.92959L7.72258 6.20766Z" fill="#C8C8C8"/>
<path d="M8.27531 6.20766L8.06836 6.41461H8.48226L8.27531 6.20766Z" fill="#C8C8C8"/>
<path d="M7.72258 6.55261L7.51562 6.75956H7.92959L7.72258 6.55261Z" fill="#C8C8C8"/>
<path d="M8.27531 6.55261L8.06836 6.75956H8.48226L8.27531 6.55261Z" fill="#C8C8C8"/>
<path d="M7.999 6.89754L7.79199 7.10449H8.20595L7.999 6.89754Z" fill="#C8C8C8"/>
<path d="M8.03268 4.75902H7.96387V5.17295H8.03268V4.75902Z" fill="#FFE15A"/>
<path d="M7.62057 5.18111C7.6194 5.17666 7.594 5.07075 7.66534 4.99356C7.72818 4.9255 7.84249 4.90474 8.00464 4.9318L7.99332 4.99985C7.85726 4.97708 7.76142 4.99115 7.71602 5.04035C7.67042 5.08972 7.68732 5.1637 7.68749 5.16444L7.62057 5.18111Z" fill="#FFE15A"/>
<path d="M7.43158 5.41058C7.34538 5.36745 7.30301 5.24228 7.33905 5.13718C7.35417 5.09312 7.42211 4.95314 7.66077 5.00096L7.64721 5.06862C7.52114 5.04321 7.4328 5.07661 7.40433 5.15959C7.37975 5.23122 7.40745 5.32142 7.46244 5.3489L7.43158 5.41058Z" fill="#FFE15A"/>
<path d="M8.37718 5.18112L8.31028 5.16441L8.34375 5.17278L8.31023 5.16456C8.31043 5.16382 8.32753 5.08944 8.28136 5.03992C8.23576 4.99101 8.14003 4.97711 8.00448 4.99983L7.99316 4.93177C8.15554 4.90466 8.26965 4.9255 8.33246 4.99353C8.40375 5.07075 8.37829 5.17666 8.37718 5.18112Z" fill="#FFE15A"/>
<path d="M8.56659 5.41059L8.53573 5.34889C8.59072 5.32141 8.61842 5.23118 8.59384 5.15957C8.56537 5.07663 8.47686 5.04331 8.35096 5.0686L8.3374 5.00094C8.57623 4.95316 8.644 5.09319 8.65912 5.13717C8.69519 5.24229 8.65279 5.36746 8.56659 5.41059Z" fill="#FFE15A"/>
<path d="M8.27574 5.17275C8.27574 5.17275 8.13775 5.10376 7.99979 5.10376C7.86183 5.10376 7.72385 5.17275 7.72385 5.17275C7.58586 5.10376 7.37891 5.17275 7.37891 5.31074C7.37891 5.44873 7.58586 5.65568 7.58586 5.65568H7.99982H8.41375C8.41375 5.65568 8.6207 5.44873 8.6207 5.31074C8.6207 5.17275 8.41372 5.10376 8.27574 5.17275Z" fill="#FF4B55"/>
<path d="M8.06865 4.79335H7.93066V4.86234H8.06865V4.79335Z" fill="#FFE15A"/>
<path d="M8.68901 4.41394H7.30908V4.68989H8.68901V4.41394Z" fill="#C8C8C8"/>
<path d="M7.47996 4.78751L7.41455 4.5912L7.00063 4.72912L7.06604 4.92543L7.47996 4.78751Z" fill="#C8C8C8"/>
<path d="M8.99842 4.7297L8.58447 4.59174L8.51904 4.78804L8.93299 4.92601L8.99842 4.7297Z" fill="#C8C8C8"/>
<path d="M7.99932 7.34595C7.59991 7.34595 7.2749 7.14479 7.2749 6.89754V5.72471C7.2749 5.66762 7.32132 5.62123 7.37838 5.62123H8.6202C8.67729 5.62123 8.72368 5.66765 8.72368 5.72471V6.89754C8.72371 7.14479 8.39873 7.34595 7.99932 7.34595ZM7.37838 5.6902C7.35935 5.6902 7.3439 5.70568 7.3439 5.72468V6.89751C7.3439 7.1067 7.6379 7.27693 7.99932 7.27693C8.36073 7.27693 8.65474 7.10667 8.65474 6.89751V5.72468C8.65474 5.70568 8.63929 5.6902 8.62026 5.6902H7.37838Z" fill="#464655"/>
</g>
<defs>
<clipPath id="clip0_93_24501">
<rect width="16" height="12" fill="white"/>
</clipPath>
</defs>
</svg>
