<svg width="16" height="12" viewBox="0 0 16 12" fill="none" xmlns="http://www.w3.org/2000/svg">
<rect width="16" height="12" fill="#F5F5F5"/>
<g opacity="0.5">
<path fill-rule="evenodd" clip-rule="evenodd" d="M0 2C0 0.895431 0.895431 0 2 0H14C15.1046 0 16 0.895431 16 2V3H0V2ZM0 10V9H16V10C16 11.1046 15.1046 12 14 12H2C0.895431 12 0 11.1046 0 10Z" fill="#43458B"/>
<path fill-rule="evenodd" clip-rule="evenodd" d="M0 3V9H16V3H0Z" fill="#F6F9FC"/>
<path fill-rule="evenodd" clip-rule="evenodd" d="M1 3H0V9H1V3ZM15 3V9H16V3H15Z" fill="#EAEEF3"/>
<path fill-rule="evenodd" clip-rule="evenodd" d="M7.14286 5.12858L8 3.70001L8.85714 5.12858H10L9.35714 5.98573L10 6.84287H8.85714L8 8.27144L7.14286 6.84287H6L6.64286 5.98573L6 5.12858H7.14286ZM8.92857 5.98573L8.28571 5.12858H7.71429L7.07143 5.98573L7.71429 6.84287H8.28571L8.92857 5.98573Z" fill="#43458B"/>
</g>
</svg>
