<svg width="16" height="12" viewBox="0 0 16 12" fill="none" xmlns="http://www.w3.org/2000/svg">
<rect width="16" height="12" fill="#F5F5F5"/>
<g opacity="0.5" clip-path="url(#clip0_0_1)">
<path d="M2 0H14C14.5304 0 15.0392 0.210713 15.4142 0.585786C15.7893 0.960859 16 1.46957 16 2V10C16 10.5304 15.7893 11.0391 15.4142 11.4142C15.0392 11.7893 14.5304 12 14 12H2C1.46957 12 0.96086 11.7893 0.585787 11.4142C0.210714 11.0391 0 10.5304 0 10V2C0 1.46957 0.210714 0.960859 0.585787 0.585786C0.96086 0.210713 1.46957 0 2 0Z" fill="#E25950"/>
<path d="M7.97871 5.49103L6.21338 3.06464L4 5M7.97871 5.49103L6.4243 9.00001L9 9.5M7.97871 5.49103L11.5 6V3.06464" stroke="white"/>
<path d="M10.2206 8.34758L9.84799 8.37395C9.83708 8.37468 9.82621 8.37223 9.81691 8.36695C9.80764 8.36164 9.80047 8.35385 9.79637 8.34458L9.65541 8.02993C9.65141 8.02056 9.6442 8.01261 9.63483 8.00723C9.62546 8.00188 9.61447 7.99939 9.60341 8.00013C9.59239 8.00089 9.58189 8.00485 9.57346 8.01144C9.56508 8.01799 9.55919 8.02685 9.5567 8.0367L9.46754 8.36706C9.46498 8.3768 9.45905 8.38559 9.45063 8.39207C9.44224 8.39855 9.43177 8.40243 9.42079 8.40316L9.04817 8.42865C9.03723 8.42938 9.02683 8.43322 9.01844 8.43967C9.01006 8.44611 9.00413 8.45479 9.00149 8.46449C8.99889 8.47416 8.9997 8.48437 9.00384 8.4936C9.00797 8.50283 9.01519 8.51059 9.02452 8.51582L9.3417 8.69457C9.36063 8.70526 9.37015 8.72613 9.36455 8.74627L9.27507 9.07667C9.27225 9.08644 9.27294 9.09677 9.27704 9.10614C9.28114 9.11551 9.28847 9.12342 9.29791 9.12869C9.30736 9.134 9.31842 9.13638 9.32947 9.1355C9.34053 9.13462 9.351 9.13056 9.35931 9.12386L9.64578 8.91937C9.65423 8.91293 9.66467 8.90909 9.67562 8.90832C9.6866 8.90758 9.69755 8.91 9.70692 8.9152L10.0229 9.0785C10.0322 9.08399 10.0431 9.08659 10.0542 9.08596C10.0653 9.08531 10.0759 9.08146 10.0844 9.07494C10.0929 9.06843 10.0989 9.0596 10.1015 9.04979C10.104 9.03994 10.1031 9.02965 10.0988 9.02035L9.95746 8.70574C9.95322 8.69647 9.95234 8.68622 9.95494 8.67648C9.95754 8.66674 9.96347 8.65796 9.97189 8.65148L10.2575 8.43154C10.266 8.42506 10.272 8.41627 10.2748 8.40646C10.2775 8.39668 10.2767 8.38636 10.2726 8.37699C10.2684 8.36765 10.2611 8.3597 10.2517 8.3544C10.2423 8.34905 10.2313 8.3466 10.2202 8.34733L10.2206 8.34758Z" fill="#FCD669"/>
<path d="M5.7206 5.34756L5.34802 5.37396C5.33711 5.37465 5.3262 5.3722 5.31693 5.36693C5.30767 5.36166 5.30046 5.35382 5.29639 5.34456L5.15543 5.0299C5.15141 5.02053 5.14419 5.01259 5.13486 5.0072C5.12548 5.00186 5.11446 4.99937 5.10344 5.00014C5.09239 5.00087 5.08191 5.00482 5.07349 5.01141C5.06507 5.018 5.05921 5.02683 5.05672 5.03668L4.96757 5.36704C4.96497 5.37681 4.95908 5.38556 4.95066 5.39205C4.94223 5.39853 4.9318 5.40244 4.92082 5.40314L4.54817 5.42862C4.53726 5.42935 4.52686 5.4332 4.51847 5.43964C4.51009 5.44609 4.50416 5.45476 4.50152 5.46447C4.49888 5.47417 4.49969 5.48435 4.50383 5.49357C4.50796 5.5028 4.51521 5.51056 4.52451 5.5158L4.84173 5.69454C4.86062 5.70523 4.87018 5.7261 4.86454 5.74624L4.7751 6.07664C4.77224 6.08642 4.77293 6.09674 4.77707 6.10611C4.78117 6.11549 4.7885 6.12339 4.79794 6.1287C4.80735 6.13398 4.81845 6.13636 4.82947 6.13548C4.84052 6.1346 4.85099 6.13053 4.85934 6.12383L5.1458 5.91939C5.15423 5.91294 5.16466 5.90906 5.17564 5.90829C5.18663 5.90756 5.19754 5.90998 5.20691 5.91518L5.52288 6.07847C5.53218 6.08396 5.54317 6.08656 5.55426 6.08594C5.56532 6.08528 5.5759 6.08144 5.58439 6.07492C5.59289 6.0684 5.59889 6.05958 5.60146 6.04977C5.60406 6.03992 5.6031 6.02963 5.59878 6.02033L5.45749 5.70571C5.45325 5.69645 5.45237 5.68623 5.45497 5.67646C5.45757 5.66672 5.4635 5.65797 5.47192 5.65145L5.75747 5.43151C5.766 5.42503 5.77204 5.41625 5.77475 5.40647C5.77746 5.39666 5.77669 5.38633 5.77255 5.37696C5.76841 5.36762 5.76113 5.35972 5.75172 5.35437C5.74231 5.34902 5.73129 5.34657 5.72023 5.3473L5.7206 5.34756Z" fill="#FCD669"/>
<path d="M10.7206 3.09759L10.348 3.12395C10.3371 3.12468 10.3262 3.12223 10.3169 3.11692C10.3077 3.11165 10.3004 3.10381 10.2964 3.09458L10.1554 2.77993C10.1514 2.77056 10.1442 2.76258 10.1348 2.75723C10.1255 2.75185 10.1145 2.74939 10.1034 2.75013C10.0924 2.7509 10.0819 2.75485 10.0735 2.7614C10.0651 2.76799 10.0592 2.77685 10.0567 2.78667L9.96756 3.11706C9.965 3.1268 9.95907 3.13555 9.95065 3.14207C9.94222 3.14855 9.93179 3.15243 9.92081 3.15317L9.54819 3.17865C9.53725 3.17934 9.52685 3.18323 9.51846 3.18967C9.51008 3.19611 9.50415 3.20479 9.50151 3.21449C9.49887 3.22416 9.49972 3.23434 9.50382 3.24356C9.50795 3.25279 9.5152 3.26059 9.52454 3.26582L9.84172 3.44457C9.86065 3.45522 9.87017 3.47613 9.86453 3.49627L9.77508 3.82667C9.77227 3.83644 9.77296 3.84677 9.77706 3.85614C9.78116 3.86551 9.78849 3.87342 9.79793 3.87869C9.80738 3.884 9.81844 3.88638 9.82949 3.8855C9.84055 3.88463 9.85098 3.88052 9.85933 3.87386L10.1458 3.66938C10.1542 3.66293 10.1647 3.65905 10.1756 3.65832C10.1866 3.65755 10.1976 3.65997 10.2069 3.6652L10.5229 3.8285C10.5322 3.83395 10.5432 3.83659 10.5543 3.83593C10.5653 3.83531 10.5759 3.83146 10.5844 3.82495C10.5929 3.81843 10.5989 3.80961 10.6014 3.79979C10.604 3.78994 10.6031 3.77962 10.5988 3.77036L10.4575 3.4557C10.4532 3.44647 10.4524 3.43622 10.455 3.42648C10.4576 3.41671 10.4635 3.40796 10.4719 3.40148L10.7575 3.18154C10.766 3.17502 10.772 3.16627 10.7747 3.15646C10.7775 3.14665 10.7767 3.13636 10.7725 3.12699C10.7684 3.11761 10.7611 3.10971 10.7517 3.1044C10.7423 3.09905 10.7313 3.09656 10.7202 3.09733L10.7206 3.09759Z" fill="#FCD669"/>
</g>
<defs>
<clipPath id="clip0_0_1">
<rect width="16" height="12" fill="white"/>
</clipPath>
</defs>
</svg>
