<svg width="16" height="12" viewBox="0 0 16 12" fill="none" xmlns="http://www.w3.org/2000/svg">
<rect width="16" height="12" fill="#F5F5F5"/>
<g opacity="0.5">
<path d="M14 12H2C0.89543 12 0 11.1046 0 10V6L0 2C0 0.89543 0.895431 0 2 0H8H14C15.1046 0 16 0.89543 16 2V10C16 11.1046 15.1046 12 14 12Z" fill="#43458B"/>
<path d="M0 6L0 2C0 0.89543 0.895431 0 2 0H8H14C15.1046 0 16 0.89543 16 2V6H0Z" fill="#E25950"/>
<path fill-rule="evenodd" clip-rule="evenodd" d="M10 2H6V3H10V2ZM8 4C6.89543 4 6 4.89543 6 6H10C10 4.89543 9.10457 4 8 4Z" fill="#FCD669"/>
<path fill-rule="evenodd" clip-rule="evenodd" d="M0 6H16V7H0V6ZM0 8H16V9H0V8ZM0 10C0 10.3643 0.0973943 10.7058 0.267564 11H15.7324C15.9026 10.7058 16 10.3643 16 10H0Z" fill="#F6F9FC"/>
<path d="M14 12H2C0.89543 12 0 11.1046 0 10V6H1V10C1 10.5523 1.44772 11 2 11H14C14.5523 11 15 10.5523 15 10V6H16V10C16 11.1046 15.1046 12 14 12Z" fill="#43458B" fill-opacity="0.1"/>
</g>
</svg>
