<svg width="16" height="12" viewBox="0 0 16 12" fill="none" xmlns="http://www.w3.org/2000/svg">
<rect width="16" height="12" fill="#F5F5F5"/>
<g opacity="0.5">
<path d="M0 3H16V9H0V3Z" fill="#333333"/>
<path fill-rule="evenodd" clip-rule="evenodd" d="M7 8C7.36444 8 7.70611 7.90253 8.00036 7.73223C7.9186 7.74394 7.83501 7.75 7.75 7.75C6.7835 7.75 6 6.9665 6 6C6 5.0335 6.7835 4.25 7.75 4.25C7.83501 4.25 7.9186 4.25606 8.00036 4.26777C7.70611 4.09747 7.36444 4 7 4C5.89543 4 5 4.89543 5 6C5 7.10457 5.89543 8 7 8ZM10 6C10 6.55228 9.55228 7 9 7C8.44772 7 8 6.55228 8 6C8 5.44772 8.44772 5 9 5C9.55228 5 10 5.44772 10 6Z" fill="white"/>
<path d="M0 3V2C0 0.89543 0.89543 0 2 0H14C15.1046 0 16 0.89543 16 2V3H0Z" fill="#E25950"/>
<path fill-rule="evenodd" clip-rule="evenodd" d="M14 12H2C0.89543 12 0 11.1046 0 10V9H16V10C16 11.1046 15.1046 12 14 12Z" fill="#24B47E"/>
</g>
</svg>
