<svg width="16" height="12" viewBox="0 0 16 12" fill="none" xmlns="http://www.w3.org/2000/svg">
<rect width="16" height="12" fill="#F5F5F5"/>
<g opacity="0.5">
<path fill-rule="evenodd" clip-rule="evenodd" d="M2 0C0.895431 0 0 0.895431 0 2V10C0 11.1046 0.895431 12 2 12H14C15.1046 12 16 11.1046 16 10V2C16 0.895431 15.1046 0 14 0H2Z" fill="#B1372F"/>
<path d="M10.7553 5L9.00538 5.00395C8.89987 5.00411 8.80635 4.93609 8.774 4.83567L8.23196 3.17072C8.20042 3.06919 8.10649 3 8.00017 3C7.89386 3 7.79992 3.06919 7.76839 3.17072L7.22797 4.83486C7.19561 4.93528 7.10209 5.0033 6.99659 5.00314H5.24588C5.13957 5.00175 5.04473 5.06973 5.01189 5.17085C4.97904 5.27198 5.01584 5.3827 5.10268 5.44405L6.51846 6.47312C6.60409 6.5351 6.63976 6.64537 6.60664 6.74576L6.06622 8.41071C6.03173 8.51152 6.06702 8.62304 6.15323 8.68565C6.23944 8.74827 6.35641 8.74733 6.4416 8.68335L7.85738 7.73334C7.94267 7.67101 8.05848 7.67101 8.14377 7.73334L9.56036 8.68335C9.64556 8.74733 9.76252 8.74827 9.84873 8.68565C9.93494 8.62304 9.97024 8.51152 9.93574 8.41071L9.3937 6.74576C9.36059 6.64537 9.39626 6.5351 9.48189 6.47312L10.8985 5.44405C10.9846 5.38247 11.0208 5.2722 10.9881 5.17155C10.9553 5.0709 10.8611 4.99913 10.7553 5Z" fill="#159570"/>
</g>
</svg>
