<svg width="16" height="12" viewBox="0 0 16 12" fill="none" xmlns="http://www.w3.org/2000/svg">
<rect width="16" height="12" fill="#F5F5F5"/>
<g opacity="0.5">
<path fill-rule="evenodd" clip-rule="evenodd" d="M2 0C0.895431 0 0 0.895431 0 2V10C0 11.1046 0.895431 12 2 12H14C15.1046 12 16 11.1046 16 10V2C16 0.895431 15.1046 0 14 0H2Z" fill="#159570"/>
<path fill-rule="evenodd" clip-rule="evenodd" d="M11.4645 3.99928C11.8051 4.58779 12 5.27113 12 6C12 8.20914 10.2091 10 8 10C5.79086 10 4 8.20914 4 6C4 5.27113 4.19495 4.58779 4.53555 3.99928C4.51212 4.16281 4.5 4.32999 4.5 4.5C4.5 6.433 6.067 8 8 8C9.933 8 11.5 6.433 11.5 4.5C11.5 4.32999 11.4879 4.16281 11.4645 3.99928V3.99928ZM7 3C7 2.44772 7.44772 2 8 2C8.55228 2 9 2.44772 9 3C9 3.55228 8.55228 4 8 4C7.44772 4 7 3.55228 7 3Z" fill="#F4B32E"/>
</g>
</svg>
