<svg width="16" height="12" viewBox="0 0 16 12" fill="none" xmlns="http://www.w3.org/2000/svg">
<rect width="16" height="12" fill="#F5F5F5"/>
<g opacity="0.5">
<path fill-rule="evenodd" clip-rule="evenodd" d="M2 0C0.895431 0 0 0.895431 0 2V10C0 11.1046 0.895431 12 2 12H8V0H2Z" fill="#F6F9FC"/>
<path d="M2 1C1.44772 1 1 1.44772 1 2V10C1 10.5523 1.44772 11 2 11H8V12H2C0.89543 12 0 11.1046 0 10V2C0 0.89543 0.89543 0 2 0H8V1H2Z" fill="#EAEEF3"/>
<path fill-rule="evenodd" clip-rule="evenodd" d="M8 0V12H14C15.1046 12 16 11.1046 16 10V2C16 0.895431 15.1046 0 14 0H8Z" fill="#E25950"/>
<path fill-rule="evenodd" clip-rule="evenodd" d="M5 3H7V5H5V7H3V5H1V3H3V1H5V3Z" fill="#CFD7DF"/>
</g>
</svg>
