<svg width="16" height="12" viewBox="0 0 16 12" fill="none" xmlns="http://www.w3.org/2000/svg">
<rect width="16" height="12" fill="#F5F5F5"/>
<g opacity="0.5">
<path fill-rule="evenodd" clip-rule="evenodd" d="M1.99406 0H14.0059C15.1055 0 16 0.895898 16 2.00104V3H0V2.00104C0 0.900099 0.892771 0 1.99406 0Z" fill="#E25950"/>
<path fill-rule="evenodd" clip-rule="evenodd" d="M0 6H16V9H0V6Z" fill="#FCD669"/>
<path fill-rule="evenodd" clip-rule="evenodd" d="M0 3H16V6H0V3Z" fill="#43458B"/>
<path fill-rule="evenodd" clip-rule="evenodd" d="M1 6H0V9H1V6ZM15 6V9H16V6H15Z" fill="#A68527" fill-opacity="0.1"/>
<path fill-rule="evenodd" clip-rule="evenodd" d="M0 9H16V10C16 11.1123 15.1072 12 14.0059 12H1.99406C0.894514 12 0 11.1046 0 10V9Z" fill="#24B47E"/>
</g>
</svg>
