<svg width="16" height="12" viewBox="0 0 16 12" fill="none" xmlns="http://www.w3.org/2000/svg">
<rect width="16" height="12" fill="#F5F5F5"/>
<g opacity="0.5">
<path fill-rule="evenodd" clip-rule="evenodd" d="M2 0C0.895431 0 0 0.895431 0 2V10C0 11.1046 0.895431 12 2 12H14C15.1046 12 16 11.1046 16 10V2C16 0.895431 15.1046 0 14 0H2Z" fill="#B1372F"/>
<rect x="3" y="3" width="10" height="6" fill="#159570"/>
<path fill-rule="evenodd" clip-rule="evenodd" d="M9.50036 4.26777C9.4186 4.25606 9.33501 4.25 9.25 4.25C8.2835 4.25 7.5 5.0335 7.5 6C7.5 6.9665 8.2835 7.75 9.25 7.75C9.33501 7.75 9.4186 7.74394 9.50036 7.73223C9.20611 7.90253 8.86444 8 8.5 8C7.39543 8 6.5 7.10457 6.5 6C6.5 4.89543 7.39543 4 8.5 4C8.86444 4 9.20611 4.09747 9.50036 4.26777V4.26777Z" fill="white"/>
</g>
</svg>
