<svg width="16" height="12" viewBox="0 0 16 12" fill="none" xmlns="http://www.w3.org/2000/svg">
<rect width="16" height="12" fill="#F5F5F5"/>
<g opacity="0.5">
<path d="M5 0H11V12H5V0Z" fill="#F6F9FC"/>
<path fill-rule="evenodd" clip-rule="evenodd" d="M11 0H5V1H11V0ZM5 11V12H11V11H5Z" fill="#EAEEF3"/>
<path fill-rule="evenodd" clip-rule="evenodd" d="M5 0H2C0.89543 0 0 0.89543 0 2V10C0 11.1046 0.89543 12 2 12H5V6V3V0ZM7.99917 8.5C6.61873 8.49954 5.49999 7.38033 5.5 6H6.5C6.49999 6.8282 7.17124 7.49972 7.9995 7.5C8.5354 7.50018 9.03068 7.21445 9.29879 6.75043C9.43293 6.51828 9.5 6.25914 9.5 6H10.5C10.5 6.4319 10.3882 6.8638 10.1646 7.25072C9.71781 8.02408 8.89233 8.5003 7.99917 8.5Z" fill="#24B47E"/>
<path d="M14 12H11V0H14C15.1046 0 16 0.89543 16 2V10C16 11.1046 15.1046 12 14 12Z" fill="#E25950"/>
<path d="M8.00033 5C8.3576 5.00012 8.68766 5.19083 8.86619 5.50029C9.04472 5.80975 9.04459 6.19095 8.86586 6.50029C8.68712 6.80963 8.35693 7.00012 7.99967 7C7.44738 6.99982 6.99982 6.55195 7 5.99967C7.00018 5.44738 7.44805 4.99982 8.00033 5Z" fill="#B5562B"/>
</g>
</svg>
