<svg width="16" height="12" viewBox="0 0 16 12" fill="none" xmlns="http://www.w3.org/2000/svg">
<rect width="16" height="12" fill="#F5F5F5"/>
<g opacity="0.5">
<path fill-rule="evenodd" clip-rule="evenodd" d="M2 0C0.895431 0 0 0.895431 0 2V10C0 11.1046 0.895431 12 2 12H14C15.1046 12 16 11.1046 16 10V2C16 0.895431 15.1046 0 14 0H2Z" fill="#159570"/>
<path fill-rule="evenodd" clip-rule="evenodd" d="M0 9H16V10C16 11.1123 15.5 12 14.0059 12H1.99406C0.894514 12 0 11.1046 0 10V9Z" fill="#FCD669"/>
<path d="M15 9V10C15 10.5523 14.5523 11 14 11H2C1.44772 11 1 10.5523 1 10V8H0V10C0 10.5 0.5 12 2 12H14C15.5786 12 16 11.2668 16 10V9H15Z" fill="#A68527" fill-opacity="0.1"/>
<path fill-rule="evenodd" clip-rule="evenodd" d="M0 4V3H16V4H0ZM0 9V8H16V9H0Z" fill="#F6F9FC"/>
<path fill-rule="evenodd" clip-rule="evenodd" d="M15 3V4H16V3H15ZM15 8V9H16V8H15Z" fill="#EAEEF3"/>
<path fill-rule="evenodd" clip-rule="evenodd" d="M0 4V8H16V4H0Z" fill="#333333"/>
<path fill-rule="evenodd" clip-rule="evenodd" d="M0.648548 11.4732C0.250176 11.106 0 10.5781 0 9.99146L0 2.00852C0 1.41947 0.252973 0.888408 0.655711 0.520508C0.706287 0.537083 0.755057 0.56208 0.8 0.595787L8 5.99579L0.8 11.3958C0.754011 11.4303 0.702737 11.4563 0.648548 11.4732Z" fill="#E25950"/>
<path d="M4.74715 5.30216L3.60782 5.30473C3.53913 5.30483 3.47824 5.26055 3.45718 5.19517L3.10426 4.11115C3.08373 4.04505 3.02257 4 2.95335 4C2.88414 4 2.82298 4.04505 2.80245 4.11115L2.45059 5.19464C2.42952 5.26002 2.36863 5.30431 2.29994 5.3042H1.16009C1.09087 5.3033 1.02912 5.34756 1.00774 5.4134C0.986356 5.47924 1.01032 5.55133 1.06686 5.59127L1.98864 6.26128C2.04439 6.30163 2.06761 6.37343 2.04605 6.43879L1.6942 7.52281C1.67174 7.58845 1.69472 7.66105 1.75085 7.70182C1.80698 7.74259 1.88313 7.74198 1.9386 7.70032L2.86039 7.08178C2.91592 7.04121 2.99132 7.04121 3.04685 7.08178L3.96916 7.70032C4.02463 7.74198 4.10079 7.74259 4.15692 7.70182C4.21305 7.66105 4.23602 7.58845 4.21357 7.52281L3.86065 6.43879C3.83909 6.37343 3.86232 6.30163 3.91807 6.26128L4.84038 5.59127C4.89643 5.55118 4.92004 5.47939 4.89872 5.41385C4.8774 5.34832 4.81606 5.30159 4.74715 5.30216Z" fill="#FCD669"/>
</g>
</svg>
