<svg width="16" height="12" viewBox="0 0 16 12" fill="none" xmlns="http://www.w3.org/2000/svg">
<rect width="16" height="12" fill="#F5F5F5"/>
<g opacity="0.5">
<path fill-rule="evenodd" clip-rule="evenodd" d="M0 2C0 0.895431 0.895431 0 2 0H14C15.1046 0 16 0.89543 16 2V5H0V2ZM0 10V7H16V10C16 11.1046 15.1046 12 14 12H2C0.895431 12 0 11.1046 0 10Z" fill="#43458B"/>
<path fill-rule="evenodd" clip-rule="evenodd" d="M4.5 11C5.32843 11 6 10.3284 6 9.5C6 8.67157 5.32843 8 4.5 8C3.67157 8 3 8.67157 3 9.5C3 10.3284 3.67157 11 4.5 11Z" fill="white"/>
<path fill-rule="evenodd" clip-rule="evenodd" d="M0 5V7H16V5H0Z" fill="#FCD669"/>
<path fill-rule="evenodd" clip-rule="evenodd" d="M1.06667 5H0V7H1.06667V5ZM14.9333 5V7H16V5H14.9333Z" fill="#A68527" fill-opacity="0.1"/>
</g>
</svg>
