<svg width="16" height="12" viewBox="0 0 16 12" fill="none" xmlns="http://www.w3.org/2000/svg">
<rect width="16" height="12" fill="#F5F5F5"/>
<g opacity="0.5">
<path fill-rule="evenodd" clip-rule="evenodd" d="M4 0H13.9915C15.098 0 16 0.89543 16 2V4H4V0Z" fill="#F6F9FC"/>
<path d="M15 4V2C15 1.44772 14.5523 1 14 1H4V0H14C15.1046 0 16 0.89543 16 2V4H15Z" fill="#EAEEF3"/>
<path fill-rule="evenodd" clip-rule="evenodd" d="M2 0H4V12H2C0.88773 12 0 11.1007 0 9.99147V2.00853C0 0.90195 0.89543 0 2 0Z" fill="#E25950"/>
<path fill-rule="evenodd" clip-rule="evenodd" d="M3 0H4V12H3V0Z" fill="#B1372F" fill-opacity="0.2"/>
<path fill-rule="evenodd" clip-rule="evenodd" d="M4 4H16V8H4V4Z" fill="#E25950"/>
<path fill-rule="evenodd" clip-rule="evenodd" d="M4 8H16V10C16 11.1123 15.1007 12 13.9915 12H4V8Z" fill="#24B47E"/>
<path fill-rule="evenodd" clip-rule="evenodd" d="M1 2C1 1.44772 1.44772 1 2 1C2.55228 1 3 1.44772 3 2C3 2.55228 2.55228 3 2 3C1.44772 3 1 2.55228 1 2Z" fill="white"/>
</g>
</svg>
