<svg width="16" height="12" viewBox="0 0 16 12" fill="none" xmlns="http://www.w3.org/2000/svg">
<rect width="16" height="12" fill="#F5F5F5"/>
<g opacity="0.5">
<path fill-rule="evenodd" clip-rule="evenodd" d="M14.0054 0C15.0977 0 16 0.891797 16 1.99188V10.0081C16 11.1066 15.107 12 14.0054 12H4H2C0.895431 12 0 11.1046 0 10V8V1.99188C0 0.893397 0.892996 0 1.99456 0H14.0054Z" fill="#E25950"/>
<path fill-rule="evenodd" clip-rule="evenodd" d="M15.3277 11.4957C14.9745 11.8094 14.5095 12 14 12H1.99406C0.894514 12 0 11.1007 0 9.99145V1.99998C0 1.40493 0.259869 0.870573 0.672309 0.504211L15.3277 11.4957V11.4957Z" fill="#333333"/>
<path fill-rule="evenodd" clip-rule="evenodd" d="M3 4.5C3 4.22386 3.22386 4 3.5 4C3.77614 4 4 4.22386 4 4.5C4 4.77614 3.77614 5 3.5 5C3.22386 5 3 4.77614 3 4.5ZM5 6.5C5 6.22386 5.22386 6 5.5 6C5.77614 6 6 6.22386 6 6.5C6 6.77614 5.77614 7 5.5 7C5.22386 7 5 6.77614 5 6.5ZM3 10.5C3 10.2239 3.22386 10 3.5 10C3.77614 10 4 10.2239 4 10.5C4 10.7761 3.77614 11 3.5 11C3.22386 11 3 10.7761 3 10.5ZM2.5 7C2.22386 7 2 7.22386 2 7.5C2 7.77614 2.22386 8 2.5 8C2.77614 8 3 7.77614 3 7.5C3 7.22386 2.77614 7 2.5 7Z" fill="white"/>
<path fill-rule="evenodd" clip-rule="evenodd" d="M12.5914 1.86702C11.9308 1.38263 11 1.85432 11 2.67342V3.00002H10.4145C9.46237 3.00002 9.049 4.2048 9.80059 4.78937L10.3861 5.24473C11.0429 5.75562 12 5.28753 12 4.45538V4.00002H12.4453C13.4118 4.00002 13.8161 2.76515 13.0367 2.19361L12.5914 1.86702Z" fill="#F4B32E"/>
</g>
</svg>
