<svg width="16" height="12" viewBox="0 0 16 12" fill="none" xmlns="http://www.w3.org/2000/svg">
<rect width="16" height="12" fill="#F5F5F5"/>
<g opacity="0.5">
<path d="M6 12H2C0.89543 12 0 11.1046 0 10V2C0 0.89543 0.89543 0 2 0H6V12Z" fill="#24B47E"/>
<path d="M14 12H6V0H14C15.1046 0 16 0.89543 16 2V10C16 11.1046 15.1046 12 14 12Z" fill="#E25950"/>
<path d="M5.97454 3C7.64546 3 9 4.34265 9 5.99889C9 7.65514 7.64546 8.99779 5.97454 8.99779C4.32371 8.97025 3 7.63589 3 5.99932C3 4.36275 4.32371 3.02839 5.97454 3.00085V3Z" fill="#FCD669"/>
<path d="M5.94011 4.0009C6.6686 3.97908 7.35129 4.35526 7.72198 4.98276C8.09267 5.61027 8.09267 6.38974 7.72198 7.01724C7.35129 7.64475 6.6686 8.02093 5.94011 7.99911C4.85935 7.96673 4 7.08125 4 6C4 4.91875 4.85935 4.03328 5.94011 4.0009V4.0009Z" fill="#E25950"/>
<path d="M5 5H7V6.5C7 7.05228 6.55228 7.5 6 7.5C5.44772 7.5 5 7.05228 5 6.5V5Z" fill="white"/>
</g>
</svg>
