<svg width="16" height="12" viewBox="0 0 16 12" fill="none" xmlns="http://www.w3.org/2000/svg">
<rect width="16" height="12" fill="#F5F5F5"/>
<g opacity="0.5">
<path fill-rule="evenodd" clip-rule="evenodd" d="M2 0C0.895431 0 0 0.895431 0 2V6H16V2C16 0.89543 15.1046 0 14 0H2Z" fill="#45B2E8"/>
<path fill-rule="evenodd" clip-rule="evenodd" d="M0 6H16V9H0V6Z" fill="#FCD669"/>
<path fill-rule="evenodd" clip-rule="evenodd" d="M1 6H0V9H1V6ZM15 6V9H16V6H15Z" fill="#A68527" fill-opacity="0.1"/>
<path fill-rule="evenodd" clip-rule="evenodd" d="M0 9V10C0 11.1046 0.895431 12 2 12H14C15.1046 12 16 11.1046 16 10V9H0Z" fill="#24B47E"/>
<path fill-rule="evenodd" clip-rule="evenodd" d="M13 4C13.5523 4 14 3.55228 14 3C14 2.44772 13.5523 2 13 2C12.4477 2 12 2.44772 12 3C12 3.55228 12.4477 4 13 4Z" fill="#FCD669"/>
</g>
</svg>
