<svg width="16" height="12" viewBox="0 0 16 12" fill="none" xmlns="http://www.w3.org/2000/svg">
<rect width="16" height="12" fill="#F5F5F5"/>
<g opacity="0.5">
<path d="M2 0H14C15.1046 0 16 0.89543 16 2V10C16 11.1046 15.1046 12 14 12H2C0.89543 12 0 11.1046 0 10V2C0 0.89543 0.89543 0 2 0Z" fill="#E25950"/>
<path d="M2 0H5L0.357644 11.1417C0.132191 10.8179 0 10.4244 0 10V2C0 0.89543 0.89543 0 2 0Z" fill="#43458B"/>
<path fill-rule="evenodd" clip-rule="evenodd" d="M4.99999 0H11L0.560527 11.3885C0.486573 11.3119 0.418685 11.2293 0.357635 11.1417L4.99999 0Z" fill="#FCD669"/>
<path fill-rule="evenodd" clip-rule="evenodd" d="M4.99999 0H11L0.560527 11.3885C0.486573 11.3119 0.418685 11.2293 0.357635 11.1417L4.99999 0Z" fill="#FCD669"/>
<path d="M11 0L10.0833 1H4.58331L4.99998 0H11Z" fill="#A68527" fill-opacity="0.1"/>
<path d="M16 4V8L0.554604 11.3823C0.419824 11.2415 0.305438 11.0809 0.216187 10.9054L16 4Z" fill="#F6F9FC"/>
<path d="M16 10C16 11.1046 15.1046 12 14 12H2.00001C1.24114 12 0.580984 11.5774 0.242096 10.9546L16 8V10Z" fill="#159570"/>
<path d="M16 4V8L15 8.15625V4.4375L16 4Z" fill="#EAEEF3"/>
</g>
</svg>
