<svg width="16" height="12" viewBox="0 0 16 12" fill="none" xmlns="http://www.w3.org/2000/svg">
<rect width="16" height="12" fill="#F5F5F5"/>
<g opacity="0.5">
<path d="M16 6V10C16 11.1046 15.1046 12 14 12H2C0.89543 12 0 11.1046 0 10V6H16Z" fill="#F6F9FC"/>
<path d="M14 12H2C0.89543 12 0 11.1046 0 10V6H1V10C1 10.5523 1.44772 11 2 11H14C14.5523 11 15 10.5523 15 10V6H16V10C16 11.1046 15.1046 12 14 12Z" fill="#EAEEF3"/>
<path d="M0 6V2C0 0.89543 0.89543 0 2 0H14C15.1046 0 16 0.89543 16 2V6H0Z" fill="#E25950"/>
<path fill-rule="evenodd" clip-rule="evenodd" d="M7.49916 2.5C7.32053 2.4997 7.15562 2.40412 7.06657 2.24927C6.97751 2.09442 6.97783 1.90382 7.06741 1.74927C7.15699 1.59472 7.32221 1.4997 7.50084 1.5C7.77698 1.50047 8.00046 1.7247 8 2.00084C7.99953 2.27698 7.7753 2.50046 7.49916 2.5ZM4.72 4.5685C3.96991 4.56438 3.36402 3.95514 3.36403 3.20504C3.36402 2.45494 3.96991 1.8457 4.72 1.84158C4.43544 1.62961 4.08695 1.5 3.70504 1.5C2.76337 1.5 2 2.26337 2 3.20504C2 4.14671 2.76337 4.91008 3.70504 4.91008C4.07143 4.90917 4.42761 4.78929 4.72 4.5685ZM8.57023 2.75554C8.66403 2.91328 8.83671 3.00697 9.02009 2.9996C9.28803 2.98882 9.49977 2.76859 9.5 2.50042C9.50023 2.23226 9.28886 2.01166 9.02093 2.00044C8.83756 1.99276 8.66472 2.08615 8.57066 2.24374C8.4766 2.40133 8.47644 2.59779 8.57023 2.75554ZM6.75 4.43301C6.9047 4.3437 7 4.17863 7 4C7 3.72386 6.77614 3.5 6.5 3.5C6.22386 3.5 6 3.72386 6 4C6 4.17863 6.0953 4.3437 6.25 4.43301C6.4047 4.52233 6.5953 4.52233 6.75 4.43301ZM6 3C5.72386 3 5.5 2.77614 5.5 2.5C5.5 2.22386 5.72386 2 6 2C6.27614 2 6.5 2.22386 6.5 2.5C6.5 2.77614 6.27614 3 6 3ZM9 4C9 3.72386 8.77614 3.5 8.5 3.5C8.22386 3.5 8 3.72386 8 4C8 4.27614 8.22386 4.5 8.5 4.5C8.77614 4.5 9 4.27614 9 4Z" fill="white"/>
</g>
</svg>
