<svg width="16" height="12" viewBox="0 0 16 12" fill="none" xmlns="http://www.w3.org/2000/svg">
<rect width="16" height="12" fill="#F5F5F5"/>
<g opacity="0.5" clip-path="url(#clip0_0_1)">
<path d="M0.672 0.504028C0.460625 0.691733 0.291443 0.922115 0.17561 1.17998C0.0597767 1.43785 -7.5518e-05 1.71734 7.15093e-08 2.00003V10C-7.5518e-05 10.2827 0.0597767 10.5622 0.17561 10.8201C0.291443 11.0779 0.460625 11.3083 0.672 11.496L8 6.00003L0.672 0.504028Z" fill="#43458B"/>
<path d="M0.671997 0.504C1.03809 0.179171 1.51057 -0.000147334 2 9.0831e-08H14C14.5304 9.0831e-08 15.0391 0.210714 15.4142 0.585786C15.7893 0.960859 16 1.46957 16 2V3.579H4.772L0.671997 0.504Z" fill="#333333"/>
<path d="M5.61298 4.21002H16V7.79002H5.61298L7.99998 6.00002L5.61298 4.21002Z" fill="#E25950"/>
<path d="M0.671997 11.496C1.03809 11.8209 1.51057 12.0002 2 12H14C14.5304 12 15.0391 11.7893 15.4142 11.4142C15.7893 11.0392 16 10.5305 16 10V8.42102H4.772L0.671997 11.496Z" fill="#24B47E"/>
<path d="M4.77197 3.57898H15V4.20998H5.61297L4.77197 3.57898ZM5.61297 7.78998H15V8.42098H4.77197L5.61297 7.78998Z" fill="#F6F9FC"/>
<path d="M15 3.57898H16V4.20998H15V3.57898ZM15 7.78998H16V8.42098H15V7.78998Z" fill="#EAEEF3"/>
<path d="M2.33298 4.16298L2.33598 5.32998C2.33598 5.39998 2.29098 5.46198 2.22398 5.48398L1.11398 5.84498C1.08074 5.85508 1.05163 5.8756 1.03094 5.90351C1.01025 5.93142 0.999084 5.96524 0.999084 5.99998C0.999084 6.03472 1.01025 6.06854 1.03094 6.09645C1.05163 6.12436 1.08074 6.14488 1.11398 6.15498L2.22398 6.51498C2.25633 6.52571 2.28447 6.54637 2.3044 6.57402C2.32433 6.60167 2.33503 6.6349 2.33498 6.66898V7.83598C2.33453 7.87051 2.34513 7.90427 2.36522 7.93236C2.38531 7.96044 2.41385 7.98136 2.44668 7.99208C2.4795 8.0028 2.51489 8.00275 2.54769 7.99194C2.58048 7.98113 2.60896 7.96012 2.62898 7.93198L3.31498 6.98798C3.33499 6.95992 3.36342 6.93897 3.39615 6.92818C3.42889 6.91739 3.4642 6.91732 3.49698 6.92798L4.60698 7.28898C4.63968 7.30004 4.67505 7.30037 4.70795 7.28991C4.74084 7.27946 4.76954 7.25877 4.78986 7.23087C4.81017 7.20296 4.82104 7.1693 4.82089 7.13478C4.82073 7.10026 4.80955 7.0667 4.78898 7.03898L4.15598 6.09498C4.13597 6.06734 4.1252 6.0341 4.1252 5.99998C4.1252 5.96586 4.13597 5.93262 4.15598 5.90498L4.78898 4.95998C4.80955 4.93226 4.82073 4.8987 4.82089 4.86418C4.82104 4.82966 4.81017 4.796 4.78986 4.76809C4.76954 4.74019 4.74084 4.7195 4.70795 4.70905C4.67505 4.69859 4.63968 4.69892 4.60698 4.70998L3.49698 5.06998C3.46441 5.08085 3.42923 5.08108 3.39652 5.07066C3.36381 5.06023 3.33525 5.03969 3.31498 5.01198L2.62898 4.06798C2.6086 4.04034 2.58007 4.01979 2.54739 4.00923C2.51471 3.99867 2.47954 3.99863 2.44684 4.00913C2.41415 4.01962 2.38557 4.04012 2.36514 4.06772C2.34471 4.09532 2.33346 4.12864 2.33298 4.16298Z" fill="#FCD669"/>
</g>
<defs>
<clipPath id="clip0_0_1">
<rect width="16" height="12" fill="white"/>
</clipPath>
</defs>
</svg>
