<svg width="16" height="12" viewBox="0 0 16 12" fill="none" xmlns="http://www.w3.org/2000/svg">
<rect width="16" height="12" fill="#F5F5F5"/>
<g opacity="0.5" clip-path="url(#clip0_0_1)">
<path d="M0.636 0.536987C0.435283 0.72416 0.275236 0.950639 0.16582 1.20233C0.0564037 1.45402 -4.05461e-05 1.72554 2.18524e-08 1.99999V9.99999C-4.05461e-05 10.2744 0.0564037 10.546 0.16582 10.7976C0.275236 11.0493 0.435283 11.2758 0.636 11.463L1 11.156V0.843987L0.636 0.536987Z" fill="#EAEEF3"/>
<path d="M1 0.843994V11.156L7.111 5.99999L1 0.843994Z" fill="#F6F9FC"/>
<path d="M0.635986 0.537C1.0063 0.191822 1.49374 -8.02378e-05 1.99999 2.51673e-08H14C14.5304 2.51673e-08 15.0391 0.210714 15.4142 0.585786C15.7893 0.960859 16 1.46957 16 2V6H7.11099L0.635986 0.537Z" fill="#E25950"/>
<path d="M0.635986 11.463C1.0063 11.8082 1.49374 12.0001 1.99999 12H14C14.5304 12 15.0391 11.7893 15.4142 11.4142C15.7893 11.0391 16 10.5304 16 10V6H7.11099L0.635986 11.463Z" fill="#43458B"/>
<path d="M2.75 7.75C3.7165 7.75 4.5 6.9665 4.5 6C4.5 5.0335 3.7165 4.25 2.75 4.25C1.7835 4.25 1 5.0335 1 6C1 6.9665 1.7835 7.75 2.75 7.75Z" fill="#45B2E8"/>
</g>
<defs>
<clipPath id="clip0_0_1">
<rect width="16" height="12" fill="white"/>
</clipPath>
</defs>
</svg>
