<svg width="16" height="12" viewBox="0 0 16 12" fill="none" xmlns="http://www.w3.org/2000/svg">
<rect width="16" height="12" fill="#F5F5F5"/>
<g opacity="0.5">
<path fill-rule="evenodd" clip-rule="evenodd" d="M0 2C0 0.895431 0.895431 0 2 0H14C15.1046 0 16 0.895431 16 2H0ZM2 12C0.895431 12 0 11.1046 0 10H16C16 11.1046 15.1046 12 14 12H2Z" fill="#555ABF"/>
<path fill-rule="evenodd" clip-rule="evenodd" d="M0 2V10H16V2H0Z" fill="#FCD669"/>
<path fill-rule="evenodd" clip-rule="evenodd" d="M1 2H0V10H1V2ZM15 2V10H16V2H15Z" fill="#A68527" fill-opacity="0.1"/>
<path fill-rule="evenodd" clip-rule="evenodd" d="M0 3V9H16V3H0Z" fill="#B1372F"/>
<path fill-rule="evenodd" clip-rule="evenodd" d="M8 8C8 8 8 6 8 6V4C5.91961 4 4 4.89543 4 6C4 7.10457 5.79086 8 8 8Z" fill="#333333"/>
<path fill-rule="evenodd" clip-rule="evenodd" d="M8 8C8 8 8 6 8 6V4C10.0804 4 12 4.89543 12 6C12 7.10457 10.2091 8 8 8Z" fill="#F6F9FC"/>
</g>
</svg>
