<svg width="16" height="12" viewBox="0 0 16 12" fill="none" xmlns="http://www.w3.org/2000/svg">
<rect width="16" height="12" fill="#F5F5F5"/>
<g opacity="0.5">
<path d="M2 0H14C15.1046 0 16 0.89543 16 2V10C16 11.1046 15.1046 12 14 12H2C0.89543 12 0 11.1046 0 10V2C0 0.89543 0.89543 0 2 0Z" fill="#43458B"/>
<path d="M0 2C0 0.89543 0.895431 0 2 0H3V6H0V2Z" fill="#43458B"/>
<rect x="3" width="3" height="6" fill="#F6F9FC"/>
<rect x="3" width="3" height="1" fill="#EAEEF3"/>
<rect x="6" width="3" height="6" fill="#E25950"/>
<path fill-rule="evenodd" clip-rule="evenodd" d="M9 6V0H9.5V6.5H0V6H9Z" fill="white"/>
<path d="M12.5 8V7H11V6H15V7H13.5V8H15V9H13.5V10.437C13.3402 10.4781 13.1726 10.5 13 10.5C12.8274 10.5 12.6598 10.4781 12.5 10.437V9H11V8H12.5Z" fill="white"/>
</g>
</svg>
