<svg width="16" height="12" viewBox="0 0 16 12" fill="none" xmlns="http://www.w3.org/2000/svg">
<rect width="16" height="12" fill="#F5F5F5"/>
<g opacity="0.5">
<path fill-rule="evenodd" clip-rule="evenodd" d="M2 0C0.895431 0 0 0.895431 0 2V10C0 11.1046 0.895431 12 2 12H14C15.1046 12 16 11.1046 16 10V2C16 0.895431 15.1046 0 14 0H2Z" fill="#E25950"/>
<path fill-rule="evenodd" clip-rule="evenodd" d="M0.000535582 10.0384C0.000179179 10.0228 0 10.0072 0 9.99147V2.00853C0 1.99349 0.000164958 1.97848 0.000493155 1.96352C0.016671 1.44415 0.42884 1.16494 0.934928 1.35959L13 6L0.934928 10.6404C0.428527 10.8352 0.0173615 10.5659 0.000535582 10.0384H0.000535582Z" fill="#FCD669"/>
<path fill-rule="evenodd" clip-rule="evenodd" d="M0.664335 11.4876C0.256796 11.1199 0 10.5858 0 9.99145V2.00851C0 1.41509 0.256744 0.880514 0.664706 0.512329C0.707518 0.535353 0.751486 0.563592 0.796318 0.597216L8 5.99998L0.796318 11.4027C0.751488 11.4364 0.707382 11.4646 0.664335 11.4876V11.4876Z" fill="#333333"/>
<path fill-rule="evenodd" clip-rule="evenodd" d="M3 7C3.55228 7 4 6.55228 4 6C4 5.44772 3.55228 5 3 5C2.44772 5 2 5.44772 2 6C2 6.55228 2.44772 7 3 7Z" fill="#F7FAFC"/>
</g>
</svg>
