<svg width="16" height="12" viewBox="0 0 16 12" fill="none" xmlns="http://www.w3.org/2000/svg">
<rect width="16" height="12" fill="#F5F5F5"/>
<g opacity="0.5">
<path d="M2 0H14C15.1046 0 16 0.89543 16 2V10C16 11.1046 15.1046 12 14 12H2C0.89543 12 0 11.1046 0 10V2C0 0.89543 0.89543 0 2 0Z" fill="#45B2E8"/>
<path fill-rule="evenodd" clip-rule="evenodd" d="M13 2.5C13 2.22386 13.2239 2 13.5 2C13.7761 2 14 2.22386 14 2.5C14 2.77614 13.7761 3 13.5 3C13.2239 3 13 2.77614 13 2.5ZM12.5 3C12.2239 3 12 3.22386 12 3.5C12 3.77614 12.2239 4 12.5 4C12.7761 4 13 3.77614 13 3.5C13 3.22386 12.7761 3 12.5 3ZM11 4.5C11 4.22386 11.2239 4 11.5 4C11.7761 4 12 4.22386 12 4.5C12 4.77614 11.7761 5 11.5 5C11.2239 5 11 4.77614 11 4.5ZM12.5 6C12.2239 6 12 6.22386 12 6.5C12 6.77614 12.2239 7 12.5 7C12.7761 7 13 6.77614 13 6.5C13 6.22386 12.7761 6 12.5 6ZM11 7.5C11 7.22386 11.2239 7 11.5 7C11.7761 7 12 7.22386 12 7.5C12 7.77614 11.7761 8 11.5 8C11.2239 8 11 7.77614 11 7.5ZM10.5 8C10.2239 8 10 8.22386 10 8.5C10 8.77614 10.2239 9 10.5 9C10.7761 9 11 8.77614 11 8.5C11 8.22386 10.7761 8 10.5 8ZM9.5 9C9.22386 9 9 9.22386 9 9.5C9 9.77614 9.22386 10 9.5 10C9.77614 10 10 9.77614 10 9.5C10 9.22386 9.77614 9 9.5 9Z" fill="#FCD669"/>
<path d="M0 2C0 0.89543 0.895431 0 2 0H8V6H0V2Z" fill="#43458B"/>
<path fill-rule="evenodd" clip-rule="evenodd" d="M1.34608 3.96429H0V2.03571H3V1.92937L0.748407 0.439935C1.01503 0.225756 1.33772 0.0785189 1.69098 0.0237284L3 0.889762V0H5V2.03571H5.04568L8 0.0814286V1.12114L6.61725 2.03571H8V3.96429H5V4.04678L7.93422 5.988H6.36356L5 5.08603V6H3V3.96429H2.91804L0 5.89457V4.85486L1.34608 3.96429Z" fill="white"/>
<path fill-rule="evenodd" clip-rule="evenodd" d="M0.747518 0.440651C0.519848 0.62375 0.333119 0.855685 0.203233 1.12055L1.58686 2.03571H3V1.93089L0.747518 0.440651ZM5 3.96429H6.41281L8 5.01429V6H7.91911L5 4.06907V3.96429ZM3 3.96429V4.95104L1.41422 6H0V5.89629L2.91993 3.96429H3ZM5 2.03571H5.07952L8 0.103714V0H6.58578L5 1.04896V2.03571ZM4.44444 3.42686H8V2.57314H4.44444V0H3.55556V2.57314H0V3.42686H3.55556V6H4.44444V3.42686Z" fill="#E25950"/>
</g>
</svg>
