<svg width="16" height="12" viewBox="0 0 16 12" fill="none" xmlns="http://www.w3.org/2000/svg">
<rect width="16" height="12" fill="#F5F5F5"/>
<g opacity="0.5">
<path fill-rule="evenodd" clip-rule="evenodd" d="M14.0059 0H1.99406C0.892771 0 0 0.900099 0 2.00104H16C16 0.895898 15.1055 0 14.0059 0ZM16 6H0V8H16V6Z" fill="#333333"/>
<path fill-rule="evenodd" clip-rule="evenodd" d="M16 2H0V4H16V2ZM16 8H0V10H16V8Z" fill="#FCD669"/>
<path fill-rule="evenodd" clip-rule="evenodd" d="M16 4H0V6H16V4ZM14.0059 12C15.1072 12 16 11.1123 16 10H0C0 11.1046 0.894514 12 1.99406 12H14.0059Z" fill="#E25950"/>
<path fill-rule="evenodd" clip-rule="evenodd" d="M1 2H0V4H1V2ZM15 2V4H16V2H15ZM15 10V8H16V10H15ZM1 8H0V10H1V8Z" fill="#A68527" fill-opacity="0.1"/>
<path fill-rule="evenodd" clip-rule="evenodd" d="M8 7C8.55228 7 9 6.55228 9 6C9 5.44772 8.55228 5 8 5C7.44772 5 7 5.44772 7 6C7 6.55228 7.44772 7 8 7Z" fill="#F7FAFC"/>
</g>
</svg>
