<svg width="16" height="12" viewBox="0 0 16 12" fill="none" xmlns="http://www.w3.org/2000/svg">
<rect width="16" height="12" fill="#F5F5F5"/>
<g opacity="0.5">
<path fill-rule="evenodd" clip-rule="evenodd" d="M8 0V12H14C15.1046 12 16 11.1046 16 10V2C16 0.895431 15.1046 0 14 0H8Z" fill="#F6F9FC"/>
<path fill-rule="evenodd" clip-rule="evenodd" d="M2 0C0.895431 0 0 0.895431 0 2V10C0 11.1046 0.895431 12 2 12H8V0H2Z" fill="#FCD669"/>
<path d="M14 1H8V0H14C15.1046 0 16 0.89543 16 2V10C16 11.1046 15.1046 12 14 12H8V11H14C14.5523 11 15 10.5523 15 10V2C15 1.44772 14.5523 1 14 1Z" fill="#EAEEF3"/>
<path d="M2 1C1.44772 1 1 1.44772 1 2V10C1 10.5523 1.44772 11 2 11H8V12H2C0.89543 12 0 11.1046 0 10V2C0 0.89543 0.89543 0 2 0H8V1H2Z" fill="#A68527" fill-opacity="0.1"/>
<path fill-rule="evenodd" clip-rule="evenodd" d="M12.9757 6.25695L10.933 2.71893L9.20096 3.71893L9.70096 4.58496L10.567 4.08496L12.1097 6.75695C11.7081 7.22658 11.6244 7.91646 11.951 8.48207C12.3652 9.19951 13.2826 9.44532 14 9.03111C14.7174 8.6169 14.9632 7.69951 14.549 6.98207C14.2225 6.41646 13.5832 6.14398 12.9757 6.25695ZM13.683 7.48207C13.8211 7.72122 13.7391 8.02701 13.5 8.16509C13.2608 8.30316 12.9551 8.22122 12.817 7.98207C12.6789 7.74293 12.7609 7.43713 13 7.29906C13.2391 7.16099 13.5449 7.24293 13.683 7.48207Z" fill="#CFD7DF"/>
<path fill-rule="evenodd" clip-rule="evenodd" d="M14.299 3.71893L12.567 2.71893L10.5243 6.25695C9.91681 6.14398 9.27752 6.41646 8.95097 6.98207C8.53675 7.69951 8.78257 8.6169 9.50001 9.03111C10.2174 9.44532 11.1348 9.19951 11.549 8.48207C11.8756 7.91646 11.7919 7.22658 11.3903 6.75695L12.933 4.08496L13.799 4.58496L14.299 3.71893ZM10.683 7.98207C10.5449 8.22122 10.2392 8.30316 10 8.16509C9.76086 8.02701 9.67892 7.72122 9.81699 7.48207C9.95506 7.24293 10.2609 7.16099 10.5 7.29906C10.7392 7.43713 10.8211 7.74293 10.683 7.98207Z" fill="#FCD669"/>
</g>
</svg>
