<svg width="16" height="12" viewBox="0 0 16 12" fill="none" xmlns="http://www.w3.org/2000/svg">
<g opacity="0.25">
<path d="M16 10C16 11.1046 15.1046 12 14 12H2C0.895431 12 0 11.1046 0 10V2C0 0.895431 0.895431 0 2 0H14C15.1046 0 16 0.895431 16 2V10Z" fill="#43458B"/>
<path d="M13.5 0L14 0C15.1046 0 16 0.895431 16 2L13.5 4H16V8H13.5L16 9.5V10C16 11.1046 15.1046 12 14 12H13L10 9.5V12H6V9.5L2.5 12H2C0.895431 12 0 11.1046 0 10L2.5 8H0V4H2.5L0 2C0 0.895431 0.895431 0 2 0H2.5L6 2.5V0L10 0V2.5L13.5 0Z" fill="#F6F9FC"/>
<path fill-rule="evenodd" clip-rule="evenodd" d="M13.7639 0H14C15.1046 0 16 0.89543 16 2L15 2.8V2C15 1.44772 14.5523 1 14 1H12.1L13.5 0H13.7639ZM15 4H16L16 5H15V4ZM0 4V5H1V4H0ZM1 2.8L0 2C0 0.89543 0.895431 0 2 0H2.23607H2.5L3.9 1H2C1.44772 1 1 1.44772 1 2V2.8ZM6 0V1H10V0H6Z" fill="#EAEEF3"/>
<path fill-rule="evenodd" clip-rule="evenodd" d="M15 8V7H16V8H15ZM15 8.9L16 9.5V10C16 11.1046 15.1046 12 14 12H13L11.8 11H14C14.5523 11 15 10.5523 15 10V8.9ZM10 12V11H6V12H10ZM3.9 11L2.5 12H2C0.89543 12 0 11.1046 0 10L1 9.2V10C1 10.5523 1.44772 11 2 11H3.9ZM0 8H1V7H0V8Z" fill="#EAEEF3"/>
<path fill-rule="evenodd" clip-rule="evenodd" d="M9 7V12H7V7H0V5H7V0H9V5H16V7H9ZM14.7942 0.163887C15.1928 0.336538 15.5241 0.635196 15.738 1.00963L12 4H10L14.7942 0.163887ZM1.2052 0.164156C0.806855 0.336848 0.475748 0.635391 0.262032 1.00963L4 4H6L1.2052 0.164156ZM1.2052 11.8358C0.806855 11.6632 0.475748 11.3646 0.262032 10.9904L4 8H6L1.2052 11.8358ZM14.7948 11.8358C15.1931 11.6632 15.5243 11.3646 15.738 10.9904L12 8H10L14.7948 11.8358Z" fill="#E25950"/>
</g>
</svg>
