<svg width="16" height="12" viewBox="0 0 16 12" fill="none" xmlns="http://www.w3.org/2000/svg">
    <rect width="16" height="12" fill="#F5F5F5"/>
    <g opacity="0.5">
        <path d="M2 0H14C15.1046 0 16 0.89543 16 2V10C16 11.1046 15.1046 12 14 12H2C0.89543 12 0 11.1046 0 10V2C0 0.89543 0.89543 0 2 0Z" fill="#43458B"/>
        <path fill-rule="evenodd" clip-rule="evenodd" d="M9 2C9 2.55228 8.55228 3 8 3C7.44772 3 7 2.55228 7 2C7 1.44772 7.44772 1 8 1C8.55228 1 9 1.44772 9 2ZM11.5 3.5C11.5 4.05228 11.0523 4.5 10.5 4.5C9.94772 4.5 9.5 4.05228 9.5 3.5C9.5 2.94772 9.94772 2.5 10.5 2.5C11.0523 2.5 11.5 2.94772 11.5 3.5ZM12 7C12.5523 7 13 6.55228 13 6C13 5.44772 12.5523 5 12 5C11.4477 5 11 5.44772 11 6C11 6.55228 11.4477 7 12 7ZM6.5 3.5C6.5 4.05228 6.05228 4.5 5.5 4.5C4.94772 4.5 4.5 4.05228 4.5 3.5C4.5 2.94772 4.94772 2.5 5.5 2.5C6.05228 2.5 6.5 2.94772 6.5 3.5ZM8 11C8.55228 11 9 10.5523 9 10C9 9.44771 8.55228 9 8 9C7.44772 9 7 9.44771 7 10C7 10.5523 7.44772 11 8 11ZM11.5 8.5C11.5 9.05229 11.0523 9.5 10.5 9.5C9.94772 9.5 9.5 9.05229 9.5 8.5C9.5 7.94772 9.94772 7.5 10.5 7.5C11.0523 7.5 11.5 7.94772 11.5 8.5ZM5.5 9.5C6.05228 9.5 6.5 9.05229 6.5 8.5C6.5 7.94772 6.05228 7.5 5.5 7.5C4.94772 7.5 4.5 7.94772 4.5 8.5C4.5 9.05229 4.94772 9.5 5.5 9.5ZM5 6C5 6.55228 4.55228 7 4 7C3.44772 7 3 6.55228 3 6C3 5.44772 3.44772 5 4 5C4.55228 5 5 5.44772 5 6Z" fill="#FCD669"/>
    </g>
</svg>
