<svg width="16" height="12" viewBox="0 0 16 12" fill="none" xmlns="http://www.w3.org/2000/svg">
<rect width="16" height="12" fill="#F5F5F5"/>
<g opacity="0.5">
<path fill-rule="evenodd" clip-rule="evenodd" d="M14.0059 0H1.99406C0.892771 0 0 0.900099 0 2.00104H16C16 0.895898 15.1055 0 14.0059 0ZM14.0059 12C15.1072 12 16 11.1123 16 10H0C0 11.1046 0.894514 12 1.99406 12H14.0059Z" fill="#24B47E"/>
<path fill-rule="evenodd" clip-rule="evenodd" d="M16 2H0V4H16V2ZM16 8H0V10H16V8Z" fill="#FCD669"/>
<path fill-rule="evenodd" clip-rule="evenodd" d="M0 4H16V8H0V4Z" fill="#E25950"/>
<path fill-rule="evenodd" clip-rule="evenodd" d="M0 5H16V7H0V5Z" fill="#333333"/>
<path fill-rule="evenodd" clip-rule="evenodd" d="M1 2H0V4H1V2ZM15 2V4H16V2H15ZM15 10V8H16V10H15ZM1 8H0V10H1V8Z" fill="#A68527" fill-opacity="0.1"/>
<path fill-rule="evenodd" clip-rule="evenodd" d="M0.700579 11.5195C0.27208 11.1511 0 10.6033 0 9.99147L0 2.00853C0 1.39471 0.274698 0.843853 0.707309 0.474976C0.731287 0.485934 0.75471 0.498937 0.77735 0.514031L9 5.9958L0.77735 11.4776C0.752924 11.4938 0.727227 11.5079 0.700579 11.5195Z" fill="#F6F9FC"/>
<path fill-rule="evenodd" clip-rule="evenodd" d="M1.61901 1.07514C1.25571 1.22496 1 1.58262 1 2V10C1 10.4144 1.25207 10.7699 1.61126 10.9216L0.77735 11.4776C0.752924 11.4938 0.727227 11.5079 0.700579 11.5195C0.27208 11.1511 0 10.6033 0 9.99147L0 2.00853C0 1.39471 0.274698 0.843853 0.707309 0.474976C0.731287 0.485934 0.75471 0.498937 0.77735 0.514031L1.61901 1.07514Z" fill="#EAEEF3"/>
<path fill-rule="evenodd" clip-rule="evenodd" d="M3 7C3.55228 7 4 6.55228 4 6C4 5.44772 3.55228 5 3 5C2.44772 5 2 5.44772 2 6C2 6.55228 2.44772 7 3 7Z" fill="#E25950"/>
</g>
</svg>
