<svg width="16" height="12" viewBox="0 0 16 12" fill="none" xmlns="http://www.w3.org/2000/svg">
<rect width="16" height="12" fill="#F5F5F5"/>
<g clip-path="url(#clip0_0_1)">
<path d="M14 0H2C0.89543 0 0 0.89543 0 2V10C0 11.1046 0.89543 12 2 12H14C15.1046 12 16 11.1046 16 10V2C16 0.89543 15.1046 0 14 0Z" fill="#43458B"/>
<path d="M1.35 3.96H0V2.04H3V1.93L0.75 0.44C1.02237 0.223958 1.34636 0.0826458 1.69 0.03L3 0.88V0H5V2.04H5.05L8 0.0799999V1.12L6.62 2.04H8V3.96H5V4.05L7.93 5.99H6.36L5 5.09V6H3V3.96H2.92L0 5.9V4.85L1.35 3.96Z" fill="white"/>
<path d="M3 1.93V2.03H1.59L0.2 1.13C0.33 0.87 0.52 0.63 0.75 0.45L3 1.93ZM5 1.05L6.59 0H8V0.0999999L5.08 2.04H5V1.05ZM2.92 3.96H3V4.96L1.41 6H0V5.9L2.92 3.96ZM6.42 3.96L8 5.01V6H7.92L5 4.07V3.97L6.42 3.96ZM8 3.43H4.44V6H3.56V3.43H0V2.57H3.56V0H4.44V2.57H8V3.43Z" fill="#E25950"/>
<path d="M12 2.96997L10.25 5.99997H13.75L12 2.96997Z" fill="#159570"/>
<path d="M10.25 6L8.5 9.03L12 6.9L15.5 9.04L13.75 6H10.25Z" fill="#F79A59"/>
<path d="M8.5 9.03002L10.25 7.96002L11 9.03002H8.5ZM15.5 9.03002L13.75 7.96002L13 9.03002H15.5Z" fill="#159570"/>
<path d="M10.65 6H13.35V7.69C13.35 7.86728 13.3151 8.04283 13.2473 8.20662C13.1794 8.37041 13.08 8.51924 12.9546 8.64459C12.8293 8.76995 12.6804 8.86939 12.5166 8.93724C12.3529 9.00508 12.1773 9.04 12 9.04C11.8227 9.04 11.6472 9.00508 11.4834 8.93724C11.3196 8.86939 11.1708 8.76995 11.0454 8.64459C10.9201 8.51924 10.8206 8.37041 10.7528 8.20662C10.6849 8.04283 10.65 7.86728 10.65 7.69V6V6Z" fill="#45B2E8"/>
<path d="M10.65 6V7.69C10.65 7.70045 10.6501 7.7109 10.6504 7.72133L12 6.9L13.3496 7.72516C13.3499 7.71345 13.35 7.70173 13.35 7.69V6H10.65Z" fill="white"/>
</g>
<defs>
<clipPath id="clip0_0_1">
<rect width="16" height="12" fill="white"/>
</clipPath>
</defs>
</svg>
