<svg width="16" height="12" viewBox="0 0 16 12" fill="none" xmlns="http://www.w3.org/2000/svg">
<rect width="16" height="12" fill="#F5F5F5"/>
<path d="M2 0H14C15.1046 0 16 0.89543 16 2V10C16 11.1046 15.1046 12 14 12H2C0.89543 12 0 11.1046 0 10V2C0 0.89543 0.89543 0 2 0Z" fill="#43458B"/>
<path d="M10 6H14V6.5C14 7.60457 13.1046 8.5 12 8.5C10.8954 8.5 10 7.60457 10 6.5V6Z" fill="#45B2E8"/>
<path d="M10 4H14V7H10V4Z" fill="white"/>
<path d="M12 6.5C11.4477 6.5 11 6.05228 11 5.5C11 4.94772 11.4477 4.5 12 4.5C12.5523 4.5 13 4.94772 13 5.5C13 6.05228 12.5523 6.5 12 6.5Z" fill="#F4B32E"/>
<path fill-rule="evenodd" clip-rule="evenodd" d="M1.34608 3.96429H0V2.03571H3V1.92937L0.748407 0.439935C1.01503 0.225756 1.33772 0.0785189 1.69098 0.0237284L3 0.889762V0H5V2.03571H5.04568L8 0.0814286V1.12114L6.61725 2.03571H8V3.96429H5V4.04678L7.93422 5.988H6.36356L5 5.08603V6H3V3.96429H2.91804L0 5.89457V4.85486L1.34608 3.96429Z" fill="white"/>
<path fill-rule="evenodd" clip-rule="evenodd" d="M0.747518 0.440651C0.519848 0.62375 0.333119 0.855685 0.203233 1.12055L1.58686 2.03571H3V1.93089L0.747518 0.440651ZM5 3.96429H6.41281L8 5.01429V6H7.91911L5 4.06907V3.96429ZM3 3.96429V4.95104L1.41422 6H0V5.89629L2.91993 3.96429H3ZM5 2.03571H5.07952L8 0.103714V0H6.58578L5 1.04896V2.03571ZM4.44444 3.42686H8V2.57314H4.44444V0H3.55556V2.57314H0V3.42686H3.55556V6H4.44444V3.42686Z" fill="#E25950"/>
</svg>
