<svg width="16" height="12" viewBox="0 0 16 12" fill="none" xmlns="http://www.w3.org/2000/svg">
<rect width="16" height="12" fill="#F5F5F5"/>
<path fill-rule="evenodd" clip-rule="evenodd" d="M2 0H14C15.1046 0 16 0.89543 16 2V10C16 11.1046 15.1046 12 14 12H2C0.89543 12 0 11.1046 0 10V2C0 0.89543 0.89543 0 2 0Z" fill="#E25950"/>
<path fill-rule="evenodd" clip-rule="evenodd" d="M5 5H11L10 7H6L5 5Z" fill="#333333"/>
<path fill-rule="evenodd" clip-rule="evenodd" d="M6.5 2L5 4H8L6.5 2Z" fill="#333333"/>
<path fill-rule="evenodd" clip-rule="evenodd" d="M8 10L6 8H10L8 10Z" fill="#333333"/>
<path fill-rule="evenodd" clip-rule="evenodd" d="M9.5 2L8 4H11L9.5 2Z" fill="#333333"/>
</svg>
