<svg width="16" height="12" viewBox="0 0 16 12" fill="none" xmlns="http://www.w3.org/2000/svg">
<rect width="16" height="12" fill="#F5F5F5"/>
<path fill-rule="evenodd" clip-rule="evenodd" d="M2 0C0.895431 0 0 0.895431 0 2V4H16V2C16 0.895431 15.1046 0 14 0H2Z" fill="#E25950"/>
<path fill-rule="evenodd" clip-rule="evenodd" d="M0 4V8H16V4H0Z" fill="#555ABF"/>
<path fill-rule="evenodd" clip-rule="evenodd" d="M0 8V10C0 11.1046 0.895431 12 2 12H14C15.1046 12 16 11.1046 16 10V8H0Z" fill="#FCD669"/>
<path d="M15 8V10C15 10.5506 14.5527 11 14 11H2C1.4447 11 1 10.5535 1 10V8H0V10C0 11.1061 0.892771 12 2 12H14C15.1055 12 16 11.1024 16 10V8H15Z" fill="#A68527" fill-opacity="0.1"/>
</svg>
