<svg width="16" height="12" viewBox="0 0 16 12" fill="none" xmlns="http://www.w3.org/2000/svg">
<rect width="16" height="12" fill="#F5F5F5"/>
<path fill-rule="evenodd" clip-rule="evenodd" d="M0 6V10C0 11.1046 0.895431 12 2 12H14C15.1046 12 16 11.1046 16 10V6H0Z" fill="#333333"/>
<path fill-rule="evenodd" clip-rule="evenodd" d="M2 0C0.895431 0 0 0.895431 0 2V6H16V2C16 0.89543 15.1046 0 14 0H2Z" fill="#E25950"/>
<path fill-rule="evenodd" clip-rule="evenodd" d="M5.18323 8.57232C5.32889 8.65027 5.48184 8.71884 5.6416 8.77698C7.45802 9.43811 9.46647 8.50155 10.1276 6.68513C10.7887 4.86871 9.85216 2.86026 8.03574 2.19913C7.87598 2.14099 7.71473 2.0952 7.55305 2.06128C8.22256 1.9425 8.93137 1.99303 9.61629 2.24232C11.6922 2.99789 12.7625 5.29326 12.007 7.36917C11.2514 9.44508 8.95604 10.5154 6.88013 9.75986C6.19521 9.51057 5.61975 9.09366 5.18323 8.57232H5.18323Z" fill="#F4B32E"/>
<path fill-rule="evenodd" clip-rule="evenodd" d="M7 5C7.55228 5 8 4.55228 8 4C8 3.44772 7.55228 3 7 3C6.44772 3 6 3.44772 6 4C6 4.55228 6.44772 5 7 5Z" fill="#F4B32E"/>
</svg>
