<svg width="16" height="12" viewBox="0 0 16 12" fill="none" xmlns="http://www.w3.org/2000/svg">
<rect width="16" height="12" fill="#F5F5F5"/>
<path fill-rule="evenodd" clip-rule="evenodd" d="M0 2C0 0.895431 0.89543 0 2 0H5V12H2C0.895431 12 0 11.1046 0 10V2ZM11 12V0H14C15.1046 0 16 0.895431 16 2V10C16 11.1046 15.1046 12 14 12H11Z" fill="#43458B"/>
<path fill-rule="evenodd" clip-rule="evenodd" d="M5 0V12H11V0H5Z" fill="#FCD669"/>
<path fill-rule="evenodd" clip-rule="evenodd" d="M8 8L5.5 4H10.5L8 8Z" fill="#333333"/>
<path fill-rule="evenodd" clip-rule="evenodd" d="M11 0H5V1H11V0ZM5 11V12H11V11H5Z" fill="#A68527" fill-opacity="0.1"/>
</svg>
