<svg width="16" height="12" viewBox="0 0 16 12" fill="none" xmlns="http://www.w3.org/2000/svg">
<rect width="16" height="12" fill="#F5F5F5"/>
<path fill-rule="evenodd" clip-rule="evenodd" d="M2 0C0.89543 0 0 0.895431 0 2V10C0 11.1046 0.895431 12 2 12H6V0H2Z" fill="#24B47E"/>
<path fill-rule="evenodd" clip-rule="evenodd" d="M14.1409 0C15.1662 0 16 1.0192 16 2.27644V6H6V0H14.1409Z" fill="#FCD669"/>
<path d="M15 6V2C15 1.44772 14.5523 1 14 1H6V0L14 0C15.1046 0 16 0.89543 16 2V6H15Z" fill="#A68527" fill-opacity="0.1"/>
<path fill-rule="evenodd" clip-rule="evenodd" d="M16 10.2571C16 11.2183 15.1677 12 14.1409 12H6V6H16V10.2571Z" fill="#E25950"/>
</svg>
