<svg width="16" height="12" viewBox="0 0 16 12" fill="none" xmlns="http://www.w3.org/2000/svg">
<rect width="16" height="12" fill="#F5F5F5"/>
<path d="M2 0H14C15.1046 0 16 0.89543 16 2V10C16 11.1046 15.1046 12 14 12H2C0.89543 12 0 11.1046 0 10V2C0 0.89543 0.89543 0 2 0Z" fill="#FCD669"/>
<path d="M15 5V2C15 1.44772 14.5523 1 14 1H2C1.44772 1 1 1.44772 1 2H0C0 0.89543 0.89543 0 2 0L14 0C15.1046 0 16 0.89543 16 2V5H15Z" fill="#A68527" fill-opacity="0.1"/>
<path d="M1 7V10C1 10.5523 1.44772 11 2 11H14C14.5523 11 15 10.5523 15 10H16C16 11.1046 15.1046 12 14 12H2C0.89543 12 0 11.1046 0 10V7H1Z" fill="#A68527" fill-opacity="0.1"/>
<path fill-rule="evenodd" clip-rule="evenodd" d="M0 1.5L16 4.5V7.5L0 4.5V1.5Z" fill="#F6F9FC"/>
<path fill-rule="evenodd" clip-rule="evenodd" d="M1 4.6875V1.6875L0 1.5V4.5L1 4.6875ZM16 4.5L15 4.3125V7.3125L16 7.5V4.5Z" fill="#EAEEF3"/>
<path fill-rule="evenodd" clip-rule="evenodd" d="M0 4.5L16 7.5V10.5L0 7.5V4.5Z" fill="#333333"/>
<path d="M8 4C9.10457 4 10 4.89543 10 6C10 7.10457 9.10457 8 8 8C6.89543 8 6 7.10457 6 6C6 4.89543 6.89543 4 8 4Z" fill="#E25950"/>
</svg>
