<svg width="16" height="12" viewBox="0 0 16 12" fill="none" xmlns="http://www.w3.org/2000/svg">
<rect width="16" height="12" fill="#F5F5F5"/>
<path fill-rule="evenodd" clip-rule="evenodd" d="M0 3V9H16V3H0Z" fill="#FCD669"/>
<path fill-rule="evenodd" clip-rule="evenodd" d="M1 3H0V9H1V3ZM15 3V9H16V3H15Z" fill="#A68527" fill-opacity="0.1"/>
<path fill-rule="evenodd" clip-rule="evenodd" d="M1.99406 0H14.0059C15.1055 0 16 0.89543 16 2V3H0V2C0 0.88773 0.892771 0 1.99406 0ZM0 9H16V10.5C16 11.3342 15.3261 12 14.4948 12H1.50524C0.66713 12 0 11.3284 0 10.5V9ZM16 5H0V7H16V5Z" fill="#159570"/>
<path d="M0 2C0 0.89543 0.895431 0 2 0H7V7H0V2Z" fill="#E25950"/>
<path d="M5.70973 2.63667L4.27773 2.6399C4.1914 2.64003 4.11486 2.58437 4.08839 2.50219L3.64482 1.1397C3.61901 1.05662 3.54214 1 3.45514 1C3.36814 1 3.29127 1.05662 3.26547 1.1397L2.82322 2.50153C2.79674 2.58371 2.72021 2.63936 2.63388 2.63923H1.20121C1.11421 2.6381 1.0366 2.69373 1.00973 2.77648C0.982851 2.85923 1.01297 2.94985 1.08403 3.00005L2.24261 3.84217C2.31268 3.89289 2.34187 3.98313 2.31477 4.06528L1.87252 5.42776C1.8443 5.51026 1.87318 5.60152 1.94373 5.65276C2.01428 5.704 2.10999 5.70323 2.17971 5.65087L3.33829 4.87345C3.40809 4.82244 3.50286 4.82244 3.57265 4.87345L4.73189 5.65087C4.80161 5.70323 4.89733 5.704 4.96788 5.65276C5.03843 5.60152 5.06731 5.51026 5.03908 5.42776L4.59551 4.06528C4.56842 3.98313 4.5976 3.89289 4.66768 3.84217L5.82692 3.00005C5.89737 2.94966 5.92704 2.85942 5.90024 2.77705C5.87344 2.69468 5.79635 2.63595 5.70973 2.63667Z" fill="white"/>
</svg>
