<svg width="16" height="12" viewBox="0 0 16 12" fill="none" xmlns="http://www.w3.org/2000/svg">
<rect width="16" height="12" fill="#F5F5F5"/>
<g clip-path="url(#clip0_0_1)">
<path d="M2 0H14C14.5304 0 15.0391 0.210714 15.4142 0.585786C15.7893 0.960859 16 1.46957 16 2V10C16 10.5304 15.7893 11.0391 15.4142 11.4142C15.0391 11.7893 14.5304 12 14 12H2C1.46957 12 0.960859 11.7893 0.585786 11.4142C0.210714 11.0391 0 10.5304 0 10V2C0 1.46957 0.210714 0.960859 0.585786 0.585786C0.960859 0.210714 1.46957 0 2 0Z" fill="#43458B"/>
<path d="M0 7.5H16V9H0V7.5Z" fill="#FCD669"/>
<path d="M4.92006 3.51H4.18006C4.158 3.51101 4.13623 3.50469 4.11814 3.49203C4.10005 3.47936 4.08666 3.46107 4.08006 3.44L3.86006 2.74C3.86006 2.71348 3.84953 2.68804 3.83077 2.66929C3.81202 2.65053 3.78658 2.64 3.76006 2.64C3.73354 2.64 3.70811 2.65053 3.68935 2.66929C3.6706 2.68804 3.66006 2.71348 3.66006 2.74L3.44006 3.44C3.43346 3.46107 3.42007 3.47936 3.40198 3.49203C3.38389 3.50469 3.36212 3.51101 3.34006 3.51H2.60006C2.57564 3.50456 2.55006 3.50847 2.52838 3.52097C2.5067 3.53346 2.4905 3.55363 2.48296 3.57749C2.47543 3.60135 2.47711 3.62717 2.48768 3.64985C2.49825 3.67253 2.51694 3.69042 2.54006 3.7L3.14006 4.13C3.15567 4.14309 3.16691 4.16064 3.17228 4.1803C3.17764 4.19996 3.17687 4.22079 3.17006 4.24L2.95006 4.94C2.93415 4.96122 2.92732 4.98788 2.93107 5.01414C2.93482 5.0404 2.94885 5.06409 2.97006 5.08C2.99128 5.09591 3.01795 5.10274 3.0442 5.09899C3.07046 5.09524 3.09415 5.08122 3.11006 5.06L3.70006 4.66C3.71737 4.64702 3.73843 4.64 3.76006 4.64C3.7817 4.64 3.80275 4.64702 3.82006 4.66L4.42006 5.06C4.43777 5.07248 4.45906 5.07887 4.48071 5.07821C4.50237 5.07755 4.52322 5.06988 4.54014 5.05635C4.55706 5.04281 4.56912 5.02415 4.57452 5.00317C4.57992 4.98218 4.57835 4.96002 4.57006 4.94L4.35006 4.24C4.34326 4.22079 4.34249 4.19996 4.34785 4.1803C4.35321 4.16064 4.36445 4.14309 4.38006 4.13L4.98006 3.7C5.00318 3.69042 5.02187 3.67253 5.03244 3.64985C5.04301 3.62717 5.0447 3.60135 5.03716 3.57749C5.02963 3.55363 5.01342 3.53346 4.99174 3.52097C4.97006 3.50847 4.94449 3.50456 4.92006 3.51ZM2.80006 1.63H2.26006C2.24484 1.6292 2.23017 1.62407 2.21777 1.61521C2.20537 1.60635 2.19576 1.59413 2.19006 1.58L2.00006 1.05C1.99314 1.03749 1.983 1.02707 1.97069 1.01981C1.95838 1.01256 1.94435 1.00873 1.93006 1.00873C1.91577 1.00873 1.90174 1.01256 1.88943 1.01981C1.87712 1.02707 1.86698 1.03749 1.86006 1.05L1.69006 1.58C1.68437 1.59413 1.67476 1.60635 1.66236 1.61521C1.64995 1.62407 1.63528 1.6292 1.62006 1.63H1.07006C1.05406 1.63057 1.0386 1.63593 1.02568 1.64539C1.01275 1.65484 1.00297 1.66796 0.997581 1.68304C0.992195 1.69812 0.991459 1.71447 0.995467 1.72997C0.999475 1.74547 1.00804 1.75942 1.02006 1.77L1.47006 2.09C1.49006 2.11 1.50006 2.14 1.49006 2.18L1.32006 2.7C1.31796 2.71492 1.32011 2.73014 1.32627 2.74389C1.33244 2.75765 1.34236 2.76938 1.3549 2.77774C1.36744 2.7861 1.38209 2.79075 1.39716 2.79115C1.41222 2.79155 1.4271 2.78768 1.44006 2.78L1.89006 2.48C1.90333 2.47097 1.91901 2.46614 1.93506 2.46614C1.95111 2.46614 1.96679 2.47097 1.98006 2.48L2.42006 2.78C2.43303 2.78768 2.4479 2.79155 2.46297 2.79115C2.47804 2.79075 2.49268 2.7861 2.50522 2.77774C2.51776 2.76938 2.52769 2.75765 2.53385 2.74389C2.54002 2.73014 2.54217 2.71492 2.54006 2.7L2.37006 2.18C2.36481 2.16376 2.36489 2.14626 2.37028 2.13007C2.37568 2.11388 2.38612 2.09984 2.40006 2.09L2.84006 1.77C2.85174 1.76004 2.86032 1.74694 2.86476 1.73224C2.86919 1.71755 2.86931 1.70189 2.86509 1.68713C2.86088 1.67237 2.8525 1.65914 2.84097 1.64901C2.82944 1.63888 2.81524 1.63228 2.80006 1.63Z" fill="#F6F9FC"/>
</g>
<defs>
<clipPath id="clip0_0_1">
<rect width="16" height="12" fill="white"/>
</clipPath>
</defs>
</svg>
