<svg width="16" height="12" viewBox="0 0 16 12" fill="none" xmlns="http://www.w3.org/2000/svg">
<rect width="16" height="12" fill="#F5F5F5"/>
<path d="M2 0H14C15.1046 0 16 0.89543 16 2V10C16 11.1046 15.1046 12 14 12H2C0.89543 12 0 11.1046 0 10V2C0 0.89543 0.89543 0 2 0Z" fill="#F6F9FC"/>
<path d="M6.5 7C6.49999 7.8282 7.17124 8.49972 7.9995 8.5C8.5354 8.50018 9.03068 8.21445 9.29879 7.75043C9.43293 7.51828 9.5 7.25914 9.5 7H10.5C10.5 7.4319 10.3882 7.8638 10.1646 8.25072C9.71781 9.02408 8.89233 9.5003 7.99917 9.5C6.61873 9.49954 5.49999 8.38033 5.5 7L6.5 7Z" fill="#24B47E"/>
<path fill-rule="evenodd" clip-rule="evenodd" d="M6 4L10 3V5L6 6V4Z" fill="#F79A59"/>
<path fill-rule="evenodd" clip-rule="evenodd" d="M2 12H14C15.1046 12 16 11.1046 16 10V2C16 0.89543 15.1046 0 14 0H2C0.89543 0 0 0.89543 0 2V10C0 11.1046 0.89543 12 2 12ZM14 1C14.5523 1 15 1.44772 15 2V10C15 10.5523 14.5523 11 14 11H2C1.44772 11 1 10.5523 1 10V2C1 1.44772 1.44772 1 2 1H14Z" fill="#EAEEF3"/>
</svg>
