<svg width="16" height="12" viewBox="0 0 16 12" fill="none" xmlns="http://www.w3.org/2000/svg">
<rect width="16" height="12" fill="#F5F5F5"/>
<path fill-rule="evenodd" clip-rule="evenodd" d="M2 0C0.895431 0 0 0.895431 0 2V10C0 11.1046 0.895431 12 2 12H14C15.1046 12 16 11.1046 16 10V2C16 0.895431 15.1046 0 14 0H2Z" fill="#F6F9FC"/>
<path d="M1.50983 1.12817L0.8 0.595798C0.755057 0.562091 0.706287 0.537094 0.655711 0.520519C0.252973 0.888419 0 1.41948 0 2.00853L0 2C0 0.89543 0.89543 0 2 0L14 0C15.1046 0 16 0.89543 16 2V6H15V2C15 1.44772 14.5523 1 14 1H2C1.8219 1 1.65467 1.04656 1.50983 1.12817Z" fill="#EAEEF3"/>
<path fill-rule="evenodd" clip-rule="evenodd" d="M0 6V10C0 11.1046 0.895431 12 2 12H14C15.1046 12 16 11.1046 16 10V6H0Z" fill="#E25950"/>
<path fill-rule="evenodd" clip-rule="evenodd" d="M0.648548 11.4732C0.250176 11.106 0 10.5781 0 9.99146L0 2.00852C0 1.41947 0.252973 0.888408 0.655711 0.520508C0.706287 0.537083 0.755057 0.56208 0.8 0.595787L8 5.99579L0.8 11.3958C0.754011 11.4303 0.702737 11.4563 0.648548 11.4732Z" fill="#43458B"/>
</svg>
