<svg width="16" height="12" viewBox="0 0 16 12" fill="none" xmlns="http://www.w3.org/2000/svg">
<rect width="16" height="12" fill="#F5F5F5"/>
<path d="M0 4H16V8H0V4Z" fill="#E25950"/>
<path d="M0 10.4V8H16V10.4C16 11.2837 15.3178 12 14.4762 12H1.52381C0.682233 12 0 11.2837 0 10.4Z" fill="#FCD669"/>
<path d="M15 8V10C15 10.5523 14.5523 11 14 11H2C1.44772 11 1 10.5523 1 10V8H0V10C0 11.3917 0.475525 12 2 12H14C15.5786 12 16 11.2668 16 10V8H15Z" fill="#A68527" fill-opacity="0.1"/>
<path d="M16 1.6V4H0V1.6C0 0.716344 0.682233 0 1.52381 0H14.4762C15.3178 0 16 0.716344 16 1.6Z" fill="#333333"/>
</svg>
