<svg width="16" height="12" viewBox="0 0 16 12" fill="none" xmlns="http://www.w3.org/2000/svg">
<rect width="16" height="12" fill="#F5F5F5"/>
<path fill-rule="evenodd" clip-rule="evenodd" d="M2 0C0.895431 0 0 0.895431 0 2V10C0 11.1046 0.895431 12 2 12H14C15.1046 12 16 11.1046 16 10V2C16 0.895431 15.1046 0 14 0H2Z" fill="#45B2E8"/>
<path fill-rule="evenodd" clip-rule="evenodd" d="M0 6V10C0 11.1046 0.895431 12 2 12H14C15.1046 12 16 11.1046 16 10V6H0Z" fill="#24B47E"/>
<path fill-rule="evenodd" clip-rule="evenodd" d="M0.700579 11.5195C0.27208 11.1511 0 10.6033 0 9.99147L0 2.00853C0 1.39471 0.274698 0.843853 0.707309 0.474976C0.731287 0.485934 0.75471 0.498937 0.77735 0.514031L9 5.9958L0.77735 11.4776C0.752924 11.4938 0.727227 11.5079 0.700579 11.5195Z" fill="#F6F9FC"/>
<path fill-rule="evenodd" clip-rule="evenodd" d="M1.61901 1.07514C1.25571 1.22496 1 1.58262 1 2V10C1 10.4144 1.25207 10.7699 1.61126 10.9216L0.77735 11.4776C0.752924 11.4938 0.727227 11.5079 0.700579 11.5195C0.27208 11.1511 0 10.6033 0 9.99147L0 2.00853C0 1.39471 0.274698 0.843853 0.707309 0.474976C0.731287 0.485934 0.75471 0.498937 0.77735 0.514031L1.61901 1.07514V1.07514Z" fill="#EAEEF3"/>
<path fill-rule="evenodd" clip-rule="evenodd" d="M4 7C4.55228 7 5 6.55228 5 6C5 5.44772 4.55228 5 4 5C3.44772 5 3 5.44772 3 6C3 6.55228 3.44772 7 4 7Z" fill="#E25950"/>
</svg>
