<svg width="16" height="12" viewBox="0 0 16 12" fill="none" xmlns="http://www.w3.org/2000/svg">
<rect width="16" height="12" fill="#F5F5F5"/>
<rect width="16" height="12" rx="2" fill="#159570"/>
<rect x="6" width="1" height="12" fill="#FCD669"/>
<rect y="4" width="16" height="1" fill="#FCD669"/>
<rect y="7" width="16" height="1" fill="#F6F9FC"/>
<rect y="5" width="16" height="2" fill="#333333"/>
<rect x="7" width="2" height="12" fill="#333333"/>
<rect x="9" width="1" height="12" fill="#F6F9FC"/>
<path d="M8 3C9.65685 3 11 4.34315 11 6C11 7.65685 9.65685 9 8 9C6.34315 9 5 7.65685 5 6C5 4.34315 6.34315 3 8 3Z" fill="#E25950"/>
<path fill-rule="evenodd" clip-rule="evenodd" d="M7 0H6V1H7V0ZM7 11H6V12H7V11ZM0 4H1V5H0V4ZM16 4H15V5H16V4Z" fill="#A68527" fill-opacity="0.1"/>
<path fill-rule="evenodd" clip-rule="evenodd" d="M10 0H9V1H10V0ZM10 11H9V12H10V11ZM0 7H1V8H0V7ZM16 7H15V8H16V7Z" fill="#EAEEF3"/>
</svg>
