<svg width="16" height="12" viewBox="0 0 16 12" fill="none" xmlns="http://www.w3.org/2000/svg">
<rect width="16" height="12" fill="#F5F5F5"/>
<path fill-rule="evenodd" clip-rule="evenodd" d="M8 0V12H14C15.1046 12 16 11.1046 16 10V2C16 0.895431 15.1046 0 14 0H8Z" fill="#F6F9FC"/>
<path fill-rule="evenodd" clip-rule="evenodd" d="M2 0C0.895431 0 0 0.895431 0 2V10C0 11.1046 0.895431 12 2 12H8V0H2Z" fill="#24B47E"/>
<path fill-rule="evenodd" clip-rule="evenodd" d="M8 9C9.152 9 10.1523 8.35068 10.655 7.39806C10.2172 7.96591 9.51942 8.33333 8.73333 8.33333C7.40785 8.33333 6.33333 7.28866 6.33333 6C6.33333 4.71134 7.40785 3.66667 8.73333 3.66667C9.51942 3.66667 10.2172 4.03409 10.655 4.60194C10.1523 3.64932 9.152 3 8 3C6.34315 3 5 4.34315 5 6C5 7.65685 6.34315 9 8 9ZM11 6C11 6.55228 10.5523 7 10 7C9.44772 7 9 6.55228 9 6C9 5.44772 9.44772 5 10 5C10.5523 5 11 5.44772 11 6Z" fill="#E25950"/>
<path d="M14 1C14.5523 1 15 1.44772 15 2V10C15 10.5523 14.5523 11 14 11H8V12H14C15.1046 12 16 11.1046 16 10V2C16 0.89543 15.1046 0 14 0H8V1H14Z" fill="#EAEEF3"/>
</svg>
