<svg width="16" height="12" viewBox="0 0 16 12" fill="none" xmlns="http://www.w3.org/2000/svg">
<rect width="16" height="12" fill="#F5F5F5"/>
<path fill-rule="evenodd" clip-rule="evenodd" d="M2 0C0.895431 0 0 0.895431 0 2V10C0 11.1046 0.895431 12 2 12H14C15.1046 12 16 11.1046 16 10V2C16 0.895431 15.1046 0 14 0H2Z" fill="#E25950"/>
<rect x="2" y="2" width="12" height="8" fill="#FCD669"/>
<path fill-rule="evenodd" clip-rule="evenodd" d="M2 2L8 6L2 10V2ZM8 6L14 10V2L8 6ZM5 6C5 5.44772 4.55228 5 4 5C3.44772 5 3 5.44772 3 6C3 6.55228 3.44772 7 4 7C4.55228 7 5 6.55228 5 6Z" fill="#159570"/>
<path d="M8 4C9.10457 4 10 4.89543 10 6C10 7.10457 9.10457 8 8 8C6.89543 8 6 7.10457 6 6C6 4.89543 6.89543 4 8 4Z" fill="#E25950"/>
<path fill-rule="evenodd" clip-rule="evenodd" d="M8 5C8.55228 5 9 5.44772 9 6C9 6.55228 8.55228 7 8 7C7.44772 7 7 6.55228 7 6C7 5.44772 7.44772 5 8 5Z" fill="#FCD669"/>
<path fill-rule="evenodd" clip-rule="evenodd" d="M3.5 1C3.5 0.723858 3.72386 0.5 4 0.5C4.27614 0.5 4.5 0.723858 4.5 1C4.5 1.27614 4.27614 1.5 4 1.5C3.72386 1.5 3.5 1.27614 3.5 1ZM7.5 1C7.5 0.723858 7.72386 0.5 8 0.5C8.27614 0.5 8.5 0.723858 8.5 1C8.5 1.27614 8.27614 1.5 8 1.5C7.72386 1.5 7.5 1.27614 7.5 1ZM12 0.5C11.7239 0.5 11.5 0.723858 11.5 1C11.5 1.27614 11.7239 1.5 12 1.5C12.2761 1.5 12.5 1.27614 12.5 1C12.5 0.723858 12.2761 0.5 12 0.5ZM3.5 11C3.5 10.7239 3.72386 10.5 4 10.5C4.27614 10.5 4.5 10.7239 4.5 11C4.5 11.2761 4.27614 11.5 4 11.5C3.72386 11.5 3.5 11.2761 3.5 11ZM8 10.5C7.72386 10.5 7.5 10.7239 7.5 11C7.5 11.2761 7.72386 11.5 8 11.5C8.27614 11.5 8.5 11.2761 8.5 11C8.5 10.7239 8.27614 10.5 8 10.5ZM11.5 11C11.5 10.7239 11.7239 10.5 12 10.5C12.2761 10.5 12.5 10.7239 12.5 11C12.5 11.2761 12.2761 11.5 12 11.5C11.7239 11.5 11.5 11.2761 11.5 11Z" fill="#FCD669"/>
</svg>
