<svg width="16" height="12" viewBox="0 0 16 12" fill="none" xmlns="http://www.w3.org/2000/svg">
<rect width="16" height="12" fill="#F5F5F5"/>
<path fill-rule="evenodd" clip-rule="evenodd" d="M2 12H14C15.1046 12 16 11.1046 16 10V2C16 0.89543 15.1046 0 14 0H2C0.89543 0 0 0.89543 0 2V10C0 11.1046 0.89543 12 2 12ZM14 1C14.5523 1 15 1.44772 15 2V10C15 10.5523 14.5523 11 14 11H2C1.44772 11 1 10.5523 1 10V2C1 1.44772 1.44772 1 2 1H14Z" fill="#EAEEF3"/>
<path d="M16 7H9V12H7V7H0V5H7V0H9V5H16V7Z" fill="#E25950"/>
<path fill-rule="evenodd" clip-rule="evenodd" d="M3 1V2H2V3H3V4H4V3H5V2H4V1H3ZM12 1V2H11V3H12V4H13V3H14V2H13V1H12ZM12 9V8H13V9H14V10H13V11H12V10H11V9H12ZM3 8V9H2V10H3V11H4V10H5V9H4V8H3Z" fill="#E25950"/>
</svg>
