<svg width="16" height="12" viewBox="0 0 16 12" fill="none" xmlns="http://www.w3.org/2000/svg">
<rect width="16" height="12" fill="#F5F5F5"/>
<path fill-rule="evenodd" clip-rule="evenodd" d="M2 0C0.895431 0 0 0.895431 0 2V4H16V2C16 0.895431 15.1046 0 14 0H2Z" fill="#E25950"/>
<path fill-rule="evenodd" clip-rule="evenodd" d="M0 4H16V8H0V4Z" fill="#FCD669"/>
<path fill-rule="evenodd" clip-rule="evenodd" d="M1 4H0V8H1V4ZM15 4V8H16V4H15Z" fill="#A68527" fill-opacity="0.1"/>
<path fill-rule="evenodd" clip-rule="evenodd" d="M0 8V10C0 11.1046 0.895431 12 2 12H14C15.1046 12 16 11.1046 16 10V8H0Z" fill="#24B47E"/>
<path d="M10.2961 5.16667L8.83781 5.16996C8.74989 5.17009 8.67196 5.11341 8.645 5.02973L8.1933 3.64226C8.16702 3.55766 8.08874 3.5 8.00014 3.5C7.91155 3.5 7.83327 3.55766 7.80699 3.64226L7.35664 5.02905C7.32968 5.11273 7.25174 5.16941 7.16382 5.16928H5.7049C5.6163 5.16813 5.53727 5.22477 5.50991 5.30904C5.48254 5.39331 5.5132 5.48559 5.58557 5.53671L6.76538 6.39427C6.83674 6.44591 6.86647 6.53781 6.83887 6.62146L6.38852 8.00893C6.35978 8.09293 6.38918 8.18587 6.46103 8.23805C6.53287 8.29022 6.63034 8.28944 6.70134 8.23612L7.88115 7.44445C7.95223 7.39251 8.04874 7.39251 8.11981 7.44445L9.3003 8.23612C9.3713 8.28944 9.46877 8.29022 9.54061 8.23805C9.61245 8.18587 9.64186 8.09293 9.61312 8.00893L9.16142 6.62146C9.13382 6.53781 9.16355 6.44591 9.2349 6.39427L10.4154 5.53671C10.4871 5.48539 10.5174 5.3935 10.4901 5.30962C10.4628 5.22575 10.3843 5.16594 10.2961 5.16667Z" fill="#333333"/>
</svg>
