<svg width="16" height="12" viewBox="0 0 16 12" fill="none" xmlns="http://www.w3.org/2000/svg">
<rect width="16" height="12" fill="#F5F5F5"/>
<path fill-rule="evenodd" clip-rule="evenodd" d="M2 0C0.895431 0 0 0.895431 0 2V8H16V2C16 0.895431 15.1046 0 14 0H2Z" fill="#F6F9FC"/>
<path d="M14 0C15.1046 0 16 0.89543 16 2V8H15V2C15 1.44772 14.5523 1 14 1H2C1.44772 1 1 1.44772 1 2V8H0V2C0 0.89543 0.89543 0 2 0H14Z" fill="#EAEEF3"/>
<path fill-rule="evenodd" clip-rule="evenodd" d="M0 8V10C0 11.1046 0.895431 12 2 12H14C15.1046 12 16 11.1046 16 10V8H0Z" fill="#E25950"/>
<path fill-rule="evenodd" clip-rule="evenodd" d="M4 6V4V3H6V4H7V3H9V4H10V3H12V4V6H4Z" fill="#E25950"/>
<path fill-rule="evenodd" clip-rule="evenodd" d="M9.41424 8L8.00003 6.58578L6.58582 8L7.50003 8.91421V11H8.50003V8.91421L9.41424 8Z" fill="#F4B32E"/>
</svg>
