<svg width="16" height="12" viewBox="0 0 16 12" fill="none" xmlns="http://www.w3.org/2000/svg">
<rect width="16" height="12" fill="#F5F5F5"/>
<path fill-rule="evenodd" clip-rule="evenodd" d="M0 2C0 0.895431 0.89543 0 2 0H5V12H2C0.895431 12 0 11.1046 0 10V2ZM11 12V0H14C15.1046 0 16 0.895431 16 2V10C16 11.1046 15.1046 12 14 12H11Z" fill="#45B2E8"/>
<path fill-rule="evenodd" clip-rule="evenodd" d="M5 0V12H11V0H5Z" fill="#F6F9FC"/>
<path fill-rule="evenodd" clip-rule="evenodd" d="M11 0H5V1H11V0ZM5 11V12H11V11H5Z" fill="#EAEEF3"/>
<path d="M8 7.5C7.17157 7.5 6.5 6.82843 6.5 6C6.5 5.17157 7.17157 4.5 8 4.5C8.82843 4.5 9.5 5.17157 9.5 6C9.5 6.82843 8.82843 7.5 8 7.5Z" fill="#24B47E"/>
</svg>
