<svg width="16" height="12" viewBox="0 0 16 12" fill="none" xmlns="http://www.w3.org/2000/svg">
<rect width="16" height="12" fill="#F5F5F5"/>
<path fill-rule="evenodd" clip-rule="evenodd" d="M0 2C0 0.895431 0.895431 0 2 0H14C15.1046 0 16 0.895431 16 2V4H0V2ZM0 10V8H16V10C16 11.1046 15.1046 12 14 12H2C0.895431 12 0 11.1046 0 10Z" fill="#45B2E8"/>
<path fill-rule="evenodd" clip-rule="evenodd" d="M0 4V8H16V4H0Z" fill="#F6F9FC"/>
<path fill-rule="evenodd" clip-rule="evenodd" d="M1 4H0V8H1V4ZM15 4V8H16V4H15Z" fill="#EAEEF3"/>
<path fill-rule="evenodd" clip-rule="evenodd" d="M5.5 4.5C5.22386 4.5 5 4.72386 5 5C5 5.27614 5.22386 5.5 5.5 5.5C5.77614 5.5 6 5.27614 6 5C6 4.72386 5.77614 4.5 5.5 4.5ZM8 5.5C7.72386 5.5 7.5 5.72386 7.5 6C7.5 6.27614 7.72386 6.5 8 6.5C8.27614 6.5 8.5 6.27614 8.5 6C8.5 5.72386 8.27614 5.5 8 5.5ZM5 7C5 6.72386 5.22386 6.5 5.5 6.5C5.77614 6.5 6 6.72386 6 7C6 7.27614 5.77614 7.5 5.5 7.5C5.22386 7.5 5 7.27614 5 7ZM10.5 6.5C10.2239 6.5 10 6.72386 10 7C10 7.27614 10.2239 7.5 10.5 7.5C10.7761 7.5 11 7.27614 11 7C11 6.72386 10.7761 6.5 10.5 6.5ZM10 5C10 4.72386 10.2239 4.5 10.5 4.5C10.7761 4.5 11 4.72386 11 5C11 5.27614 10.7761 5.5 10.5 5.5C10.2239 5.5 10 5.27614 10 5Z" fill="#45B2E8"/>
</svg>
