<svg width="16" height="12" viewBox="0 0 16 12" fill="none" xmlns="http://www.w3.org/2000/svg">
<rect width="16" height="12" fill="#F5F5F5"/>
<path fill-rule="evenodd" clip-rule="evenodd" d="M2 0C0.895431 0 0 0.895431 0 2V6H16V2C16 0.89543 15.1046 0 14 0H2Z" fill="#43458B"/>
<path fill-rule="evenodd" clip-rule="evenodd" d="M0 6V10C0 11.1046 0.895431 12 2 12H14C15.1046 12 16 11.1046 16 10V6H0Z" fill="#E25950"/>
<path fill-rule="evenodd" clip-rule="evenodd" d="M4 4V8H12V4H4Z" fill="white"/>
<path fill-rule="evenodd" clip-rule="evenodd" d="M11.4382 8H4.36182C5.22228 7.39278 6.55241 7 7.90003 7C9.24766 7 10.5778 7.39278 11.4382 8V8ZM7.00004 5H9.00004V6L8.01663 7L7.00004 6V5Z" fill="#24B47E"/>
<path fill-rule="evenodd" clip-rule="evenodd" d="M6 6H7V7H6V6ZM9 6H10V7H9V6ZM5 5H6V6H5V5ZM10 5H11V6H10V5Z" fill="#FCD669"/>
</svg>
