<svg width="16" height="12" viewBox="0 0 16 12" fill="none" xmlns="http://www.w3.org/2000/svg">
<rect width="16" height="12" fill="#F5F5F5"/>
<path fill-rule="evenodd" clip-rule="evenodd" d="M2 0C0.895431 0 0 0.895431 0 2V4H16V2C16 0.895431 15.1046 0 14 0H2Z" fill="#F79A59"/>
<path fill-rule="evenodd" clip-rule="evenodd" d="M0 4V8H16V4H0Z" fill="#F6F9FC"/>
<path fill-rule="evenodd" clip-rule="evenodd" d="M1 4H0V8H1V4ZM15 4V8H16V4H15Z" fill="#EAEEF3"/>
<path fill-rule="evenodd" clip-rule="evenodd" d="M0 8V10C0 11.1046 0.895431 12 2 12H14C15.1046 12 16 11.1046 16 10V8H0Z" fill="#24B47E"/>
<path d="M8 7C7.44772 7 7 6.55228 7 6C7 5.44772 7.44772 5 8 5C8.55228 5 9 5.44772 9 6C9 6.55228 8.55228 7 8 7Z" fill="#555ABF"/>
</svg>
