<svg width="16" height="12" viewBox="0 0 16 12" fill="none" xmlns="http://www.w3.org/2000/svg">
<rect width="16" height="12" fill="#F5F5F5"/>
<g clip-path="url(#clip0_0_1)">
<path d="M1.214 0.161C1.46244 0.0547928 1.72981 2.43199e-05 2 0H14C14.2702 2.43199e-05 14.5376 0.0547928 14.786 0.161L13.667 1H2.333L1.214 0.161ZM1.214 11.839C1.46244 11.9452 1.72981 12 2 12H14C14.2702 12 14.5376 11.9452 14.786 11.839L13.667 11H2.333L1.214 11.839ZM15.712 0.966C15.9004 1.27799 16 1.63553 16 2V10C16 10.3645 15.9004 10.722 15.712 11.034L15 10.5V1.5L15.712 0.966ZM0.288 0.966C0.0995778 1.27799 -8.81158e-06 1.63553 5.84774e-10 2L5.84774e-10 10C-8.81158e-06 10.3645 0.0995778 10.722 0.288 11.034L1 10.5V1.5L0.288 0.966Z" fill="#EAEEF3"/>
<path d="M2.333 1H13.667L8 5.25L2.333 1ZM2.333 11H13.667L8 6.75L2.333 11ZM15 1.5V10.5L9 6L15 1.5ZM1 1.5V10.5L7 6L1 1.5Z" fill="#F6F9FC"/>
<path d="M0.288086 0.966011C0.504785 0.607284 0.8287 0.325695 1.21409 0.161011L8.00009 5.25001L14.7861 0.161011C15.1715 0.325695 15.4954 0.607284 15.7121 0.966011L9.00009 6.00001L15.7121 11.034C15.4954 11.3927 15.1715 11.6743 14.7861 11.839L8.00009 6.75001L1.21409 11.839C0.8287 11.6743 0.504785 11.3927 0.288086 11.034L7.00009 6.00001L0.288086 0.966011Z" fill="#E25950"/>
<path d="M9.96006 2H6.03992C6.16661 3.21574 6.63509 3.42885 7.99999 4C9.36489 3.42885 9.83337 3.21574 9.96006 2Z" fill="#E25950"/>
<path d="M10 0.5H6V1C6 1.39574 6.01114 1.72375 6.03993 2H9.96007C9.98886 1.72375 10 1.39574 10 1V0.5Z" fill="#FCD669"/>
</g>
<defs>
<clipPath id="clip0_0_1">
<rect width="16" height="12" fill="white"/>
</clipPath>
</defs>
</svg>
