<svg width="16" height="12" viewBox="0 0 16 12" fill="none" xmlns="http://www.w3.org/2000/svg">
<rect width="16" height="12" fill="#F5F5F5"/>
<path fill-rule="evenodd" clip-rule="evenodd" d="M2 0C0.895431 0 0 0.895431 0 2V10C0 11.1046 0.895431 12 2 12H14C15.1046 12 16 11.1046 16 10V2C16 0.895431 15.1046 0 14 0H2Z" fill="#FCD669"/>
<path d="M2 0C0.89543 0 0 0.89543 0 2V10C0 11.1046 0.89543 12 2 12V11C1.44772 11 1 10.5523 1 10V2C1 1.44772 1.44772 1 2 1V0Z" fill="#A68527" fill-opacity="0.1"/>
<path d="M14 0C15.1046 0 16 0.89543 16 2V10C16 11.1046 15.1046 12 14 12V11C14.5523 11 15 10.5523 15 10V2C15 1.44772 14.5523 1 14 1V0Z" fill="#A68527" fill-opacity="0.1"/>
<path fill-rule="evenodd" clip-rule="evenodd" d="M14.006 0H1.99408C1.52887 0 1.10086 0.160948 0.761646 0.430279C0.793617 0.451804 0.82913 0.473777 0.868213 0.49611L8.00002 4.5L15.4292 0.602408C15.0671 0.230645 14.5628 0 14.006 0ZM0.761475 11.5698C1.10095 11.8392 1.52919 12 1.99408 12H14.006C14.4712 12 14.8992 11.839 15.2384 11.5697C15.2064 11.5482 15.1709 11.5262 15.1318 11.5039L8.00095 7.5L0.868213 11.5039C0.829061 11.5263 0.79349 11.5483 0.761475 11.5698Z" fill="#24B47E"/>
<path fill-rule="evenodd" clip-rule="evenodd" d="M0 3L6 6L0 9V3ZM16 3V9L10 6L16 3Z" fill="#333333"/>
</svg>
