<svg width="16" height="12" viewBox="0 0 16 12" fill="none" xmlns="http://www.w3.org/2000/svg">
<rect width="16" height="12" fill="#F5F5F5"/>
<path fill-rule="evenodd" clip-rule="evenodd" d="M2 0C0.895431 0 0 0.895431 0 2V10C0 11.1046 0.895431 12 2 12H14C15.1046 12 16 11.1046 16 10V2C16 0.895431 15.1046 0 14 0H2Z" fill="#FCD669"/>
<path d="M15 5V2C15 1.44772 14.5523 1 14 1H2C1.44772 1 1 1.44772 1 2H0C0 0.89543 0.89543 0 2 0L14 0C15.1046 0 16 0.89543 16 2V5H15Z" fill="#A68527" fill-opacity="0.1"/>
<path fill-rule="evenodd" clip-rule="evenodd" d="M0 9H16V10C16 11.1123 15.1072 12 14.0059 12H1.99406C0.894514 12 0 11.1046 0 10V9Z" fill="#217AB7"/>
<path fill-rule="evenodd" clip-rule="evenodd" d="M0 3V6H16V3H0Z" fill="#F6F9FC"/>
<path fill-rule="evenodd" clip-rule="evenodd" d="M0 6V9H16V6H0Z" fill="#E25950"/>
<path d="M15 6V3H16V6H15Z" fill="#EAEEF3"/>
<path fill-rule="evenodd" clip-rule="evenodd" d="M0.648548 11.4732C0.250176 11.106 0 10.5781 0 9.99146L0 2.00852C0 1.41947 0.252973 0.888408 0.655711 0.520508C0.706287 0.537083 0.755057 0.56208 0.8 0.595787L8 5.99579L0.8 11.3958C0.754011 11.4303 0.702737 11.4563 0.648548 11.4732Z" fill="#24B47E"/>
<path fill-rule="evenodd" clip-rule="evenodd" d="M4 4.26774C3.91824 4.25603 3.83466 4.24997 3.74967 4.24997C2.78329 4.24997 1.99988 5.03338 1.99988 5.99976C1.99988 6.96614 2.78329 7.74955 3.74967 7.74955C3.83466 7.74955 3.91824 7.74349 4 7.73178C3.70578 7.90205 3.36415 7.99952 2.99976 7.99952C1.89532 7.99952 1 7.10419 1 5.99976C1 4.89532 1.89532 4 2.99976 4C3.36415 4 3.70578 4.09746 4 4.26774V4.26774Z" fill="white"/>
</svg>
