<svg width="16" height="12" viewBox="0 0 16 12" fill="none" xmlns="http://www.w3.org/2000/svg">
<rect width="16" height="12" fill="#F5F5F5"/>
<path d="M2 0H14C15.1046 0 16 0.89543 16 2V10C16 11.1046 15.1046 12 14 12H2C0.89543 12 0 11.1046 0 10V2C0 0.89543 0.89543 0 2 0Z" fill="#F6F9FC"/>
<path fill-rule="evenodd" clip-rule="evenodd" d="M0 2C0 0.895431 0.895431 0 2 0H14C15.1046 0 16 0.895431 16 2V10C16 11.1046 15.1046 12 14 12H2C0.895431 12 0 11.1046 0 10V2ZM1 2C1 1.44772 1.44772 1 2 1H14C14.5523 1 15 1.44772 15 2V10C15 10.5523 14.5523 11 14 11H2C1.44772 11 1 10.5523 1 10V2Z" fill="#EAEEF3"/>
<path fill-rule="evenodd" clip-rule="evenodd" d="M2.5 4V3.79289L3.79289 2H5V2.20711L3.70711 4H2.5ZM11 2V2.20711L12.2929 4H13.5V3.79289L12.2071 2H11ZM11 9.79289V10H12.2071L13.5 8.20711V8H12.2929L11 9.79289ZM2.5 8V8.20711L3.79289 10H5V9.79289L3.70711 8H2.5Z" fill="#333333"/>
<path fill-rule="evenodd" clip-rule="evenodd" d="M5 6C5 4.34315 6.34315 3 8 3C9.65685 3 11 4.34315 11 6C11 6.46011 10.8964 6.89603 10.7113 7.28571H5.2887C5.10358 6.89603 5 6.46011 5 6Z" fill="#E25950"/>
<path fill-rule="evenodd" clip-rule="evenodd" d="M9.4358 5.34552C10.4226 5.34552 10.8309 6.02257 10.9553 6.51872C10.7129 7.9094 9.51288 8.97112 8.0596 8.99943C6.87915 8.97751 5.85929 8.33614 5.34865 7.40493C5.12968 6.99255 5.00411 6.523 5.00012 6.02448C5.00403 5.55326 5.12471 5.10833 5.33615 4.71429C5.33818 4.75483 5.33929 4.79867 5.33929 4.84608C5.33928 5.424 5.33685 6.63278 6.78978 6.63278C8.2427 6.63278 8.2002 5.34552 9.4358 5.34552Z" fill="#43458B"/>
</svg>
