<svg width="16" height="12" viewBox="0 0 16 12" fill="none" xmlns="http://www.w3.org/2000/svg">
<rect width="16" height="12" fill="#F5F5F5"/>
<path d="M14 12H2C0.89543 12 0 11.1046 0 10V6L0 2C0 0.89543 0.895431 0 2 0H8H14C15.1046 0 16 0.89543 16 2V10C16 11.1046 15.1046 12 14 12Z" fill="#E25950"/>
<path fill-rule="evenodd" clip-rule="evenodd" d="M15.723 1H6V2H16C16 1.634 15.894 1.295 15.723 1ZM6 3H16V4H6V3ZM16 5H6V6H16V5ZM0 7H16V8H0V7ZM16 9H0V10H16V9ZM2 12H14C14.7403 12 15.3866 11.5978 15.7324 11H0.267564C0.613374 11.5978 1.25972 12 2 12Z" fill="#F6F9FC"/>
<path opacity="0.1" d="M14 12H2C0.89543 12 0 11.1046 0 10V6H1V10C1 10.5523 1.44772 11 2 11H14C14.5523 11 15 10.5523 15 10V2C15 1.44772 14.5523 1 14 1H8V0H14C15.1046 0 16 0.89543 16 2V10C16 11.1046 15.1046 12 14 12Z" fill="#E25950"/>
<path d="M0 6V1.71429C0 0.767512 0.795938 0 1.77778 0H6V6H0Z" fill="#43458B"/>
<path d="M4.74715 2.30216L3.60782 2.30473C3.53913 2.30483 3.47824 2.26055 3.45718 2.19517L3.10426 1.11115C3.08373 1.04505 3.02257 1 2.95335 1C2.88414 1 2.82298 1.04505 2.80245 1.11115L2.45059 2.19464C2.42952 2.26002 2.36863 2.30431 2.29994 2.3042H1.16009C1.09087 2.3033 1.02912 2.34756 1.00774 2.4134C0.986356 2.47924 1.01032 2.55133 1.06686 2.59127L1.98864 3.26128C2.04439 3.30163 2.06761 3.37343 2.04605 3.43879L1.6942 4.52281C1.67174 4.58845 1.69472 4.66105 1.75085 4.70182C1.80698 4.74259 1.88313 4.74198 1.9386 4.70032L2.86039 4.08178C2.91592 4.04121 2.99132 4.04121 3.04685 4.08178L3.96916 4.70032C4.02463 4.74198 4.10079 4.74259 4.15692 4.70182C4.21305 4.66105 4.23602 4.58845 4.21357 4.52281L3.86065 3.43879C3.83909 3.37343 3.86232 3.30163 3.91807 3.26128L4.84038 2.59127C4.89643 2.55118 4.92004 2.47939 4.89872 2.41385C4.8774 2.34832 4.81606 2.30159 4.74715 2.30216Z" fill="white"/>
</svg>
