<svg width="16" height="12" viewBox="0 0 16 12" fill="none" xmlns="http://www.w3.org/2000/svg">
<rect width="16" height="12" fill="#F5F5F5"/>
<g clip-path="url(#clip0_0_1)">
<path d="M2 0H14C14.5304 0 15.0391 0.210714 15.4142 0.585786C15.7893 0.960859 16 1.46957 16 2V10C16 10.5304 15.7893 11.0391 15.4142 11.4142C15.0391 11.7893 14.5304 12 14 12H2C1.46957 12 0.960859 11.7893 0.585786 11.4142C0.210714 11.0391 0 10.5304 0 10V2C0 1.46957 0.210714 0.960859 0.585786 0.585786C0.960859 0.210714 1.46957 0 2 0V0Z" fill="#FCD669"/>
<path d="M2.5 0.5H14C14.3978 0.5 14.7794 0.658035 15.0607 0.93934C15.342 1.22064 15.5 1.60218 15.5 2V10C15.5 10.3978 15.342 10.7794 15.0607 11.0607C14.7794 11.342 14.3978 11.5 14 11.5H2C1.60218 11.5 1.22064 11.342 0.93934 11.0607C0.658035 10.7794 0.5 10.3978 0.5 10V2C0.5 1.60218 0.658035 1.22064 0.93934 0.93934C1.22064 0.658035 1.60218 0.5 2 0.5H2.5Z" fill="#E25950"/>
<path d="M4.79903 3C4.79954 4.95257 6.39987 5.90388 8.00006 5.89126C9.59994 5.87864 11.1997 4.90244 11.2002 3C13.2333 5.57438 11.1393 8.78829 8.00006 8.81051C4.82827 8.83297 2.76509 5.57741 4.79903 3Z" fill="#FCD669"/>
<circle cx="8" cy="3" r="1" fill="#FCD669"/>
<circle cx="8" cy="9" r="1" fill="#FCD669"/>
<circle cx="8" cy="7" r="1" fill="#24B47E"/>
<circle cx="8" cy="6" r="1" fill="#43458B"/>
</g>
<defs>
<clipPath id="clip0_0_1">
<rect width="16" height="12" fill="white"/>
</clipPath>
</defs>
</svg>
