<svg width="16" height="12" viewBox="0 0 16 12" fill="none" xmlns="http://www.w3.org/2000/svg">
<rect width="16" height="12" fill="#F5F5F5"/>
<g clip-path="url(#clip0_0_1)">
<path d="M2 0C1.46957 0 0.960859 0.210714 0.585786 0.585786C0.210714 0.960859 0 1.46957 0 2L0 10C0 11.1 0.9 12 2 12H5V0H2Z" fill="#43458B"/>
<path d="M11 0V12H14C14.5304 12 15.0391 11.7893 15.4142 11.4142C15.7893 11.0391 16 10.5304 16 10V2C16 1.46957 15.7893 0.960859 15.4142 0.585786C15.0391 0.210714 14.5304 0 14 0H11Z" fill="#E25950"/>
<path d="M5 0H11V12H5V0Z" fill="#F6F9FC"/>
<path d="M5 12V11H11V12H5ZM5 0H11V1H5V0Z" fill="#EAEEF3"/>
</g>
<defs>
<clipPath id="clip0_0_1">
<rect width="16" height="12" fill="white"/>
</clipPath>
</defs>
</svg>
