<svg width="16" height="12" viewBox="0 0 16 12" fill="none" xmlns="http://www.w3.org/2000/svg">
<rect width="16" height="12" fill="#F5F5F5"/>
<path fill-rule="evenodd" clip-rule="evenodd" d="M2 0C0.895431 0 0 0.895431 0 2V10C0 11.1046 0.895431 12 2 12H14C15.1046 12 16 11.1046 16 10V2C16 0.895431 15.1046 0 14 0H2Z" fill="#FCD669"/>
<path fill-rule="evenodd" clip-rule="evenodd" d="M0 2C0 0.895431 0.895431 0 2 0H14C15.1046 0 16 0.895431 16 2V10C16 11.1046 15.1046 12 14 12H2C0.895431 12 0 11.1046 0 10V2ZM1 2C1 1.44772 1.44772 1 2 1H14C14.5523 1 15 1.44772 15 2V10C15 10.5523 14.5523 11 14 11H2C1.44772 11 1 10.5523 1 10V2Z" fill="#A68527" fill-opacity="0.1"/>
<path fill-rule="evenodd" clip-rule="evenodd" d="M6.75 0L7.5 3H8.5L9.25 0H14C14.2695 0 14.5265 0.0533002 14.7612 0.149934L10 3.13872L10.4695 4.02167L16 2V4.5L11 5.5V6.5L16 7.5V9.99032L10.4695 8.11705L10 9L14.7546 11.8528C14.5217 11.9477 14.267 12 14 12H9.5L8.5 9H7.5L6.5 12H2C1.73095 12 1.4743 11.9469 1.23999 11.8505L6.036 8.86359L5.56653 7.98064L0 9.99032V7.5L5 6.5V5.5L0 4.5V2L5.56653 4.02167L6.036 3.13872L1.23988 0.149508C1.47423 0.0531435 1.73091 0 2 0H6.75ZM10 6C10 7.10457 9.10457 8 8 8C6.89543 8 6 7.10457 6 6C6 4.89543 6.89543 4 8 4C9.10457 4 10 4.89543 10 6Z" fill="#E25950"/>
<mask id="mask0_0_1" style="mask-type:luminance" maskUnits="userSpaceOnUse" x="0" y="0" width="16" height="12">
<path fill-rule="evenodd" clip-rule="evenodd" d="M6.75 0L7.5 3H8.5L9.25 0H14C14.2695 0 14.5265 0.0533002 14.7612 0.149934L10 3.13872L10.4695 4.02167L16 2V4.5L11 5.5V6.5L16 7.5V9.99032L10.4695 8.11705L10 9L14.7546 11.8528C14.5217 11.9477 14.267 12 14 12H9.5L8.5 9H7.5L6.5 12H2C1.73095 12 1.4743 11.9469 1.23999 11.8505L6.036 8.86359L5.56653 7.98064L0 9.99032V7.5L5 6.5V5.5L0 4.5V2L5.56653 4.02167L6.036 3.13872L1.23988 0.149508C1.47423 0.0531435 1.73091 0 2 0H6.75ZM10 6C10 7.10457 9.10457 8 8 8C6.89543 8 6 7.10457 6 6C6 4.89543 6.89543 4 8 4C9.10457 4 10 4.89543 10 6Z" fill="white"/>
</mask>
<g mask="url(#mask0_0_1)">
</g>
</svg>
