<svg width="16" height="12" viewBox="0 0 16 12" fill="none" xmlns="http://www.w3.org/2000/svg">
<rect width="16" height="12" fill="#F5F5F5"/>
<path fill-rule="evenodd" clip-rule="evenodd" d="M2 0C0.895431 0 0 0.895431 0 2V10C0 11.1046 0.895431 12 2 12H14C15.1046 12 16 11.1046 16 10V2C16 0.895431 15.1046 0 14 0H2Z" fill="#159570"/>
<path fill-rule="evenodd" clip-rule="evenodd" d="M7.40301 7.15301C7.30469 6.93427 7.25 6.69169 7.25 6.43633C7.25 5.84164 7.54663 5.31624 8 5C8.45337 5.31624 8.75 5.84164 8.75 6.43633C8.75 6.66846 8.7048 6.89004 8.62273 7.09274C8.79958 7.03261 8.98914 7 9.18633 7C9.78101 7 10.3064 7.29663 10.6227 7.75C10.3064 8.20337 9.78101 8.5 9.18633 8.5C8.69666 8.5 8.25396 8.29888 7.93633 7.97475C7.6187 8.29888 7.176 8.5 6.68633 8.5C6.09164 8.5 5.56624 8.20337 5.25 7.75C5.56624 7.29663 6.09164 7 6.68633 7C6.94169 7 7.18427 7.05469 7.40301 7.15301Z" fill="white"/>
<path fill-rule="evenodd" clip-rule="evenodd" d="M7.5 4C7.5 3.72386 7.72386 3.5 8 3.5C8.27614 3.5 8.5 3.72386 8.5 4C8.5 4.27614 8.27614 4.5 8 4.5C7.72386 4.5 7.5 4.27614 7.5 4ZM6.5 4C6.22386 4 6 4.22386 6 4.5C6 4.77614 6.22386 5 6.5 5C6.77614 5 7 4.77614 7 4.5C7 4.22386 6.77614 4 6.5 4ZM5.5 5C5.22386 5 5 5.22386 5 5.5C5 5.77614 5.22386 6 5.5 6C5.77614 6 6 5.77614 6 5.5C6 5.22386 5.77614 5 5.5 5ZM9.5 4C9.22386 4 9 4.22386 9 4.5C9 4.77614 9.22386 5 9.5 5C9.77614 5 10 4.77614 10 4.5C10 4.22386 9.77614 4 9.5 4ZM10 5.5C10 5.22386 10.2239 5 10.5 5C10.7761 5 11 5.22386 11 5.5C11 5.77614 10.7761 6 10.5 6C10.2239 6 10 5.77614 10 5.5Z" fill="#FCD669"/>
</svg>
