<svg width="16" height="12" viewBox="0 0 16 12" fill="none" xmlns="http://www.w3.org/2000/svg">
<rect width="16" height="12" fill="#F5F5F5"/>
<g clip-path="url(#clip0_0_1)">
<path d="M2 0H14C14.5304 0 15.0391 0.210714 15.4142 0.585786C15.7893 0.960859 16 1.46957 16 2V10C16 10.5304 15.7893 11.0391 15.4142 11.4142C15.0391 11.7893 14.5304 12 14 12H2C1.46957 12 0.960859 11.7893 0.585786 11.4142C0.210714 11.0391 0 10.5304 0 10V2C0 1.46957 0.210714 0.960859 0.585786 0.585786C0.960859 0.210714 1.46957 0 2 0Z" fill="#43458B"/>
<path d="M3 6C3 7.32608 3.52678 8.59785 4.46447 9.53553C5.40215 10.4732 6.67392 11 8 11C9.32608 11 10.5979 10.4732 11.5355 9.53553C12.4732 8.59785 13 7.32608 13 6C13 4.67392 12.4732 3.40215 11.5355 2.46447C10.5979 1.52678 9.32608 1 8 1C6.67392 1 5.40215 1.52678 4.46447 2.46447C3.52678 3.40215 3 4.67392 3 6ZM4 6C4 4.93913 4.42143 3.92172 5.17157 3.17157C5.92172 2.42143 6.93913 2 8 2C9.06087 2 10.0783 2.42143 10.8284 3.17157C11.5786 3.92172 12 4.93913 12 6C12 7.06087 11.5786 8.07828 10.8284 8.82843C10.0783 9.57857 9.06087 10 8 10C6.93913 10 5.92172 9.57857 5.17157 8.82843C4.42143 8.07828 4 7.06087 4 6Z" fill="#FCD669"/>
<path fill-rule="evenodd" clip-rule="evenodd" d="M9.5 3C9.5 3.5 9.5 4 9 4.5L9.75 9.99997C9.75 10.5523 9 11 8 11C7 11 6.25 10.5523 6.25 9.99997L7 4.49997C6.5 4 6.5 3.5 6.5 3H9.5Z" fill="#6D71A4"/>
<path d="M7.91172 4.4352C7.9395 4.34973 8.06042 4.34973 8.08819 4.4352L8.64564 6.15086C8.65806 6.18908 8.69368 6.21496 8.73387 6.21496H10.5378C10.6277 6.21496 10.6651 6.32996 10.5924 6.38279L9.13292 7.44312C9.10041 7.46675 9.0868 7.50862 9.09922 7.54684L9.65667 9.2625C9.68444 9.34798 9.58662 9.41905 9.51391 9.36623L8.05448 8.30589C8.02197 8.28227 7.97794 8.28227 7.94543 8.30589L6.486 9.36623C6.41329 9.41905 6.31547 9.34798 6.34324 9.2625L6.90069 7.54684C6.91311 7.50862 6.8995 7.46675 6.86699 7.44312L5.40756 6.38279C5.33485 6.32996 5.37222 6.21496 5.46209 6.21496H7.26604C7.30623 6.21496 7.34185 6.18908 7.35427 6.15086L7.91172 4.4352Z" fill="#F6F9FC"/>
<path fill-rule="evenodd" clip-rule="evenodd" d="M7.35437 6.15085C7.34195 6.18907 7.30633 6.21495 7.26613 6.21495H5.46218C5.37231 6.21495 5.33495 6.32995 5.40765 6.38278L6.86708 7.44311C6.8996 7.46674 6.9132 7.50861 6.90078 7.54684L6.34333 9.2625C6.31556 9.34797 6.41338 9.41904 6.48609 9.36622L7.94552 8.30588C7.97803 8.28226 8.02206 8.28226 8.05458 8.30588L9.51401 9.36622C9.58671 9.41904 9.68454 9.34797 9.65677 9.2625L9.09931 7.54684C9.08689 7.50861 9.1005 7.46674 9.13302 7.44311L10.5924 6.38278C10.6651 6.32995 10.6278 6.21495 10.5379 6.21495H8.73396C8.69377 6.21495 8.65815 6.18907 8.64573 6.15085L8.08828 4.43519C8.06051 4.34972 7.93959 4.34972 7.91182 4.43519L7.35437 6.15085ZM8.93617 5.84387L8.4412 4.32052C8.30235 3.89317 7.69775 3.89316 7.55889 4.32052L7.06393 5.84387H5.46218C5.01284 5.84387 4.826 6.41887 5.18953 6.68299L6.48537 7.62447L5.99041 9.14782C5.85155 9.57518 6.34068 9.93055 6.70421 9.66643L8.00005 8.72495L9.29589 9.66643C9.65942 9.93056 10.1485 9.57518 10.0097 9.14782L9.51472 7.62447L10.8106 6.68299C11.1741 6.41887 10.9873 5.84387 10.5379 5.84387H8.93617Z" fill="#43458B"/>
</g>
<defs>
<clipPath id="clip0_0_1">
<rect width="16" height="12" fill="white"/>
</clipPath>
</defs>
</svg>
