<svg width="16" height="12" viewBox="0 0 16 12" fill="none" xmlns="http://www.w3.org/2000/svg">
<rect width="16" height="12" fill="#F5F5F5"/>
<path d="M14 12H2C0.89543 12 0 11.1046 0 10V6L0 2C0 0.89543 0.895431 0 2 0H8H14C15.1046 0 16 0.89543 16 2V10C16 11.1046 15.1046 12 14 12Z" fill="#E25950"/>
<path fill-rule="evenodd" clip-rule="evenodd" d="M15.723 1H8V2H16C16 1.634 15.894 1.295 15.723 1ZM8 3H16V4H8V3ZM16 5H8V6H16V5ZM0 8V7H16V8H0ZM16 10V9H0V10H16ZM0.267564 11C0.613374 11.5978 1.25972 12 2 12H14C14.7403 12 15.3866 11.5978 15.7324 11H0.267564Z" fill="#F6F9FC"/>
<path opacity="0.1" d="M14 12H2C0.89543 12 0 11.1046 0 10V6H1V10C1 10.5523 1.44772 11 2 11H14C14.5523 11 15 10.5523 15 10V2C15 1.44772 14.5523 1 14 1H8V0H14C15.1046 0 16 0.89543 16 2V10C16 11.1046 15.1046 12 14 12Z" fill="#E25950"/>
<path d="M0 6V1.71429C0 0.767512 0.795938 0 1.77778 0H8V6H0Z" fill="#43458B"/>
<path fill-rule="evenodd" clip-rule="evenodd" d="M4.00036 1.26777C3.9186 1.25606 3.83501 1.25 3.75 1.25C2.7835 1.25 2 2.0335 2 3C2 3.9665 2.7835 4.75 3.75 4.75C3.83501 4.75 3.9186 4.74394 4.00036 4.73223C3.70611 4.90253 3.36444 5 3 5C1.89543 5 1 4.10457 1 3C1 1.89543 1.89543 1 3 1C3.36444 1 3.70611 1.09747 4.00036 1.26777V1.26777ZM6 4C5.44772 4 5 3.55228 5 3C5 2.44772 5.44772 2 6 2C6.55228 2 7 2.44772 7 3C7 3.55228 6.55228 4 6 4Z" fill="#FCD669"/>
</svg>
