<svg width="16" height="12" viewBox="0 0 16 12" fill="none" xmlns="http://www.w3.org/2000/svg">
<rect width="16" height="12" fill="#F5F5F5"/>
<path d="M2 0H14C15.1046 0 16 0.89543 16 2V10C16 11.1046 15.1046 12 14 12H2C0.89543 12 0 11.1046 0 10V2C0 0.89543 0.89543 0 2 0Z" fill="#F6F9FC"/>
<path fill-rule="evenodd" clip-rule="evenodd" d="M2 12H14C15.1046 12 16 11.1046 16 10V2C16 0.89543 15.1046 0 14 0H2C0.89543 0 0 0.89543 0 2V10C0 11.1046 0.89543 12 2 12ZM14 1C14.5523 1 15 1.44772 15 2V10C15 10.5523 14.5523 11 14 11H2C1.44772 11 1 10.5523 1 10V2C1 1.44772 1.44772 1 2 1H14Z" fill="#EAEEF3"/>
<mask id="path-3-inside-1_0_1" fill="white">
<path fill-rule="evenodd" clip-rule="evenodd" d="M9.54382 11.4982L4.54545 6.00002H9.04829C9.3416 6.00002 9.46062 5.62246 9.22033 5.45425L1.51364 0.0595703C0.644115 0.276811 0 1.0632 0 2.00002V10C0 11.1046 0.89543 12 2 12H9.32183C9.58228 12 9.71901 11.6909 9.54382 11.4982Z"/>
</mask>
<path fill-rule="evenodd" clip-rule="evenodd" d="M9.54382 11.4982L4.54545 6.00002H9.04829C9.3416 6.00002 9.46062 5.62246 9.22033 5.45425L1.51364 0.0595703C0.644115 0.276811 0 1.0632 0 2.00002V10C0 11.1046 0.89543 12 2 12H9.32183C9.58228 12 9.71901 11.6909 9.54382 11.4982Z" fill="#E25950"/>
<path d="M4.54545 6.00002V5.00002H2.2849L3.80551 6.67269L4.54545 6.00002ZM9.54382 11.4982L8.80388 12.1709L9.54382 11.4982ZM9.22033 5.45425L8.64687 6.27348L8.64687 6.27348L9.22033 5.45425ZM1.51364 0.0595703L2.0871 -0.759662L1.71359 -1.02112L1.27125 -0.910609L1.51364 0.0595703ZM3.80551 6.67269L8.80388 12.1709L10.2838 10.8255L5.28539 5.32735L3.80551 6.67269ZM9.04829 5.00002H4.54545V7.00002H9.04829V5.00002ZM8.64687 6.27348C8.08619 5.88101 8.36388 5.00002 9.04829 5.00002V7.00002C10.3193 7.00002 10.835 5.3639 9.79379 4.63502L8.64687 6.27348ZM0.940179 0.878802L8.64687 6.27348L9.79379 4.63502L2.0871 -0.759662L0.940179 0.878802ZM1 2.00002C1 1.53295 1.32114 1.1384 1.75603 1.02975L1.27125 -0.910609C-0.0329139 -0.584778 -1 0.593437 -1 2.00002H1ZM1 10V2.00002H-1V10H1ZM2 11C1.44772 11 1 10.5523 1 10H-1C-1 11.6569 0.343146 13 2 13V11ZM9.32183 11H2V13H9.32183V11ZM8.80388 12.1709C8.39509 11.7212 8.71414 11 9.32183 11V13C10.4504 13 11.0429 11.6606 10.2838 10.8255L8.80388 12.1709Z" fill="#43458B" mask="url(#path-3-inside-1_0_1)"/>
<path d="M3 8C3.55228 8 4 8.44772 4 9C4 9.55228 3.55228 10 3 10C2.44772 10 2 9.55228 2 9C2 8.44772 2.44772 8 3 8Z" fill="white"/>
<path d="M2.5 3C2.77614 3 3 3.22386 3 3.5C3 3.77614 2.77614 4 2.5 4C2.22386 4 2 3.77614 2 3.5C2 3.22386 2.22386 3 2.5 3Z" fill="white"/>
</svg>
