<svg width="16" height="12" viewBox="0 0 16 12" fill="none" xmlns="http://www.w3.org/2000/svg">
<rect width="16" height="12" fill="#F5F5F5"/>
<path d="M2 0H14C15.1046 0 16 0.89543 16 2V10C16 11.1046 15.1046 12 14 12H2C0.89543 12 0 11.1046 0 10V2C0 0.89543 0.89543 0 2 0Z" fill="#43458B"/>
<path fill-rule="evenodd" clip-rule="evenodd" d="M1.34608 3.96429H0V2.03571H3V1.92937L0.748407 0.439935C1.01503 0.225756 1.33772 0.0785189 1.69098 0.0237284L3 0.889762V0H5V2.03571H5.04568L8 0.0814286V1.12114L6.61725 2.03571H8V3.96429H5V4.04678L7.93422 5.988H6.36356L5 5.08603V6H3V3.96429H2.91804L0 5.89457V4.85486L1.34608 3.96429Z" fill="white"/>
<path fill-rule="evenodd" clip-rule="evenodd" d="M0.747518 0.440651C0.519848 0.62375 0.333119 0.855685 0.203233 1.12055L1.58686 2.03571H3V1.93089L0.747518 0.440651ZM5 3.96429H6.41281L8 5.01429V6H7.91911L5 4.06907V3.96429ZM3 3.96429V4.95104L1.41422 6H0V5.89629L2.91993 3.96429H3ZM5 2.03571H5.07952L8 0.103714V0H6.58578L5 1.04896V2.03571ZM4.44444 3.42686H8V2.57314H4.44444V0H3.55556V2.57314H0V3.42686H3.55556V6H4.44444V3.42686Z" fill="#E25950"/>
<path fill-rule="evenodd" clip-rule="evenodd" d="M12.0674 2.75063C11.9778 2.59606 11.9775 2.40546 12.0666 2.25063C12.1557 2.0958 12.3206 2.00026 12.4993 2C12.7754 1.9996 12.9996 2.22313 13 2.49927C13.0004 2.77541 12.7769 2.9996 12.5007 3C12.3221 3.00026 12.1569 2.9052 12.0674 2.75063ZM14.4993 4C14.2231 4.0004 13.9996 4.22459 14 4.50073C14.0004 4.77687 14.2246 5.0004 14.5007 5C14.7769 4.9996 15.0004 4.77541 15 4.49927C14.9996 4.22313 14.7754 3.9996 14.4993 4ZM12.5 9C12.2239 9 12 9.22386 12 9.5C12 9.77614 12.2239 10 12.5 10C12.7761 10 13 9.77614 13 9.5C13 9.22386 12.7761 9 12.5 9ZM11.4905 4.00037C11.2196 4.00037 11 4.22406 11 4.5C11 4.77594 11.2196 4.99964 11.4905 4.99964C11.6702 5.00662 11.8392 4.91294 11.9311 4.75548C12.023 4.59802 12.023 4.40198 11.9311 4.24452C11.8392 4.08706 11.6702 3.99338 11.4905 4.00037Z" fill="#E25950"/>
</svg>
