<svg width="16" height="12" viewBox="0 0 16 12" fill="none" xmlns="http://www.w3.org/2000/svg">
<rect width="16" height="12" fill="#F5F5F5"/>
<path fill-rule="evenodd" clip-rule="evenodd" d="M0 2C0 0.89543 0.89543 0 2 0H14C15.1046 0 16 0.89543 16 2V10C16 11.1046 15.1046 12 14 12H2C0.89543 12 0 11.1046 0 10V2Z" fill="#F6F9FC"/>
<path d="M2 1C1.44772 1 1 1.44772 1 2V6H0V2C0 0.89543 0.89543 0 2 0H8V1H2Z" fill="#EAEEF3"/>
<path d="M14 11C14.5523 11 15 10.5523 15 10V6H16V10C16 11.1046 15.1046 12 14 12H8V11H14Z" fill="#EAEEF3"/>
<path d="M13.292 8.06775L12.139 8.07035C12.0695 8.07045 12.0079 8.02564 11.9866 7.95948L11.6295 6.86248C11.6087 6.79559 11.5468 6.75 11.4767 6.75C11.4067 6.75 11.3448 6.79559 11.324 6.86248L10.9679 7.95894C10.9466 8.02511 10.885 8.06992 10.8155 8.06981H9.662C9.59196 8.0689 9.52947 8.11369 9.50783 8.18032C9.48619 8.24695 9.51044 8.3199 9.56766 8.36032L10.5005 9.03835C10.5569 9.07918 10.5804 9.15184 10.5586 9.21798L10.2025 10.315C10.1798 10.3814 10.203 10.4549 10.2598 10.4961C10.3166 10.5374 10.3937 10.5368 10.4498 10.4946L11.3827 9.86867C11.4388 9.82761 11.5152 9.82761 11.5713 9.86867L12.5047 10.4946C12.5608 10.5368 12.6379 10.5374 12.6947 10.4961C12.7515 10.4549 12.7748 10.3814 12.752 10.315L12.3949 9.21798C12.3731 9.15184 12.3966 9.07918 12.453 9.03835L13.3863 8.36032C13.4431 8.31975 13.467 8.2471 13.4454 8.18078C13.4238 8.11446 13.3617 8.06717 13.292 8.06775Z" fill="#E25950"/>
<path d="M6.24715 2.80216L5.10782 2.80473C5.03913 2.80483 4.97824 2.76055 4.95718 2.69517L4.60426 1.61115C4.58373 1.54505 4.52257 1.5 4.45335 1.5C4.38414 1.5 4.32298 1.54505 4.30245 1.61115L3.95059 2.69464C3.92952 2.76002 3.86863 2.80431 3.79994 2.8042H2.66009C2.59087 2.8033 2.52912 2.84756 2.50774 2.9134C2.48636 2.97924 2.51032 3.05133 2.56686 3.09127L3.48864 3.76128C3.54439 3.80163 3.56761 3.87343 3.54605 3.93879L3.1942 5.02281C3.17174 5.08845 3.19472 5.16105 3.25085 5.20182C3.30698 5.24259 3.38313 5.24198 3.4386 5.20032L4.36039 4.58178C4.41592 4.54121 4.49132 4.54121 4.54685 4.58178L5.46916 5.20032C5.52463 5.24198 5.60079 5.24259 5.65692 5.20182C5.71305 5.16105 5.73602 5.08845 5.71357 5.02281L5.36065 3.93879C5.33909 3.87343 5.36232 3.80163 5.41807 3.76128L6.34038 3.09127C6.39643 3.05118 6.42004 2.97939 6.39872 2.91385C6.3774 2.84832 6.31606 2.80159 6.24715 2.80216Z" fill="#217AB7"/>
<path fill-rule="evenodd" clip-rule="evenodd" d="M0 6H8V12H1.9981C0.886706 12 0 11.1055 0 10.0021V6Z" fill="#217AB7"/>
<path fill-rule="evenodd" clip-rule="evenodd" d="M8 0H14.0019C15.1133 0 16 0.894496 16 1.99791V6H8V0Z" fill="#E25950"/>
</svg>
