<svg width="16" height="12" viewBox="0 0 16 12" fill="none" xmlns="http://www.w3.org/2000/svg">
<rect width="16" height="12" fill="#F5F5F5"/>
<path fill-rule="evenodd" clip-rule="evenodd" d="M2.00488 0H5V12H2.00488C0.8939 12 0 11.1007 0 9.99147V2.00853C0 0.90195 0.897616 0 2.00488 0ZM11 0H13.9951C15.1061 0 16 0.89925 16 2.00853V9.99147C16 11.098 15.1024 12 13.9951 12H11V0Z" fill="#E25950"/>
<path fill-rule="evenodd" clip-rule="evenodd" d="M2.5 5C3.32843 5 4 4.32843 4 3.5C4 2.67157 3.32843 2 2.5 2C1.67157 2 1 2.67157 1 3.5C1 4.32843 1.67157 5 2.5 5ZM1 6H2V10H1V6ZM4 6H3V10H4V6Z" fill="#FCD669"/>
<path fill-rule="evenodd" clip-rule="evenodd" d="M5 0H11V12H5V0Z" fill="#45B2E8"/>
</svg>
