<svg width="16" height="12" viewBox="0 0 16 12" fill="none" xmlns="http://www.w3.org/2000/svg">
<rect width="16" height="12" fill="#F5F5F5"/>
<path d="M2 0H14C15.1046 0 16 0.89543 16 2V10C16 11.1046 15.1046 12 14 12H2C0.89543 12 0 11.1046 0 10V2C0 0.89543 0.89543 0 2 0Z" fill="#F6F9FC"/>
<path d="M2 1C1.44772 1 1 1.44772 1 2V10C1 10.5523 1.44772 11 2 11H5V12H2C0.89543 12 0 11.1046 0 10V2C0 0.89543 0.89543 0 2 0H5V1H2Z" fill="#EAEEF3"/>
<path fill-rule="evenodd" clip-rule="evenodd" d="M5 0V12H14C15.1046 12 16 11.1046 16 10V2C16 0.895431 15.1046 0 14 0H5Z" fill="#159570"/>
<path fill-rule="evenodd" clip-rule="evenodd" d="M8.5 4.00001C8.5 3.56356 8.56213 3.14162 8.67804 2.74255C7.66223 3.46794 7 4.65664 7 6.00001C7 8.20915 8.79086 10 11 10C12.3434 10 13.5321 9.33778 14.2575 8.32197C13.8584 8.43787 13.4365 8.50001 13 8.50001C10.5147 8.50001 8.5 6.48529 8.5 4.00001ZM14 4.00001C14 4.55229 13.5523 5.00001 13 5.00001C12.4477 5.00001 12 4.55229 12 4.00001C12 3.44772 12.4477 3.00001 13 3.00001C13.5523 3.00001 14 3.44772 14 4.00001Z" fill="white"/>
</svg>
