<svg width="16" height="12" viewBox="0 0 16 12" fill="none" xmlns="http://www.w3.org/2000/svg">
<rect width="16" height="12" fill="#F5F5F5"/>
<path d="M2 0H14C15.1046 0 16 0.89543 16 2V10C16 11.1046 15.1046 12 14 12H2C0.89543 12 0 11.1046 0 10V2C0 0.89543 0.89543 0 2 0Z" fill="#F6F9FC"/>
<path d="M2 1C1.44772 1 1 1.44772 1 2V10C1 10.5523 1.44772 11 2 11H6V12H2C0.89543 12 0 11.1046 0 10V2C0 0.89543 0.89543 0 2 0H6V1H2Z" fill="#EAEEF3"/>
<path fill-rule="evenodd" clip-rule="evenodd" d="M14.0026 12H5L6 11.5L4 10.5L6 9.5L4 8.5L6 7.5L4 6.5L6 5.5L4 4.5L6 3.5L4 2.5L6 1.5L4 0.5L5 0L14.0026 0C15.1041 0 16 0.89925 16 2.00853V9.99147C16 11.098 15.1057 12 14.0026 12Z" fill="#B1372F"/>
</svg>
