<svg width="16" height="12" viewBox="0 0 16 12" fill="none" xmlns="http://www.w3.org/2000/svg">
<rect width="16" height="12" fill="#F5F5F5"/>
<path fill-rule="evenodd" clip-rule="evenodd" d="M2 0C0.895431 0 0 0.895431 0 2V5H16V2C16 0.89543 15.1046 0 14 0H2Z" fill="#F6F9FC"/>
<path d="M15 4V2.00488C15 1.44943 14.5527 1 14.0059 1H1.99406C1.4447 1 1 1.44655 1 2.00488V4H0V2.00488C0 0.8939 0.892771 0 1.99406 0H14.0059C15.1055 0 16 0.897616 16 2.00488V4H15Z" fill="#EAEEF3"/>
<path fill-rule="evenodd" clip-rule="evenodd" d="M0 4V8H16V4H0Z" fill="#43458B"/>
<path fill-rule="evenodd" clip-rule="evenodd" d="M0 8V10C0 11.1046 0.895431 12 2 12H14C15.1046 12 16 11.1046 16 10V8H0Z" fill="#E25950"/>
</svg>
