<svg width="16" height="13" viewBox="0 0 16 13" fill="none" xmlns="http://www.w3.org/2000/svg">
<rect width="16" height="13" fill="#F5F5F5"/>
<path fill-rule="evenodd" clip-rule="evenodd" d="M2 0C0.895431 0 0 0.895431 0 2V10C0 11.1046 0.895431 12 2 12H14C15.1046 12 16 11.1046 16 10V2C16 0.895431 15.1046 0 14 0H2Z" fill="#FCD669"/>
<path fill-rule="evenodd" clip-rule="evenodd" d="M0 9.99147L0 2C0 0.89543 0.89543 0 2 0H14L0.182906 10.8323C0.0655253 10.5765 0 10.2917 0 9.99147Z" fill="#217AB7"/>
<path fill-rule="evenodd" clip-rule="evenodd" d="M4 2.50073C3.9996 2.22459 4.22313 2.0004 4.49927 2C4.77541 1.9996 4.9996 2.22313 5 2.49927C5.0004 2.77541 4.77687 2.9996 4.50073 3C4.22459 3.0004 4.0004 2.77687 4 2.50073ZM2 4.5C2 4.22386 2.22386 4 2.5 4C2.77614 4 3 4.22386 3 4.5C3 4.77614 2.77614 5 2.5 5C2.22386 5 2 4.77614 2 4.5ZM4.5 4C4.22386 4 4 4.22386 4 4.5C4 4.77614 4.22386 5 4.5 5C4.77614 5 5 4.77614 5 4.5C5 4.22386 4.77614 4 4.5 4ZM2.06735 2.75063C1.97781 2.59606 1.97753 2.40546 2.06662 2.25063C2.15571 2.0958 2.32064 2.00026 2.49927 2C2.77541 1.9996 2.9996 2.22313 3 2.49927C3.0004 2.77541 2.77687 2.9996 2.50073 3C2.3221 3.00026 2.15689 2.9052 2.06735 2.75063ZM3.49047 3.00037C3.21959 3.00037 3 3.22406 3 3.5C3 3.77594 3.21959 3.99964 3.49047 3.99964C3.67016 4.00662 3.83921 3.91294 3.93109 3.75548C4.02297 3.59802 4.02297 3.40198 3.93109 3.24452C3.83921 3.08706 3.67016 2.99338 3.49047 3.00037Z" fill="white"/>
<path fill-rule="evenodd" clip-rule="evenodd" d="M15.8171 1.16766C15.9345 1.42346 16 1.7083 16 2.00853V10C16 11.1046 15.1046 12 14 12H2L15.8171 1.16766Z" fill="#159570"/>
<path fill-rule="evenodd" clip-rule="evenodd" d="M15.8171 1.16766C15.9345 1.42346 16 1.7083 16 2.00853V2C16 0.89543 15.1046 0 14 0H12L10.9091 1H14C14.5252 1 14.9559 1.4049 14.9968 1.91959L15.8171 1.16766ZM0.182906 10.8409C0.0655252 10.5851 0 10.3002 0 10V10.0085C0 11.1131 0.89543 12.0085 2 12.0085H4L5.09091 11.0085H2C1.47478 11.0085 1.04414 10.6036 1.00319 10.0889L0.182906 10.8409Z" fill="#A68527" fill-opacity="0.1"/>
</svg>
