<svg width="16" height="12" viewBox="0 0 16 12" fill="none" xmlns="http://www.w3.org/2000/svg">
<rect width="16" height="12" fill="#F5F5F5"/>
<path fill-rule="evenodd" clip-rule="evenodd" d="M0 2C0 0.89543 0.89543 0 2 0H14C15.1046 0 16 0.89543 16 2V10C16 11.1046 15.1046 12 14 12H2C0.89543 12 0 11.1046 0 10V2Z" fill="#217AB7"/>
<path fill-rule="evenodd" clip-rule="evenodd" d="M8.08002 7.78515L6.35672 8.82145C6.21473 8.90683 6.03041 8.86094 5.94503 8.71895C5.9045 8.65157 5.89206 8.57097 5.91037 8.4945L6.36667 6.58863L4.82201 5.14565C4.70094 5.03254 4.69448 4.8427 4.80758 4.72163C4.8612 4.66423 4.93519 4.63015 5.01366 4.62671L6.91194 4.54345L7.8074 2.59363C7.87654 2.44307 8.05466 2.37706 8.20522 2.44621C8.27041 2.47615 8.32271 2.52845 8.35265 2.59363L9.24811 4.54345L11.1464 4.62671C11.3119 4.63397 11.4402 4.77404 11.4329 4.93957C11.4295 5.01804 11.3954 5.09203 11.338 5.14565L9.79338 6.58863L10.2497 8.4945C10.2883 8.65563 10.1889 8.81753 10.0278 8.8561C9.9513 8.87441 9.8707 8.86197 9.80332 8.82145L8.08002 7.78515Z" fill="white"/>
</svg>
