<svg width="16" height="12" viewBox="0 0 16 12" fill="none" xmlns="http://www.w3.org/2000/svg">
<g clip-path="url(#clip0_93_24421)">
<rect width="16" height="12" rx="2" fill="#73AF00"/>
<path d="M15.9998 2.21064H0V3.47378H15.9998V2.21064Z" fill="#F5F5F5"/>
<path d="M15.9998 8.52634H0V9.78948H15.9998V8.52634Z" fill="#F5F5F5"/>
<path d="M15.9998 3.47375H0V8.52633H15.9998V3.47375Z" fill="#C8414B"/>
<path d="M7.92138 4.07983L7.46156 5.45856L6.00821 5.46979C5.92851 5.47043 5.89553 5.5721 5.9596 5.61943L7.12876 6.48281L6.69037 7.86854C6.66633 7.94453 6.75282 8.00738 6.81768 7.96102L8.00005 7.11588L9.18245 7.96102C9.24727 8.00734 9.33377 7.94453 9.30977 7.86854L8.87137 6.48281L10.0405 5.61943C10.1046 5.5721 10.0716 5.4704 9.99192 5.46979L8.53857 5.45856L8.07875 4.07983C8.05349 4.00424 7.9466 4.00424 7.92138 4.07983Z" fill="#FFE15A"/>
</g>
<defs>
<clipPath id="clip0_93_24421">
<rect width="16" height="12" fill="white"/>
</clipPath>
</defs>
</svg>
