<svg width="16" height="12" viewBox="0 0 16 12" fill="none" xmlns="http://www.w3.org/2000/svg">
<rect width="16" height="12" fill="#F5F5F5"/>
<g clip-path="url(#clip0_0_1)">
<path d="M0.672 0.504028C0.460625 0.691733 0.291443 0.922115 0.17561 1.17998C0.0597767 1.43785 -7.5518e-05 1.71734 7.15093e-08 2.00003V10C-7.5518e-05 10.2827 0.0597767 10.5622 0.17561 10.8201C0.291443 11.0779 0.460625 11.3083 0.672 11.496L8 6.00003L0.672 0.504028Z" fill="#43458B"/>
<path d="M0.671997 0.504C1.03809 0.179171 1.51057 -0.000147334 2 9.0831e-08H14C14.5304 9.0831e-08 15.0391 0.210714 15.4142 0.585786C15.7893 0.960859 16 1.46957 16 2V3.579H4.772L0.671997 0.504Z" fill="#333333"/>
<path d="M5.61304 4.21002H16V7.79002H5.61304L8.00004 6.00002L5.61304 4.21002Z" fill="#E25950"/>
<path d="M0.671997 11.496C1.03809 11.8209 1.51057 12.0002 2 12H14C14.5304 12 15.0391 11.7893 15.4142 11.4142C15.7893 11.0392 16 10.5305 16 10V8.42102H4.772L0.671997 11.496Z" fill="#24B47E"/>
<path d="M4.77197 3.57898H15V4.20998H5.61297L4.77197 3.57898ZM5.61297 7.78998H15V8.42098H4.77197L5.61297 7.78998Z" fill="#F6F9FC"/>
<path d="M15 3.57898H16V4.20998H15V3.57898ZM15 7.78998H16V8.42098H15V7.78998Z" fill="#EAEEF3"/>
<path d="M2.33292 4.16298L2.33592 5.32998C2.33592 5.39998 2.29092 5.46198 2.22392 5.48398L1.11392 5.84498C1.08068 5.85508 1.05157 5.8756 1.03088 5.90351C1.01019 5.93142 0.999023 5.96524 0.999023 5.99998C0.999023 6.03472 1.01019 6.06854 1.03088 6.09645C1.05157 6.12436 1.08068 6.14488 1.11392 6.15498L2.22392 6.51498C2.25627 6.52571 2.28441 6.54637 2.30434 6.57402C2.32427 6.60167 2.33497 6.6349 2.33492 6.66898V7.83598C2.33447 7.87051 2.34506 7.90427 2.36516 7.93236C2.38525 7.96044 2.41379 7.98136 2.44662 7.99208C2.47944 8.0028 2.51483 8.00275 2.54763 7.99194C2.58042 7.98113 2.6089 7.96012 2.62892 7.93198L3.31492 6.98798C3.33493 6.95992 3.36336 6.93897 3.39609 6.92818C3.42882 6.91739 3.46414 6.91732 3.49692 6.92798L4.60692 7.28898C4.63961 7.30004 4.67499 7.30037 4.70789 7.28991C4.74078 7.27946 4.76948 7.25877 4.7898 7.23087C4.81011 7.20296 4.82098 7.1693 4.82082 7.13478C4.82067 7.10026 4.80949 7.0667 4.78892 7.03898L4.15592 6.09498C4.13591 6.06734 4.12514 6.0341 4.12514 5.99998C4.12514 5.96586 4.13591 5.93262 4.15592 5.90498L4.78892 4.95998C4.80949 4.93226 4.82067 4.8987 4.82082 4.86418C4.82098 4.82966 4.81011 4.796 4.7898 4.76809C4.76948 4.74019 4.74078 4.7195 4.70789 4.70905C4.67499 4.69859 4.63961 4.69892 4.60692 4.70998L3.49692 5.06998C3.46435 5.08085 3.42917 5.08108 3.39646 5.07066C3.36375 5.06023 3.33519 5.03969 3.31492 5.01198L2.62892 4.06798C2.60854 4.04034 2.58 4.01979 2.54733 4.00923C2.51465 3.99867 2.47948 3.99863 2.44678 4.00913C2.41409 4.01962 2.38551 4.04012 2.36508 4.06772C2.34465 4.09532 2.3334 4.12864 2.33292 4.16298Z" fill="#FCD669"/>
</g>
<defs>
<clipPath id="clip0_0_1">
<rect width="16" height="12" fill="white"/>
</clipPath>
</defs>
</svg>
