<svg width="16" height="12" viewBox="0 0 16 12" fill="none" xmlns="http://www.w3.org/2000/svg">
<rect width="16" height="12" fill="#F5F5F5"/>
<path fill-rule="evenodd" clip-rule="evenodd" d="M2 0C0.895431 0 0 0.895431 0 2V10C0 11.1046 0.895431 12 2 12H14C15.1046 12 16 11.1046 16 10V2C16 0.895431 15.1046 0 14 0H2Z" fill="#FCD669"/>
<path opacity="0.9" fill-rule="evenodd" clip-rule="evenodd" d="M9 6C9 6.55228 8.55228 7 8 7C7.44772 7 7 6.55228 7 6C7 5.44772 7.44772 5 8 5C8.55228 5 9 5.44772 9 6ZM13 6C13 6.55228 12.5523 7 12 7C11.4477 7 11 6.55228 11 6C11 5.44772 11.4477 5 12 5C12.5523 5 13 5.44772 13 6Z" fill="#333333"/>
<path d="M15 8V4H16V8H15Z" fill="#A68527" fill-opacity="0.1"/>
<path fill-rule="evenodd" clip-rule="evenodd" d="M2 0C0.89543 0 0 0.89543 0 2V4H16V2C16 0.89543 15.1046 0 14 0H2ZM16 8H0V10C0 11.1046 0.894514 12 1.99406 12H14.0059C15.1072 12 16 11.1123 16 10V8Z" fill="#24B47E"/>
<path fill-rule="evenodd" clip-rule="evenodd" d="M0.700579 11.5195C0.27208 11.1511 0 10.6033 0 9.99147L0 2.00853C0 1.39471 0.274698 0.843853 0.707309 0.474976C0.731287 0.485934 0.75471 0.498937 0.77735 0.514031L5 5.9958L0.77735 11.4776C0.752924 11.4938 0.727227 11.5079 0.700579 11.5195Z" fill="#E25950"/>
</svg>
