<svg width="16" height="12" viewBox="0 0 16 12" fill="none" xmlns="http://www.w3.org/2000/svg">
<rect width="16" height="12" fill="#F5F5F5"/>
<g clip-path="url(#clip0_0_1)">
<path d="M14 0H2C1.46957 0 0.960859 0.210714 0.585786 0.585786C0.210714 0.960859 0 1.46957 0 2L0 10C0 10.5304 0.210714 11.0391 0.585786 11.4142C0.960859 11.7893 1.46957 12 2 12H14C14.5304 12 15.0391 11.7893 15.4142 11.4142C15.7893 11.0391 16 10.5304 16 10V2C16 1.46957 15.7893 0.960859 15.4142 0.585786C15.0391 0.210714 14.5304 0 14 0Z" fill="#43458B"/>
<path d="M1.35 3.96H0V2.04H3V1.93L0.75 0.44C1.02237 0.223958 1.34636 0.0826458 1.69 0.03L3 0.88V0H5V2.04H5.05L8 0.0799999V1.12L6.62 2.04H8V3.96H5V4.05L7.93 5.99H6.36L5 5.09V6H3V3.96H2.92L0 5.9V4.85L1.35 3.96Z" fill="white"/>
<path d="M3 1.93V2.03H1.59L0.2 1.13C0.33 0.87 0.52 0.63 0.75 0.45L3 1.93ZM5 1.05L6.59 0H8V0.0999999L5.08 2.04H5V1.05ZM2.92 3.96H3V4.96L1.41 6H0V5.9L2.92 3.96ZM6.42 3.96L8 5.01V6H7.92L5 4.07V3.97L6.42 3.96ZM8 3.43H4.44V6H3.56V3.43H0V2.57H3.56V0H4.44V2.57H8V3.43Z" fill="#E25950"/>
<circle cx="10.5" cy="6.5" r="1.5" fill="#F79A59"/>
<circle cx="13.5" cy="6.5" r="1.5" fill="#F79A59"/>
<path d="M14 6.7796V6H10V6.7796C10 7.36849 10.2107 7.93326 10.5858 8.34966C10.9609 8.76607 11.4696 9 12 9C12.5304 9 13.0391 8.76607 13.4142 8.34966C13.7893 7.93326 14 7.36849 14 6.7796Z" fill="white"/>
<path d="M10 4H14V6H10V4Z" fill="#45B2E8"/>
</g>
<defs>
<clipPath id="clip0_0_1">
<rect width="16" height="12" fill="white"/>
</clipPath>
</defs>
</svg>
