<svg width="16" height="12" viewBox="0 0 16 12" fill="none" xmlns="http://www.w3.org/2000/svg">
<rect width="16" height="12" fill="#F5F5F5"/>
<path d="M2 0H14C15.1046 0 16 0.89543 16 2V10C16 11.1046 15.1046 12 14 12H2C0.89543 12 0 11.1046 0 10V2C0 0.89543 0.89543 0 2 0Z" fill="#43458B"/>
<path fill-rule="evenodd" clip-rule="evenodd" d="M14 4.5V10H4L14 4.5Z" fill="#FCD669"/>
<path fill-rule="evenodd" clip-rule="evenodd" d="M3.06735 1.75063C2.97781 1.59606 2.97753 1.40546 3.06662 1.25063C3.15571 1.0958 3.32064 1.00026 3.49927 1C3.77541 0.999599 3.9996 1.22313 4 1.49927C4.0004 1.77541 3.77687 1.9996 3.50073 2C3.3221 2.00026 3.15689 1.9052 3.06735 1.75063ZM5.49927 3C5.22313 3.0004 4.9996 3.22459 5 3.50073C5.0004 3.77687 5.22459 4.0004 5.50073 4C5.77687 3.9996 6.0004 3.77541 6 3.49927C5.9996 3.22313 5.77541 2.9996 5.49927 3ZM4.5 7C4.22386 7 4 7.22386 4 7.5C4 7.77614 4.22386 8 4.5 8C4.77614 8 5 7.77614 5 7.5C5 7.22386 4.77614 7 4.5 7ZM2.49047 3.00037C2.21959 3.00037 2 3.22406 2 3.5C2 3.77594 2.21959 3.99964 2.49047 3.99964C2.67016 4.00662 2.83921 3.91294 2.93109 3.75548C3.02297 3.59802 3.02297 3.40198 2.93109 3.24452C2.83921 3.08706 2.67016 2.99338 2.49047 3.00037Z" fill="white"/>
</svg>
