<svg width="16" height="12" viewBox="0 0 16 12" fill="none" xmlns="http://www.w3.org/2000/svg">
<rect width="16" height="12" fill="#F5F5F5"/>
<path fill-rule="evenodd" clip-rule="evenodd" d="M2 0C0.895431 0 0 0.895431 0 2V10C0 11.1046 0.895431 12 2 12H14C15.1046 12 16 11.1046 16 10V2C16 0.895431 15.1046 0 14 0H2Z" fill="#159570"/>
<path fill-rule="evenodd" clip-rule="evenodd" d="M10.636 3.20504C10.636 3.95514 10.0301 4.56438 9.28 4.5685C9.57239 4.78929 9.92857 4.90917 10.295 4.91008C11.2366 4.91008 12 4.14671 12 3.20504C12 2.26337 11.2366 1.5 10.295 1.5C9.91305 1.5 9.56456 1.62961 9.28 1.84158C10.0301 1.8457 10.636 2.45494 10.636 3.20504ZM7 4C7 4.17863 7.0953 4.3437 7.25 4.43301C7.4047 4.52233 7.5953 4.52233 7.75 4.43301C7.9047 4.3437 8 4.17863 8 4C8 3.72386 7.77614 3.5 7.5 3.5C7.22386 3.5 7 3.72386 7 4ZM8.5 2.5C8.5 2.77614 8.27614 3 8 3C7.72386 3 7.5 2.77614 7.5 2.5C7.5 2.22386 7.72386 2 8 2C8.27614 2 8.5 2.22386 8.5 2.5Z" fill="white"/>
<path fill-rule="evenodd" clip-rule="evenodd" d="M2 0H6V12H2V0ZM4 3C4.55228 3 5 2.55228 5 2C5 1.44772 4.55228 1 4 1C3.44772 1 3 1.44772 3 2C3 2.55228 3.44772 3 4 3ZM4 7C4.55228 7 5 6.55228 5 6C5 5.44772 4.55228 5 4 5C3.44772 5 3 5.44772 3 6C3 6.55228 3.44772 7 4 7ZM4 11C4.55228 11 5 10.5523 5 10C5 9.44772 4.55228 9 4 9C3.44772 9 3 9.44772 3 10C3 10.5523 3.44772 11 4 11Z" fill="#E25950"/>
</svg>
