<svg width="16" height="12" viewBox="0 0 16 12" fill="none" xmlns="http://www.w3.org/2000/svg">
<rect width="16" height="12" fill="#F5F5F5"/>
<path fill-rule="evenodd" clip-rule="evenodd" d="M2 0C0.895431 0 0 0.895431 0 2V10C0 11.1046 0.895431 12 2 12H14C15.1046 12 16 11.1046 16 10V2C16 0.895431 15.1046 0 14 0H2Z" fill="#E25950"/>
<path fill-rule="evenodd" clip-rule="evenodd" d="M8 9C9.65685 9 11 7.65685 11 6C11 4.34315 9.65685 3 8 3C6.34315 3 5 4.34315 5 6C5 7.65685 6.34315 9 8 9ZM9.00036 4.26777C8.9186 4.25606 8.83501 4.25 8.75 4.25C7.7835 4.25 7 5.0335 7 6C7 6.9665 7.7835 7.75 8.75 7.75C8.83501 7.75 8.9186 7.74394 9.00036 7.73223C8.70611 7.90253 8.36444 8 8 8C6.89543 8 6 7.10457 6 6C6 4.89543 6.89543 4 8 4C8.36444 4 8.70611 4.09747 9.00036 4.26777ZM8 6C8 6.55228 8.44772 7 9 7C9.55228 7 10 6.55228 10 6C10 5.44772 9.55228 5 9 5C8.44772 5 8 5.44772 8 6Z" fill="white"/>
</svg>
