<svg width="16" height="12" viewBox="0 0 16 12" fill="none" xmlns="http://www.w3.org/2000/svg">
<rect width="16" height="12" fill="#F5F5F5"/>
<path fill-rule="evenodd" clip-rule="evenodd" d="M2 0C0.895431 0 0 0.895431 0 2V10C0 11.1046 0.895431 12 2 12H14C15.1046 12 16 11.1046 16 10V2C16 0.895431 15.1046 0 14 0H2Z" fill="#B1372F"/>
<path d="M0 2C0 0.89543 0.895431 0 2 0H7V7H0V2Z" fill="#F6F9FC"/>
<path d="M3 3V2H4V3H5V4H4V5H3V4H2V3H3Z" fill="#B1372F"/>
<path d="M7 0V1H2C1.44772 1 1 1.44772 1 2V7H0V2C0 0.89543 0.89543 0 2 0H7Z" fill="#EAEEF3"/>
</svg>
