<svg width="16" height="12" viewBox="0 0 16 12" fill="none" xmlns="http://www.w3.org/2000/svg">
<rect width="16" height="12" fill="#F5F5F5"/>
<path fill-rule="evenodd" clip-rule="evenodd" d="M2 0C0.895431 0 0 0.895431 0 2V10C0 11.1046 0.895431 12 2 12H14C15.1046 12 16 11.1046 16 10V2C16 0.895431 15.1046 0 14 0H2Z" fill="#E25950"/>
<path fill-rule="evenodd" clip-rule="evenodd" d="M8.00072 2.53555C7.83719 2.51212 7.67001 2.5 7.5 2.5C5.567 2.5 4 4.067 4 6C4 7.933 5.567 9.5 7.5 9.5C7.67001 9.5 7.83719 9.48788 8.00072 9.46445C7.41221 9.80505 6.72887 10 6 10C3.79086 10 2 8.20914 2 6C2 3.79086 3.79086 2 6 2C6.72887 2 7.41221 2.19495 8.00072 2.53555V2.53555Z" fill="white"/>
<path fill-rule="evenodd" clip-rule="evenodd" d="M9 7C9.55228 7 10 6.55228 10 6C10 5.44772 9.55228 5 9 5C8.44772 5 8 5.44772 8 6C8 6.55228 8.44772 7 9 7Z" fill="white"/>
</svg>
