<svg width="16" height="12" viewBox="0 0 16 12" fill="none" xmlns="http://www.w3.org/2000/svg">
<rect width="16" height="12" fill="#F5F5F5"/>
<path fill-rule="evenodd" clip-rule="evenodd" d="M2 0C0.895431 0 0 0.895431 0 2V10C0 11.1046 0.895431 12 2 12H14C15.1046 12 16 11.1046 16 10V2C16 0.895431 15.1046 0 14 0H2Z" fill="#FCD669"/>
<path fill-rule="evenodd" clip-rule="evenodd" d="M15 6H16V2C16 0.89543 15.1046 0 14 0H9V1H14C14.5523 1 15 1.44772 15 2V6ZM1 6H0V10C0 11.1046 0.89543 12 2 12H7V11H2C1.44772 11 1 10.5523 1 10V6Z" fill="#A68527" fill-opacity="0.1"/>
<path fill-rule="evenodd" clip-rule="evenodd" d="M16 3L3 12H2C0.89543 12 0 11.1046 0 10V9L13.5 0H14C15.1046 0 16 0.89543 16 2V3Z" fill="#333333"/>
<path fill-rule="evenodd" clip-rule="evenodd" d="M2 0C0.895431 0 0 0.895431 0 2L0 7.5L11.5 0H2Z" fill="#24B47E"/>
<path fill-rule="evenodd" clip-rule="evenodd" d="M16 10C16 11.1046 15.1046 12 14 12H5L16 4.5V10Z" fill="#45B2E8"/>
</svg>
