<svg width="16" height="12" viewBox="0 0 16 12" fill="none" xmlns="http://www.w3.org/2000/svg">
<rect width="16" height="12" fill="#F5F5F5"/>
<path d="M14 12H2C0.89543 12 0 11.1046 0 10V6L0 2C0 0.89543 0.895431 0 2 0H8H14C15.1046 0 16 0.89543 16 2V10C16 11.1046 15.1046 12 14 12Z" fill="#E25950"/>
<path fill-rule="evenodd" clip-rule="evenodd" d="M15.723 1H8V2H16C16 1.634 15.894 1.295 15.723 1ZM8 3H16V4H8V3ZM16 5H8V6H16V5ZM0 8V7H16V8H0ZM16 10V9H0V10H16ZM0.267564 11C0.613374 11.5978 1.25972 12 2 12H14C14.7403 12 15.3866 11.5978 15.7324 11H0.267564Z" fill="#F6F9FC"/>
<path opacity="0.1" d="M14 12H2C0.89543 12 0 11.1046 0 10V6H1V10C1 10.5523 1.44772 11 2 11H14C14.5523 11 15 10.5523 15 10V2C15 1.44772 14.5523 1 14 1H8V0H14C15.1046 0 16 0.89543 16 2V10C16 11.1046 15.1046 12 14 12Z" fill="#E25950"/>
<path d="M0 6V1.71429C0 0.767512 0.795938 0 1.77778 0H8V6H0Z" fill="#43458B"/>
<path fill-rule="evenodd" clip-rule="evenodd" d="M6.52551 2.00098C6.80165 2.00098 7.02551 1.77712 7.02551 1.50098C7.02551 1.22483 6.80165 1.00098 6.52551 1.00098C6.24937 1.00098 6.02551 1.22483 6.02551 1.50098C6.02551 1.77712 6.24937 2.00098 6.52551 2.00098ZM3.06914 2.75539C3.16269 2.91283 3.33482 3.00652 3.51782 2.99962C3.78644 2.98949 3.99898 2.76878 3.99898 2.49997C3.99898 2.23116 3.78644 2.01046 3.51782 2.00033C3.33482 1.99343 3.16269 2.08712 3.06914 2.24455C2.97559 2.40199 2.97559 2.59796 3.06914 2.75539ZM5.06914 2.75539C5.16269 2.91283 5.33482 3.00652 5.51782 2.99962C5.78644 2.98949 5.99898 2.76878 5.99898 2.49997C5.99898 2.23116 5.78644 2.01046 5.51782 2.00033C5.33482 1.99343 5.16269 2.08712 5.06914 2.24455C4.97559 2.40199 4.97559 2.59796 5.06914 2.75539ZM6.52551 4.00098C6.80165 4.00098 7.02551 3.77712 7.02551 3.50098C7.02551 3.22483 6.80165 3.00098 6.52551 3.00098C6.24937 3.00098 6.02551 3.22483 6.02551 3.50098C6.02551 3.77712 6.24937 4.00098 6.52551 4.00098ZM5.02551 3.50098C5.02551 3.77712 4.80165 4.00098 4.52551 4.00098C4.24937 4.00098 4.02551 3.77712 4.02551 3.50098C4.02551 3.22483 4.24937 3.00098 4.52551 3.00098C4.80165 3.00098 5.02551 3.22483 5.02551 3.50098ZM3.02551 3.50098C3.02551 3.77712 2.80165 4.00098 2.52551 4.00098C2.24937 4.00098 2.02551 3.77712 2.02551 3.50098C2.02551 3.22483 2.24937 3.00098 2.52551 3.00098C2.80165 3.00098 3.02551 3.22483 3.02551 3.50098ZM5.02551 1.50098C5.02551 1.77712 4.80165 2.00098 4.52551 2.00098C4.24937 2.00098 4.02551 1.77712 4.02551 1.50098C4.02551 1.22483 4.24937 1.00098 4.52551 1.00098C4.80165 1.00098 5.02551 1.22483 5.02551 1.50098ZM2.52551 2.00098C2.80165 2.00098 3.02551 1.77712 3.02551 1.50098C3.02551 1.22483 2.80165 1.00098 2.52551 1.00098C2.24937 1.00098 2.02551 1.22483 2.02551 1.50098C2.02551 1.77712 2.24937 2.00098 2.52551 2.00098ZM1.51885 3.00162C1.33585 3.00852 1.16372 2.91483 1.07016 2.7574C0.976612 2.59997 0.976612 2.40398 1.07016 2.24655C1.16372 2.08912 1.33585 1.99543 1.51885 2.00233C1.78747 2.01247 2 2.23317 2 2.50197C2 2.77078 1.78747 2.99148 1.51885 3.00162ZM1.98155 4.24488C1.88812 4.08738 1.71605 3.99357 1.53305 4.00034C1.26442 4.01027 1.05172 4.23083 1.05153 4.49964C1.05134 4.76845 1.26373 4.98931 1.53234 4.99962C1.71533 5.00665 1.88753 4.91308 1.98119 4.75572C2.07485 4.59835 2.07499 4.40238 1.98155 4.24488ZM3.53305 4.00034C3.71605 3.99357 3.88812 4.08738 3.98155 4.24488C4.07499 4.40238 4.07485 4.59835 3.98119 4.75572C3.88753 4.91308 3.71533 5.00665 3.53234 4.99962C3.26373 4.98931 3.05134 4.76845 3.05153 4.49964C3.05172 4.23083 3.26442 4.01027 3.53305 4.00034ZM5.98155 4.24488C5.88812 4.08738 5.71605 3.99357 5.53305 4.00034C5.26442 4.01027 5.05172 4.23083 5.05153 4.49964C5.05134 4.76845 5.26373 4.98931 5.53234 4.99962C5.71533 5.00665 5.88753 4.91308 5.98119 4.75572C6.07485 4.59835 6.07499 4.40238 5.98155 4.24488Z" fill="white"/>
<path opacity="0.5" fill-rule="evenodd" clip-rule="evenodd" d="M1.48152 0.000343102C1.66452 -0.00642627 1.83658 0.0873898 1.93002 0.244887C2.02346 0.402384 2.02332 0.59836 1.92966 0.755724C1.836 0.913088 1.6638 1.00666 1.48081 0.99963C1.21219 0.989312 0.999809 0.768456 1 0.499645C1.00019 0.230833 1.21289 0.0102798 1.48152 0.000343102ZM0.93002 1.24489C0.836583 1.08739 0.664521 0.993574 0.481517 1.00034C0.212889 1.01028 0.000191311 1.23083 1.28624e-07 1.49964C-0.000190796 1.76846 0.212193 1.98931 0.480807 1.99963C0.6638 2.00666 0.835996 1.91309 0.929657 1.75572C1.02332 1.59836 1.02346 1.40238 0.93002 1.24489ZM0.481517 3.00034C0.664521 2.99357 0.836583 3.08739 0.93002 3.24489C1.02346 3.40238 1.02332 3.59836 0.929657 3.75572C0.835996 3.91309 0.6638 4.00666 0.480807 3.99963C0.212193 3.98931 -0.000190796 3.76846 1.28624e-07 3.49964C0.000191311 3.23083 0.212889 3.01028 0.481517 3.00034ZM0.93002 5.24489C0.836583 5.08739 0.664521 4.99357 0.481517 5.00034C0.212889 5.01028 0.000191311 5.23083 1.28624e-07 5.49964C-0.000190796 5.76846 0.212193 5.98931 0.480807 5.99963C0.6638 6.00666 0.835996 5.91309 0.929657 5.75572C1.02332 5.59836 1.02346 5.40238 0.93002 5.24489ZM2.53305 5.00036C2.71605 4.99359 2.88812 5.08741 2.98155 5.24491C3.07499 5.4024 3.07485 5.59838 2.98119 5.75574C2.88753 5.91311 2.71533 6.00668 2.53234 5.99965C2.26373 5.98933 2.05134 5.76848 2.05153 5.49966C2.05172 5.23085 2.26442 5.0103 2.53305 5.00036ZM4.98155 5.24491C4.88812 5.08741 4.71605 4.99359 4.53305 5.00036C4.26442 5.0103 4.05172 5.23085 4.05153 5.49966C4.05134 5.76848 4.26373 5.98933 4.53234 5.99965C4.71533 6.00668 4.88753 5.91311 4.98119 5.75574C5.07485 5.59838 5.07499 5.4024 4.98155 5.24491ZM6.98155 5.24491C6.88812 5.08741 6.71605 4.99359 6.53305 5.00036C6.26442 5.0103 6.05172 5.23085 6.05153 5.49966C6.05134 5.76848 6.26373 5.98933 6.53234 5.99965C6.71533 6.00668 6.88753 5.91311 6.98119 5.75574C7.07485 5.59838 7.07499 5.4024 6.98155 5.24491ZM3.93002 0.244887C3.83658 0.0873898 3.66452 -0.00642627 3.48152 0.000343102C3.21289 0.0102798 3.00019 0.230833 3 0.499645C2.99981 0.768456 3.21219 0.989312 3.48081 0.99963C3.6638 1.00666 3.836 0.913088 3.92966 0.755724C4.02332 0.59836 4.02346 0.402384 3.93002 0.244887ZM5.48152 0.000343102C5.66452 -0.00642627 5.83658 0.0873898 5.93002 0.244887C6.02346 0.402384 6.02332 0.59836 5.92966 0.755724C5.836 0.913088 5.6638 1.00666 5.48081 0.99963C5.21219 0.989312 4.99981 0.768456 5 0.499645C5.00019 0.230833 5.21289 0.0102798 5.48152 0.000343102ZM7.93002 0.244887C7.83658 0.0873898 7.66452 -0.00642627 7.48152 0.000343102C7.21289 0.0102798 7.00019 0.230833 7 0.499645C6.99981 0.768456 7.21219 0.989312 7.48081 0.99963C7.6638 1.00666 7.836 0.913088 7.92966 0.755724C8.02332 0.59836 8.02346 0.402384 7.93002 0.244887ZM7.48152 2.00034C7.66452 1.99357 7.83658 2.08739 7.93002 2.24489C8.02346 2.40238 8.02332 2.59836 7.92966 2.75572C7.836 2.91309 7.6638 3.00666 7.48081 2.99963C7.21219 2.98931 6.99981 2.76846 7 2.49964C7.00019 2.23083 7.21289 2.01028 7.48152 2.00034ZM7.93002 4.24489C7.83658 4.08739 7.66452 3.99357 7.48152 4.00034C7.21289 4.01028 7.00019 4.23083 7 4.49964C6.99981 4.76846 7.21219 4.98931 7.48081 4.99963C7.6638 5.00666 7.836 4.91309 7.92966 4.75572C8.02332 4.59836 8.02346 4.40238 7.93002 4.24489Z" fill="white"/>
</svg>
