<svg width="16" height="12" viewBox="0 0 16 12" fill="none" xmlns="http://www.w3.org/2000/svg">
<rect width="16" height="12" fill="#F5F5F5"/>
<path fill-rule="evenodd" clip-rule="evenodd" d="M2 0C0.895431 0 0 0.895431 0 2V4H16V2C16 0.895431 15.1046 0 14 0H2Z" fill="#FCD669"/>
<path d="M15 4V2C15 1.44772 14.5523 1 14 1H2C1.44772 1 1 1.44772 1 2V4H0V2C0 0.89543 0.89543 0 2 0L14 0C15.1046 0 16 0.89543 16 2V4H15Z" fill="#A68527" fill-opacity="0.1"/>
<path fill-rule="evenodd" clip-rule="evenodd" d="M0 8V10C0 11.1046 0.895431 12 2 12H14C15.1046 12 16 11.1046 16 10V8H0Z" fill="#E25950"/>
<path fill-rule="evenodd" clip-rule="evenodd" d="M0 4V8H16V4H0Z" fill="#43458B"/>
<path fill-rule="evenodd" clip-rule="evenodd" d="M7.5 5.5C7.5 5.22386 7.72386 5 8 5C8.27614 5 8.5 5.22386 8.5 5.5C8.5 5.77614 8.27614 6 8 6C7.72386 6 7.5 5.77614 7.5 5.5ZM6.5 5.5C6.22386 5.5 6 5.72386 6 6C6 6.27614 6.22386 6.5 6.5 6.5C6.77614 6.5 7 6.27614 7 6C7 5.72386 6.77614 5.5 6.5 5.5ZM5 6C4.72386 6 4.5 6.22386 4.5 6.5C4.5 6.77614 4.72386 7 5 7C5.27614 7 5.5 6.77614 5.5 6.5C5.5 6.22386 5.27614 6 5 6ZM9.5 5.5C9.22386 5.5 9 5.72386 9 6C9 6.27614 9.22386 6.5 9.5 6.5C9.77614 6.5 10 6.27614 10 6C10 5.72386 9.77614 5.5 9.5 5.5ZM10.5 6.5C10.5 6.22386 10.7239 6 11 6C11.2761 6 11.5 6.22386 11.5 6.5C11.5 6.77614 11.2761 7 11 7C10.7239 7 10.5 6.77614 10.5 6.5Z" fill="white"/>
</svg>
