<svg width="16" height="12" viewBox="0 0 16 12" fill="none" xmlns="http://www.w3.org/2000/svg">
<rect width="16" height="12" fill="#F5F5F5"/>
<path d="M2 0H14C15.1046 0 16 0.89543 16 2V10C16 11.1046 15.1046 12 14 12H2C0.89543 12 0 11.1046 0 10V2C0 0.89543 0.89543 0 2 0Z" fill="#43458B"/>
<path d="M10 4H14V6.5C14 7.60457 13.1046 8.5 12 8.5C10.8954 8.5 10 7.60457 10 6.5V4Z" fill="#159570"/>
<path d="M10.8819 8.75C10.8819 8.75 10.4294 8.75 9.99999 8.75C10.0381 8.75 9.70801 8.75 9.70801 8.75C10.0937 9.63267 10.9743 10.2497 11.9992 10.25C12.8923 10.2503 13.7178 9.77408 14.1646 9.00072C14.2118 8.91901 14.2541 8.8353 14.2913 8.75H13.1181C12.8366 9.06472 12.4312 9.25014 11.9995 9.25C11.5554 9.24985 11.1565 9.05675 10.8819 8.75Z" fill="#FCD669"/>
<path fill-rule="evenodd" clip-rule="evenodd" d="M1.34608 3.96429H0V2.03571H3V1.92937L0.748407 0.439935C1.01503 0.225756 1.33772 0.0785189 1.69098 0.0237284L3 0.889762V0H5V2.03571H5.04568L8 0.0814286V1.12114L6.61725 2.03571H8V3.96429H5V4.04678L7.93422 5.988H6.36356L5 5.08603V6H3V3.96429H2.91804L0 5.89457V4.85486L1.34608 3.96429Z" fill="white"/>
<path fill-rule="evenodd" clip-rule="evenodd" d="M0.747518 0.440651C0.519848 0.62375 0.333119 0.855685 0.203233 1.12055L1.58686 2.03571H3V1.93089L0.747518 0.440651ZM5 3.96429H6.41281L8 5.01429V6H7.91911L5 4.06907V3.96429ZM3 3.96429V4.95104L1.41422 6H0V5.89629L2.91993 3.96429H3ZM5 2.03571H5.07952L8 0.103714V0H6.58578L5 1.04896V2.03571ZM4.44444 3.42686H8V2.57314H4.44444V0H3.55556V2.57314H0V3.42686H3.55556V6H4.44444V3.42686Z" fill="#E25950"/>
</svg>
