<svg width="16" height="12" viewBox="0 0 16 12" fill="none" xmlns="http://www.w3.org/2000/svg">
<rect width="16" height="12" fill="#F5F5F5"/>
<g clip-path="url(#clip0_0_1)">
<path d="M2 0H14C14.5304 0 15.0391 0.210714 15.4142 0.585786C15.7893 0.960859 16 1.46957 16 2V10C16 10.5304 15.7893 11.0391 15.4142 11.4142C15.0391 11.7893 14.5304 12 14 12H2C1.46957 12 0.960859 11.7893 0.585786 11.4142C0.210714 11.0391 0 10.5304 0 10V2C0 1.46957 0.210714 0.960859 0.585786 0.585786C0.960859 0.210714 1.46957 0 2 0Z" fill="#EAEEF3"/>
<path d="M2 1H14C14.2652 1 14.5196 1.10536 14.7071 1.29289C14.8946 1.48043 15 1.73478 15 2V10C15 10.2652 14.8946 10.5196 14.7071 10.7071C14.5196 10.8946 14.2652 11 14 11H2C1.73478 11 1.48043 10.8946 1.29289 10.7071C1.10536 10.5196 1 10.2652 1 10V2C1 1.73478 1.10536 1.48043 1.29289 1.29289C1.48043 1.10536 1.73478 1 2 1Z" fill="#F6F9FC"/>
<path d="M13.4044 1.92753L9.92873 3.0861C9.82199 3.12168 9.75 3.22156 9.75 3.33407V5.65122C9.75 5.88408 10.0315 6.0007 10.1962 5.83604L13.6719 2.36032C13.867 2.16529 13.6661 1.84031 13.4044 1.92753Z" fill="#FCD669"/>
<path d="M2.59555 1.92753L6.07127 3.0861C6.17801 3.12168 6.25 3.22156 6.25 3.33407V5.65122C6.25 5.88408 5.96846 6.0007 5.8038 5.83604L2.32807 2.36032C2.13304 2.16529 2.33389 1.84031 2.59555 1.92753Z" fill="#FCD669"/>
<circle cx="8" cy="3" r="1" fill="#FCD669"/>
<path d="M10.1583 9.58994L8.1921 7.23046C8.09215 7.11052 7.90794 7.11052 7.80799 7.23046L5.84175 9.58994C5.70605 9.75278 5.82184 9.99999 6.0338 9.99999H9.96628C10.1782 9.99999 10.294 9.75278 10.1583 9.58994Z" fill="#FCD669"/>
<path d="M6 4C6.64704 4.22876 7.35296 4.22876 8 4C8.64704 4.22876 9.35296 4.22876 10 4V5.5H6V4Z" fill="#43458B"/>
<path d="M6 5.50006C6 7.00006 7.5 8.30006 8 8.50006C8.5 8.30006 10 7.00006 10 5.50006H6Z" fill="#E25950"/>
<path d="M2 4H4V8H2V4Z" fill="#45B2E8"/>
<path d="M12 4H14V8H12V4Z" fill="#45B2E8"/>
</g>
<defs>
<clipPath id="clip0_0_1">
<rect width="16" height="12" fill="white"/>
</clipPath>
</defs>
</svg>
