<svg width="16" height="12" viewBox="0 0 16 12" fill="none" xmlns="http://www.w3.org/2000/svg">
<rect width="16" height="12" fill="#F5F5F5"/>
<path fill-rule="evenodd" clip-rule="evenodd" d="M2 0C0.895431 0 0 0.895431 0 2V10C0 11.1046 0.895431 12 2 12H14C15.1046 12 16 11.1046 16 10V2C16 0.895431 15.1046 0 14 0H2Z" fill="#E25950"/>
<path fill-rule="evenodd" clip-rule="evenodd" d="M8.08002 7.78515L6.35672 8.82145C6.12879 8.95851 5.84844 8.75316 5.91037 8.4945L6.36667 6.58863L4.82201 5.14565C4.62774 4.96416 4.74806 4.63836 5.01366 4.62671L6.91194 4.54345L7.8074 2.59363C7.91443 2.36057 8.24561 2.36057 8.35265 2.59363L9.24811 4.54345L11.1464 4.62671C11.412 4.63836 11.5323 4.96416 11.338 5.14565L9.79338 6.58863L10.2497 8.4945C10.3116 8.75316 10.0313 8.95851 9.80332 8.82145L8.08002 7.78515Z" fill="#FCD669"/>
</svg>
