<svg width="16" height="12" viewBox="0 0 16 12" fill="none" xmlns="http://www.w3.org/2000/svg">
<rect width="16" height="12" fill="#F5F5F5"/>
<path fill-rule="evenodd" clip-rule="evenodd" d="M2 0C0.895431 0 0 0.895431 0 2V10C0 11.1046 0.895431 12 2 12H14C15.1046 12 16 11.1046 16 10V2C16 0.895431 15.1046 0 14 0H2Z" fill="#E25950"/>
<path fill-rule="evenodd" clip-rule="evenodd" d="M0 6V10C0 11.1046 0.895431 12 2 12H14C15.1046 12 16 11.1046 16 10V6H0Z" fill="#24B47E"/>
<path fill-rule="evenodd" clip-rule="evenodd" d="M6.67227 4.99999H16V6.99999H6.66106L0.8 11.3958C0.754011 11.4303 0.702737 11.4563 0.648548 11.4732C0.250176 11.106 0 10.5781 0 9.99146L0 2.00852C0 1.41947 0.252973 0.888408 0.655711 0.520508C0.706287 0.537083 0.755057 0.56208 0.8 0.595787L6.67227 4.99999Z" fill="#333333"/>
<path fill-rule="evenodd" clip-rule="evenodd" d="M16 5.50001V6.50001H6.36332L0.307712 11.0632C0.121296 10.7665 0.00990787 10.4173 0.000610352 10.0425L5.39717 5.97592L0.00231717 1.91061C0.020041 1.54042 0.137701 1.19603 0.328772 0.90448L6.42725 5.50001H16V5.50001Z" fill="#FCD669"/>
<path fill-rule="evenodd" clip-rule="evenodd" d="M2 7C2.55228 7 3 6.55228 3 6C3 5.44772 2.55228 5 2 5C1.44772 5 1 5.44772 1 6C1 6.55228 1.44772 7 2 7Z" fill="#FCD669"/>
</svg>
