<svg width="16" height="12" viewBox="0 0 16 12" fill="none" xmlns="http://www.w3.org/2000/svg">
<rect width="16" height="12" fill="#F5F5F5"/>
<g clip-path="url(#clip0_0_1)">
<path d="M2 0H14C14.5304 0 15.0391 0.210714 15.4142 0.585786C15.7893 0.960859 16 1.46957 16 2V10C16 10.5304 15.7893 11.0391 15.4142 11.4142C15.0391 11.7893 14.5304 12 14 12H2C1.46957 12 0.960859 11.7893 0.585786 11.4142C0.210714 11.0391 0 10.5304 0 10V2C0 1.46957 0.210714 0.960859 0.585786 0.585786C0.960859 0.210714 1.46957 0 2 0Z" fill="#43458B"/>
<path d="M7.29302 4.37701C7.48055 4.18954 7.73486 4.08423 8.00002 4.08423C8.26518 4.08423 8.51949 4.18954 8.70702 4.37701L10.618 6.28801C10.8055 6.47554 10.9108 6.72985 10.9108 6.99501C10.9108 7.26018 10.8055 7.51449 10.618 7.70201L8.70702 9.61301C8.51949 9.80049 8.26518 9.9058 8.00002 9.9058C7.73486 9.9058 7.48055 9.80049 7.29302 9.61301L5.38202 7.70201C5.19455 7.51449 5.08923 7.26018 5.08923 6.99501C5.08923 6.72985 5.19455 6.47554 5.38202 6.28801L7.29302 4.37701Z" fill="#FCD669"/>
<path d="M4.25002 3.70299C4.5814 3.70299 4.85002 3.43436 4.85002 3.10299C4.85002 2.77162 4.5814 2.50299 4.25002 2.50299C3.91865 2.50299 3.65002 2.77162 3.65002 3.10299C3.65002 3.43436 3.91865 3.70299 4.25002 3.70299Z" fill="#F6F9FC"/>
<path d="M5.75002 3.25298C6.0814 3.25298 6.35002 2.98435 6.35002 2.65298C6.35002 2.32161 6.0814 2.05298 5.75002 2.05298C5.41865 2.05298 5.15002 2.32161 5.15002 2.65298C5.15002 2.98435 5.41865 3.25298 5.75002 3.25298Z" fill="#F6F9FC"/>
<path d="M7.25002 3.028C7.5814 3.028 7.85002 2.75937 7.85002 2.428C7.85002 2.09663 7.5814 1.828 7.25002 1.828C6.91865 1.828 6.65002 2.09663 6.65002 2.428C6.65002 2.75937 6.91865 3.028 7.25002 3.028Z" fill="#F6F9FC"/>
<path d="M8.75002 3.028C9.0814 3.028 9.35003 2.75937 9.35003 2.428C9.35003 2.09663 9.0814 1.828 8.75002 1.828C8.41865 1.828 8.15002 2.09663 8.15002 2.428C8.15002 2.75937 8.41865 3.028 8.75002 3.028Z" fill="#F6F9FC"/>
<path d="M10.25 3.25298C10.5814 3.25298 10.85 2.98435 10.85 2.65298C10.85 2.32161 10.5814 2.05298 10.25 2.05298C9.91865 2.05298 9.65002 2.32161 9.65002 2.65298C9.65002 2.98435 9.91865 3.25298 10.25 3.25298Z" fill="#F6F9FC"/>
<path d="M11.75 3.70299C12.0814 3.70299 12.35 3.43436 12.35 3.10299C12.35 2.77162 12.0814 2.50299 11.75 2.50299C11.4187 2.50299 11.15 2.77162 11.15 3.10299C11.15 3.43436 11.4187 3.70299 11.75 3.70299Z" fill="#F6F9FC"/>
</g>
<defs>
<clipPath id="clip0_0_1">
<rect width="16" height="12" fill="white"/>
</clipPath>
</defs>
</svg>
