<svg width="16" height="12" viewBox="0 0 16 12" fill="none" xmlns="http://www.w3.org/2000/svg">
<rect width="16" height="12" fill="#F5F5F5"/>
<path fill-rule="evenodd" clip-rule="evenodd" d="M2 0C0.895431 0 0 0.895431 0 2V10C0 11.1046 0.895431 12 2 12H14C15.1046 12 16 11.1046 16 10V2C16 0.895431 15.1046 0 14 0H2Z" fill="#E25950"/>
<path fill-rule="evenodd" clip-rule="evenodd" d="M0 6V10C0 11.1046 0.895431 12 2 12H14C15.1046 12 16 11.1046 16 10V6H0Z" fill="#43458B"/>
<path fill-rule="evenodd" clip-rule="evenodd" d="M6.67227 4.99999H16V6.99999H6.66106L0.8 11.3958C0.754011 11.4303 0.702737 11.4563 0.648548 11.4732C0.250176 11.106 0 10.5781 0 9.99146L0 2.00852C0 1.41947 0.252973 0.888408 0.655711 0.520508C0.706287 0.537083 0.755057 0.56208 0.8 0.595787L6.67227 4.99999Z" fill="#159570"/>
<path fill-rule="evenodd" clip-rule="evenodd" d="M0 9L0 3L4 6L0 9Z" fill="#333333"/>
<path fill-rule="evenodd" clip-rule="evenodd" d="M0 9.00002L4 6.00002L0 3.00002L0 2.00855C0 1.92486 0.0051067 1.84234 0.0150241 1.76129L5.66667 6.00002L0.0149908 10.2388C0.00509574 10.1577 0 10.0752 0 9.99149V9.00002Z" fill="#FCD669"/>
<path fill-rule="evenodd" clip-rule="evenodd" d="M16 4.9995V3.9995H6.83895L1.5678 0.0461426C1.19666 0.127759 0.864107 0.313682 0.601807 0.571647L6.50561 4.9995H16ZM16 8.02002V7.02002H6.49441L0.608016 11.4348C0.872185 11.6922 1.20665 11.8768 1.57925 11.9564L6.82774 8.02002H16Z" fill="#F6F9FC"/>
</svg>
