<svg width="16" height="12" viewBox="0 0 16 12" fill="none" xmlns="http://www.w3.org/2000/svg">
<rect width="16" height="12" fill="#F5F5F5"/>
<path fill-rule="evenodd" clip-rule="evenodd" d="M2 0C0.895431 0 0 0.895431 0 2V10C0 11.1046 0.895431 12 2 12H14C15.1046 12 16 11.1046 16 10V2C16 0.895431 15.1046 0 14 0H2Z" fill="#159570"/>
<rect x="10" y="5" width="2" height="7" fill="#E25950"/>
<rect x="12" y="5" width="2" height="7" fill="#333333"/>
<path fill-rule="evenodd" clip-rule="evenodd" d="M15 2H11V3H15V2ZM16 9.99147V5H14L14.0059 12C15.1072 12 16 11.098 16 9.99147Z" fill="#F79A59"/>
</svg>
