<svg width="128" height="128" viewBox="0 0 128 128" fill="none" xmlns="http://www.w3.org/2000/svg">
<path d="M64.4867 128C60.5516 128 56.6165 126.988 53.0974 124.953L17.3893 104.333C10.3623 100.274 6 92.7191 6 84.6128V43.3844C6 35.2781 10.3623 27.7115 17.3893 23.6639L53.1086 3.04407C60.1356 -1.01469 68.8602 -1.01469 75.8872 3.04407L111.595 23.6639C118.622 27.7227 122.985 35.2781 122.985 43.3844V84.6128C122.985 92.7191 118.622 100.286 111.595 104.333L75.8872 124.953C72.3793 126.977 68.433 128 64.4979 128H64.4867ZM64.4867 3.38137C61.1362 3.38137 57.7745 4.24709 54.7839 5.96728L19.087 26.5871C13.1056 30.0388 9.38418 36.4811 9.38418 43.3844V84.6128C9.38418 91.5274 13.1056 97.9584 19.087 101.41L54.7951 122.03C60.7764 125.482 68.2081 125.482 74.2007 122.03L109.909 101.41C115.89 97.9584 119.612 91.5161 119.612 84.6128V43.3844C119.612 36.4698 115.89 30.0388 109.909 26.5871L74.1895 5.96728C71.1988 4.23584 67.8483 3.38137 64.4867 3.38137Z" fill="#161660"/>
<path d="M97.5636 40.4611L70.76 24.9906C68.8374 23.8775 66.69 23.3266 64.5426 23.3266H64.5201C62.3726 23.3266 60.214 23.8775 58.3026 24.9906L31.4991 40.4611C28.0474 42.4511 26.6083 46.8247 28.4409 50.3663C30.3972 54.144 35.0856 55.4931 38.7284 53.3907L54.4125 44.34C55.6155 43.6429 57.1221 44.5086 57.1221 45.9028V97.0702C57.1221 101.061 60.1802 104.491 64.1715 104.671C68.4214 104.873 71.9293 101.477 71.9293 97.2725V45.869C71.9293 44.4749 73.4359 43.6092 74.6389 44.3062L90.368 53.3794C94.0108 55.4819 98.6991 54.1327 100.655 50.355C102.488 46.8135 101.049 42.4399 97.5973 40.4499L97.5636 40.4611Z" fill="#161660"/>
</svg>
