<svg width="118" height="128" viewBox="0 0 118 128" fill="none" xmlns="http://www.w3.org/2000/svg">
<path d="M58.9592 127.999C55.0242 127.999 51.0891 126.987 47.57 124.952L11.8619 104.332C4.83492 100.274 0.472595 92.7184 0.472595 84.6121V43.3836C0.472595 35.2773 4.83492 27.7107 11.8619 23.6632L47.5812 3.04331C54.6082 -1.01545 63.3328 -1.01545 70.3598 3.04331L106.068 23.6632C113.095 27.7219 117.457 35.2773 117.457 43.3836V84.6121C117.457 92.7184 113.095 100.285 106.068 104.332L70.3598 124.952C66.8519 126.976 62.9056 127.999 58.9705 127.999H58.9592ZM58.9592 3.3806C55.6088 3.3806 52.2471 4.24632 49.2564 5.96652L13.5596 26.5864C7.57824 30.038 3.85677 36.4803 3.85677 43.3836V84.6121C3.85677 91.5266 7.57824 97.9577 13.5596 101.409L49.2677 122.029C55.249 125.481 62.6807 125.481 68.6733 122.029L104.381 101.409C110.363 97.9577 114.084 91.5153 114.084 84.6121V43.3836C114.084 36.4691 110.363 30.038 104.381 26.5864L68.6621 5.96652C65.6714 4.23508 62.3209 3.3806 58.9592 3.3806Z" fill="white"/>
<path d="M92.0362 40.4603L65.2326 24.9898C63.31 23.8767 61.1626 23.3258 59.0152 23.3258H58.9927C56.8452 23.3258 54.6866 23.8767 52.7752 24.9898L25.9717 40.4603C22.52 42.4503 21.0809 46.8239 22.9135 50.3655C24.8698 54.1432 29.5582 55.4923 33.201 53.3899L48.8851 44.3392C50.0881 43.6421 51.5947 44.5078 51.5947 45.902V97.0694C51.5947 101.061 54.6528 104.49 58.6441 104.67C62.894 104.872 66.4019 101.477 66.4019 97.2718V45.8682C66.4019 44.4741 67.9085 43.6084 69.1115 44.3055L84.8406 53.3786C88.4834 55.4811 93.1717 54.1319 95.128 50.3542C96.9607 46.8127 95.5215 42.4391 92.0699 40.4491L92.0362 40.4603Z" fill="white"/>
</svg>
